<?xml version="1.0" standalone="no"?>
<!DOCTYPE svg PUBLIC "-//W3C//DTD SVG 1.1//EN" "http://www.w3.org/Graphics/SVG/1.1/DTD/svg11.dtd" >
<svg>
<metadata>
Created by FontForge 20090914 at Sun Mar 26 12:50:58 2017
 By www-data
Copyright (c) 2012 Patrick Wagesreiter (mail@patrickwagesreiter.at)
</metadata>
<defs>
<font id="PatrickHandSC-Regular" horiz-adv-x="450" >
  <font-face 
    font-family="Patrick Hand SC"
    font-weight="400"
    font-stretch="normal"
    units-per-em="1000"
    panose-1="0 0 5 0 0 0 0 0 0 0"
    ascent="800"
    descent="-200"
    x-height="457"
    cap-height="646"
    bbox="-543 -307 919.998 1042"
    underline-thickness="50"
    underline-position="-50"
    unicode-range="U+000D-U+2767"
  />
<missing-glyph horiz-adv-x="228" 
 />
    <glyph glyph-name="f_f.liga" unicode="ff" horiz-adv-x="525" 
d="M228 211l-120 0.000976562c0 -62 1 -117.333 3 -166c0 -31.333 -10.333 -47 -31 -47s-32.667 12.667 -36 38c-1.33301 6 -2 33.333 -2 82v158c0 57.333 -0.333008 94.666 -1 111.999c-17.333 2 -26 14.667 -26 38c0 5.33301 3 12 9 20c8 10 16.167 15 24.5 15
s24 -1 47 -3s64.167 -3 123.5 -3c6 3.33301 12.167 5 18.5 5s20.333 -1 42 -3s71.167 -3 148.5 -3c38.667 0 58 -10.667 58 -32c0 -16.667 -5.33301 -26.667 -16 -30c-3.33301 -0.666992 -5.66602 -1.5 -6.99902 -2.5s-4.33301 -1.66699 -9 -2
s-7.33398 -0.833008 -8.00098 -1.5c-3.33301 -0.666992 -11.166 -1.33398 -23.499 -2.00098s-29.333 -1 -51 -1s-47.5 1 -77.5 3v-108h130c6 0 12 -3.33301 18 -10s9 -14.5 9 -23.5s-2.83301 -17 -8.5 -24s-13.834 -10.5 -24.501 -10.5h-124
c0 -61.333 1 -116.666 3 -165.999c0 -31.333 -10.333 -47 -31 -47s-32.667 12.667 -36 38c-1.33301 7.33301 -2 66 -2 176zM108 279.001h120c0 56.667 -0.333008 92 -1 106c-12 -0.666992 -27.333 -1 -46 -1s-43 1 -73 3v-108z" />
    <glyph glyph-name="f_i.liga" unicode="fi" horiz-adv-x="400" 
d="M380 362l-2.99805 -254.001c0 -36 0.166992 -60 0.5 -72s-4.16699 -22 -13.5 -30s-20.333 -12 -33 -12s-21.334 8.33301 -26.001 25c-8 150.667 -12 240.834 -12 270.501v52.5v46c-14.667 -2.66699 -29.834 -4 -45.501 -4s-28.5 0.333008 -38.5 1
c1.33301 -26.667 4.33301 -74.167 9 -142.5s7 -134.833 7 -199.5c0 -13.333 -5.33301 -24 -16 -32s-21.667 -12 -33 -12c-18 0 -27 10.667 -27 32c0 60 -2.33301 118.333 -7 175s-8 116.334 -10 179.001c-60 0 -95 6 -105 18c-4 4.66699 -6 10.667 -6 18
c0 17.333 7.16699 28.666 21.5 33.999s30.833 8 49.5 8h40c2 108.667 8 176 18 202c6 16 14.167 27.833 24.5 35.5s19.333 12 27 13s20.5 1.5 38.5 1.5c67.333 0 110.333 -12.667 129 -38c14 -19.333 21 -43 21 -71c0 -14.667 -5.66699 -28 -17 -40s-23.666 -18 -36.999 -18
h-2c-37.333 4 -56 23 -56 57c0 5.33301 2.66699 14 8 26c-10.667 6 -22.334 9 -35.001 9c-29.333 0 -44.333 -26 -45 -78c-0.666992 -5.33301 -1 -11 -1 -17l2 -85l116 5c16.667 0 29.5 -2.33301 38.5 -7s14.5 -14 16.5 -28c1.33301 -18 2 -40.667 2 -68z" />
    <glyph glyph-name="f_l.liga" unicode="fl" horiz-adv-x="512" 
d="M278 393c-10.667 -6 -34.999 -8.99707 -72.999 -8.99707s-72 1 -102 3v-108h130c6 0 12 -3.33301 18 -10s9 -14.5 9 -23.5s-2.83301 -17 -8.5 -24s-13.834 -10.5 -24.501 -10.5h-124c0 -62 1 -117.333 3 -166c0 -31.333 -10.333 -47 -31 -47s-32.667 12.667 -36 38
c-1.33301 6 -2 33.333 -2 82v158c0 57.333 -0.333008 94.666 -1 111.999c-17.333 2 -26 14.667 -26 38c0 5.33301 3.33301 12 10 20c7.33301 10 15.166 15 23.499 15s23.333 -1 45 -3s71.167 -3 148.5 -3c18 0 32.667 -3 44 -9c4 10 14.333 15 31 15c32 0 48 -11.333 48 -34
c-1.33301 -28 -4.66602 -66.667 -9.99902 -116c-8 -64.667 -12 -111.834 -12 -141.501s1 -65.167 3 -106.5l148 9c22 0 33 -11.333 33 -34c0 -18.667 -7 -29.334 -21 -32.001c-30 -4.66699 -63.667 -7 -101 -7l-94 1c-16.667 0 -26 5 -28 15c-4 28 -6 71.667 -6 131z" />
    <glyph glyph-name="l_l.liga" unicode="ll" horiz-adv-x="431" 
d="M127 -2l-83.0029 2.00293c-16.667 0 -26 5 -28 15c-4 28 -6 71.667 -6 131l7 290c0 16.667 12.667 25 38 25c12.667 0 23 -3 31 -9s12 -14.333 12 -25c-1.33301 -28 -4.66602 -66.667 -9.99902 -116c-8 -64.667 -12 -111.834 -12 -141.501s1 -65.167 3 -106.5l122 7
c-0.666992 16.667 -1 42 -1 76l7 290c0 16.667 12.667 25 38 25c12.667 0 23 -3 31 -9s12 -14.333 12 -25c-1.33301 -28 -4.66602 -66.667 -9.99902 -116c-8 -64.667 -12 -111.834 -12 -141.501s1 -65.167 3 -106.5l148 9c22 0 33 -11.333 33 -34
c0 -18.667 -7 -29.334 -21 -32.001c-30 -4.66699 -63.667 -7 -101 -7l-94 1c-8 0 -14.333 1 -19 3c-27.333 -3.33301 -56.666 -5 -87.999 -5z" />
    <glyph glyph-name=".notdef" horiz-adv-x="228" 
 />
    <glyph glyph-name="uni0000" horiz-adv-x="0" 
 />
    <glyph glyph-name="uni0000" horiz-adv-x="0" 
 />
    <glyph glyph-name="CR" unicode="&#xd;" horiz-adv-x="333" 
 />
    <glyph glyph-name="space" unicode=" " horiz-adv-x="230" 
 />
    <glyph glyph-name="exclam" unicode="!" horiz-adv-x="247" 
d="M164 688l-9 -340.999c0 -36.667 0.333008 -60.667 1 -72c-2.66699 -8.66699 -7.83398 -16.334 -15.501 -23.001s-16.167 -10 -25.5 -10s-17 7.33301 -23 22c-10 168 -15 309.333 -15 424c6 16.667 21.333 25 46 25s38.334 -8.33301 41.001 -25zM80 84.001
c0 12 4.66699 23 14 33s21.833 15 37.5 15s27 -3 34 -9s10.5 -19 10.5 -39c0 -35.333 -14.667 -53 -44 -53c-14.667 0 -27 5.83301 -37 17.5s-15 23.5 -15 35.5z" />
    <glyph glyph-name="quotedbl" unicode="&#x22;" horiz-adv-x="303" 
d="M80 547c-8.66699 0 -16.332 3.16797 -22.999 9.50098s-11 15.166 -13 26.499l8 149c3.33301 20.667 14.666 31 33.999 31c23.333 0 35 -22.667 35 -68c0 -11.333 -1.16699 -26 -3.5 -44s-3.83301 -40.333 -4.5 -67c-0.666992 -11.333 -4.16699 -20.333 -10.5 -27
s-13.833 -10 -22.5 -10zM207.002 755.001c18 0 29 -10 33 -30l-5 -125c0 -11.333 -3.33301 -20.333 -10 -27s-14 -10 -22 -10c-22 0 -34 11 -36 33c0 32 1 53.167 3 63.5s3 30.833 3 61.5c1.33301 10 5.33301 18.167 12 24.5s14 9.5 22 9.5z" />
    <glyph glyph-name="numbersign" unicode="#" horiz-adv-x="457" 
d="M436 313c0 -6.66699 -2.33301 -13.332 -7 -19.999s-8.33398 -10.167 -11.001 -10.5s-7.33398 -0.5 -14.001 -0.5l-44 2c-9.33301 -22 -17.5 -44.667 -24.5 -68s-12.167 -38 -15.5 -44h39c17.333 -8 26 -20 26 -36s-9.66699 -25.667 -29 -29h-49
c-0.666992 -4.66699 -2 -17.334 -4 -38.001s-5.66699 -38 -11 -52s-15.666 -21 -30.999 -21s-24.666 9 -27.999 27l11 81l-92 -4l-5 -31c-5.33301 -29.333 -11 -48.333 -17 -57c-6 -7.33301 -13.167 -11 -21.5 -11s-15.5 3.16699 -21.5 9.5s-9.33301 14.5 -10 24.5l7 52
c0.666992 8 1 12.333 1 13h-17c-10 1.33301 -18 5.16602 -24 11.499s-9 13.5 -9 21.5s3.5 15.167 10.5 21.5s15.5 9.5 25.5 9.5h32c8 33.333 21.333 71 40 113c-34.667 -1.33301 -55.834 -1.83301 -63.501 -1.5s-14.667 3.5 -21 9.5s-9.5 13.333 -9.5 22
c0 15.333 8.5 25.333 25.5 30s38.833 8.33398 65.5 11.001l32 4c4.66699 10 8.33398 25 11.001 45c6.66699 44.667 20.667 67 42 67c22.667 0 34 -12.667 34 -38c0 -13.333 -5 -35.666 -15 -66.999c13.333 0 37.333 -1.33301 72 -4c2.66699 8 5.66699 20.667 9 38
s6.33301 29.666 9 36.999c6.66699 22 17.667 33 33 33c20 0 30 -13.667 30 -41c0 -15.333 -5.66699 -40 -17 -74c6.66699 0 18.667 -2.33301 36 -7c13.333 -4 20 -13.333 20 -28zM215 288.002c-5.33301 -10 -21 -50.333 -47 -121c7.33301 0 37 0.666992 89 2
c7.33301 30.667 18 71.667 32 123c-31.333 0 -56 -1.33301 -74 -4z" />
    <glyph glyph-name="dollar" unicode="$" horiz-adv-x="507" 
d="M440 511c-14 0 -24.334 7.99805 -31.001 23.998c-8.66699 34.667 -41.334 55 -98.001 61v-27l-6 -208c113.333 -42 170 -114.667 170 -218c0 -50 -20 -85.667 -60 -107s-83.667 -32 -131 -32v-24c-0.666992 -11.333 -4.66699 -20.666 -12 -27.999s-15 -11 -23 -11
c-19.333 0 -30.666 12 -33.999 36v28c-38.667 10.667 -74.167 27.834 -106.5 51.501s-48.5 47.5 -48.5 71.5c0 10 3 18.333 9 25s13.167 10 21.5 10s19.833 -6.33301 34.5 -19c0.666992 -0.666992 6.33398 -6 17.001 -16c34 -30.667 60 -49.334 78 -56.001
c2.66699 32 4.33398 71.5 5.00098 118.5s3 88.833 7 125.5c-79.333 30 -129 60.667 -149 92c-8 13.333 -12 32.166 -12 56.499s6.66699 51.166 20 80.499s32.166 54.833 56.499 76.5s52.833 35.834 85.5 42.501v28c1.33301 10 5.33301 17.833 12 23.5s14 8.5 22 8.5
c16.667 0 28 -9.66699 34 -29v-28c42.667 -3.33301 80 -15.666 112 -36.999s53 -48.666 63 -81.999c-1.33301 -15.333 -7.66602 -26.333 -18.999 -33c-4.66699 -2.66699 -10.334 -4 -17.001 -4zM238.999 467.998l3 90c0 18 -0.333008 29.667 -1 35
c-28.667 -7.33301 -52.667 -24.5 -72 -51.5s-29 -54.167 -29 -81.5c2 -29.333 35 -54.333 99 -75v83zM379.499 226.998c-16.333 22.667 -44.167 43 -83.5 61c-2 -20 -3.5 -50 -4.5 -90s-2.5 -85.667 -4.5 -137c78 6 117 29.5 117 70.5s-8.16699 72.833 -24.5 95.5z" />
    <glyph glyph-name="percent" unicode="%" horiz-adv-x="643" 
d="M539 599c0 -11.333 -18.334 -43.333 -55.001 -96c-22 -27.333 -76.667 -110.333 -164 -249l-129 -206c-17.333 -27.333 -34.5 -41 -51.5 -41s-29.5 6 -37.5 18c-3.33301 5.33301 -5 11.333 -5 18s2.83301 15.667 8.5 27s25.834 37.833 60.501 79.5s74.5 100 119.5 175
l100.5 164.5c22 34.667 37 60.334 45 77.001c12.667 29.333 29 52.666 49 69.999c12.667 8.66699 24 13 34 13s16.667 -2.33301 20 -7s5 -12.667 5 -24v-19zM66.999 572c31.333 50 78.999 75 142.999 75c34.667 0 63.667 -10 87 -30s35 -50.167 35 -90.5
s-17.5 -80.166 -52.5 -119.499s-73.833 -59 -116.5 -59c-31.333 0 -59.166 12.333 -83.499 37s-36.5 55.667 -36.5 93s8 68.666 24 93.999zM256.998 515c0 48.667 -15 73.002 -45 73.002s-53.5 -9.83301 -70.5 -29.5s-25.5 -42.834 -25.5 -69.501s3.5 -44 10.5 -52
s21 -12 42 -12s41 8.66699 60 26s28.5 38.666 28.5 63.999zM373.998 241.002c33.333 32 69 48 107 48s68.5 -13.5 91.5 -40.5s34.5 -60.667 34.5 -101s-15 -73.833 -45 -100.5s-65.5 -40 -106.5 -40s-73.167 10.5 -96.5 31.5s-35 52 -35 93s16.667 77.5 50 109.5z
M397.998 141.002c0 -43.333 20.667 -65.001 62 -65.001c18 0 36 8.33301 54 25s27 33.334 27 50.001c0 29.333 -7.66699 50 -23 62c-7.33301 5.33301 -16 8 -26 8c-24 0 -45.667 -7.5 -65 -22.5s-29 -34.167 -29 -57.5z" />
    <glyph glyph-name="ampersand" unicode="&#x26;" horiz-adv-x="530" 
d="M360.5 434.5c-18.333 -23 -48.499 -47.5 -90.499 -73.5c8 -12 21 -30.333 39 -55s29 -40 33 -46l31 -51c20 32.667 31.667 57.334 35 74.001c5.33301 20 19 30 41 30c11.333 0 20.666 -3.16699 27.999 -9.5s11 -14.833 11 -25.5c0 -26 -26 -70.333 -78 -133
c20.667 -40 36 -74.667 46 -104c-1.33301 -10 -6 -18.667 -14 -26s-17 -11 -27 -11s-19 4 -27 12c-5.33301 8 -9.66602 17 -12.999 27s-9 24.333 -17 43c-30.667 -32.667 -56.334 -54.834 -77.001 -66.501s-44.5 -17.5 -71.5 -17.5s-54.167 10.667 -81.5 32
s-48 47.666 -62 78.999c-14 28 -21 56 -21 84c0 44 11.333 79.5 34 106.5s56 53.167 100 78.5c-31.333 56.667 -47 105.334 -47 146.001s12.5 73 37.5 97s55.167 36 90.5 36s65.5 -14.667 90.5 -44s37.5 -61.333 37.5 -96s-9.16699 -63.5 -27.5 -86.5zM262.001 585
c-34.667 0 -52.667 -27.999 -54 -83.999c3.33301 -28.667 13 -57.334 29 -86.001c46.667 28 70 55.833 70 83.5s-5 49.167 -15 64.5c-8.66699 14.667 -18.667 22 -30 22zM208.001 87.001c34.667 0 73 21.333 115 64l-10 15.5l-17.5 27c-7.66699 11.667 -19 28 -34 49
s-28.5 43.167 -40.5 66.5l-8 14c-21.333 -15.333 -36.333 -27 -45 -35c-30 -26 -45 -56.167 -45 -90.5s11.667 -63.833 35 -88.5c13.333 -14.667 30 -22 50 -22z" />
    <glyph glyph-name="quotesingle" unicode="'" horiz-adv-x="164" 
d="M80 655c-8.66699 0 -16.332 3.16797 -22.999 9.50098s-11 15.166 -13 26.499l8 149c3.33301 20.667 14.666 31 33.999 31c23.333 0 35 -22.667 35 -68c0 -11.333 -1.16699 -26 -3.5 -44s-3.83301 -40.333 -4.5 -67c-0.666992 -11.333 -4.16699 -20.333 -10.5 -27
s-13.833 -10 -22.5 -10z" />
    <glyph glyph-name="parenleft" unicode="(" horiz-adv-x="334" 
d="M72.5 498.5c8.33301 41 20.833 77.332 37.5 108.999s36.834 65.5 60.501 101.5s44.5 59.667 62.5 71c7.33301 4 15 6 23 6s16.333 -3.33301 25 -10s13 -12.834 13 -18.501s-15.167 -30 -45.5 -73s-50.5 -72.167 -60.5 -87.5s-19.167 -34.166 -27.5 -56.499
s-14.333 -50.333 -18 -84s-5.5 -73.834 -5.5 -120.501s7.33301 -98.667 22 -156s31 -95.666 49 -114.999c56.667 -61.333 85 -99.333 85 -114c0 -7.33301 -4.66699 -13.166 -14 -17.499s-19.833 -6.5 -31.5 -6.5s-21.834 4 -30.501 12
c-59.333 59.333 -100.333 118.5 -123 177.5s-34 127.167 -34 204.5s4.16699 136.5 12.5 177.5z" />
    <glyph glyph-name="parenright" unicode=")" horiz-adv-x="364" 
d="M270.5 168c-16.333 -50.667 -48.499 -109.002 -96.499 -175.002c-24 -32.667 -40.333 -52 -49 -58s-17.834 -9 -27.501 -9s-18.5 3.5 -26.5 10.5s-12 14.167 -12 21.5c0 2 18.167 29 54.5 81s60.833 90.667 73.5 116s21.334 57.5 26.001 96.5s7 82.333 7 130
s-7.5 100.334 -22.5 158.001s-31.5 96.167 -49.5 115.5c-58.667 60.667 -88 99.667 -88 117c0 6 4.83301 11 14.5 15s20.667 6 33 6s20.833 -3 25.5 -9c63.333 -63.333 106.166 -125.166 128.499 -185.499s33.5 -134.5 33.5 -222.5s-8.16699 -157.333 -24.5 -208z" />
    <glyph glyph-name="asterisk" unicode="*" horiz-adv-x="404" 
d="M191 379c-19.333 0 -31.0029 11.9961 -35.0029 35.9961c0 26.667 1.33301 50.667 4 72c-36.667 -25.333 -61.667 -38 -75 -38s-23.333 5.33301 -30 16c-3.33301 5.33301 -5 12 -5 20s8.66699 18.667 26 32c10 6.66699 27 16.667 51 30
c-38 35.333 -61.667 56.666 -71 63.999c-8.66699 8.66699 -13 17.834 -13 27.501s3.16699 17.834 9.5 24.501s14.166 10 23.499 10s18.833 -4 28.5 -12s16.667 -14 21 -18s7.5 -7 9.5 -9l37 -39c0.666992 4.66699 1.33398 16.334 2.00098 35.001s1.66699 33.334 3 44.001
s5 20.834 11 30.501s14.333 14.5 25 14.5c16.667 0 28 -10 34 -30l-5 -65c22 12.667 47 25 75 37h5c10 0 18.5 -3.16699 25.5 -9.5s10.5 -13.5 10.5 -21.5c0 -16 -15.333 -32 -46 -48c-3.33301 -2 -7.16602 -4.16699 -11.499 -6.5s-14 -8 -29 -17s-26.833 -15.5 -35.5 -19.5
c10 -8 25.667 -16.667 47 -26c44.667 -19.333 67 -36.666 67 -51.999c0 -10 -3.16699 -18.167 -9.5 -24.5s-15.166 -9.5 -26.499 -9.5c-23.333 0 -52.333 12.333 -87 37c-0.666992 -2 -1.16699 -6 -1.5 -12s-0.666016 -10.833 -0.999023 -14.5s-0.5 -8.83398 -0.5 -15.501
c-2.66699 -28.667 -13.667 -43 -33 -43z" />
    <glyph glyph-name="plus" unicode="+" horiz-adv-x="480" 
d="M204 277l0.000976562 8.00098l-2 70c0 67.333 16.667 101 50 101c15.333 0 25.666 -9.66699 30.999 -29l-2 -150h126c19.333 -3.33301 29 -12.333 29 -27c0 -10.667 -4 -20.834 -12 -30.501s-17.667 -16.167 -29 -19.5h-115c-0.666992 -4.66699 -1 -12.334 -1 -23.001
v-48v-7c0 -73.333 -16 -110 -48 -110c-20.667 0 -31 11.667 -31 35c0 68 1 119 3 153h-135c-22 0 -33 9 -33 27c0 10.667 4.5 21.334 13.5 32.001s19.5 16.667 31.5 18h124z" />
    <glyph glyph-name="comma" unicode="," horiz-adv-x="202" 
d="M113 104c18 0 30 -9.33203 36 -27.999c0 -44 -7 -83.667 -21 -119c-4.66699 -12.667 -11.5 -23.334 -20.5 -32.001s-18.5 -13 -28.5 -13c-22 0 -33 11.667 -33 35c0 7.33301 1 14.333 3 21c20.667 23.333 31 58.333 31 105c4 20.667 15 31 33 31z" />
    <glyph glyph-name="hyphen" unicode="-" horiz-adv-x="404" 
d="M152 197l-83 -2.00098c-9.33301 0 -17.166 3.33301 -23.499 10s-9.5 16.167 -9.5 28.5s4 22.5 12 30.5s19.333 12 34 12h54h145h50c24.667 -1.33301 37 -14 37 -38c0 -11.333 -3.83301 -21.166 -11.5 -29.499s-18.834 -12.5 -33.501 -12.5z" />
    <glyph glyph-name="period" unicode="." horiz-adv-x="214" 
d="M145 104c10.667 -10.667 17 -25.333 19 -44c0 -14.667 -5.33301 -28.167 -16 -40.5s-23.167 -18.5 -37.5 -18.5s-27.166 3.83301 -38.499 11.5s-17 19.5 -17 35.5s5.16699 32 15.5 48s22.666 24 36.999 24s26.833 -5.33301 37.5 -16z" />
    <glyph glyph-name="slash" unicode="/" horiz-adv-x="423" 
d="M44 -14c0 2.66699 1.00098 7.33496 3.00098 14.002c43.333 102 90.666 220.333 141.999 355l142 358c9.33301 17.333 23 26 41 26c8 0 14.667 -2.33301 20 -7s8 -10.834 8 -18.501s-8.33301 -30.834 -25 -69.501s-56.834 -139.5 -120.501 -302.5
s-112.5 -283.5 -146.5 -361.5c-11.333 -15.333 -23.666 -23 -36.999 -23c-18 0 -27 9.66699 -27 29z" />
    <glyph glyph-name="zero" unicode="0" horiz-adv-x="448" 
d="M31 316c0 89.333 16.001 168 48.001 236c16 34.667 37.667 62 65 82s58.666 30 93.999 30c52 0 94.5 -33.833 127.5 -101.5s49.5 -148 49.5 -241s-15.333 -170 -46 -231s-74 -91.5 -130 -91.5c-138.667 0 -208 105.667 -208 317zM229.001 91
c24 0 44.168 12.5 60.501 37.5s27.5 53 33.5 84s9 71.333 9 121s-6.66699 102.5 -20 158.5c-6.66699 30.667 -16.834 55.167 -30.501 73.5s-30.167 27.5 -49.5 27.5c-26 0 -48.333 -15.667 -67 -47c-33.333 -56.667 -50 -132 -50 -226c0 -61.333 11.5 -114.833 34.5 -160.5
s49.5 -68.5 79.5 -68.5z" />
    <glyph glyph-name="one" unicode="1" horiz-adv-x="363" 
d="M316 47c0 -32.667 -17.665 -48.998 -52.998 -48.998c-7.33301 0 -13.833 3.16699 -19.5 9.5s-8.5 16.166 -8.5 29.499l-3 254c0 84 1 163 3 237c-22.667 -20 -44.667 -43 -66 -69s-35.833 -43.333 -43.5 -52s-17.667 -17.167 -30 -25.5s-23.833 -12.5 -34.5 -12.5
s-19.167 3.66699 -25.5 11s-9.5 16.333 -9.5 27s7.83301 25.167 23.5 43.5s73.5 80.5 173.5 186.5c15.333 14 34.666 21 57.999 21c11.333 0 20.666 -3.33301 27.999 -10s11 -14.334 11 -23.001l-7 -269z" />
    <glyph glyph-name="two" unicode="2" horiz-adv-x="468" 
d="M293 -2l-146.996 2h-20c-66 0 -99 12.667 -99 38c0 18 3.33301 35 10 51s13 28 19 36s18 21.333 36 40s31 32.667 39 42s32.167 33 72.5 71s70.666 72.333 90.999 103s30.5 63 30.5 97c0 52.667 -21 86.667 -63 102c-12 4 -24.333 6 -37 6
c-28.667 0 -57.334 -12.333 -86.001 -37c-11.333 -10.667 -23.333 -16 -36 -16c-4 0 -7.66699 0.333008 -11 1c-16.667 4 -25 15.667 -25 35c0 26 18.333 47.667 55 65c39.333 18.667 82.166 28 128.499 28s84.333 -16.833 114 -50.5s44.5 -75.5 44.5 -125.5
c0 -71.333 -22 -132.666 -66 -183.999c-20.667 -24 -41.667 -46.333 -63 -67c-67.333 -64 -112.333 -112.667 -135 -146c30 -2 67.167 -3 111.5 -3s99.166 2.66699 164.499 8c10 -2 18.167 -6.5 24.5 -13.5s9.5 -14.833 9.5 -23.5c0 -22.667 -12 -38.334 -36 -47.001
c-24 -8 -66 -12 -126 -12z" />
    <glyph glyph-name="three" unicode="3" horiz-adv-x="448" 
d="M218 584c-39.333 0 -76.0049 -17.002 -110.005 -51.002c-9.33301 -6.66699 -17.666 -10 -24.999 -10s-13.666 0.666992 -18.999 2c-15.333 4.66699 -23 15.334 -23 32.001c0 27.333 17.333 51.333 52 72s75.667 31 123 31s86.833 -12.5 118.5 -37.5
s47.5 -57.5 47.5 -97.5s-4.5 -73.333 -13.5 -100s-28.5 -48.667 -58.5 -66c70.667 -26.667 106 -74.667 106 -144c0 -58.667 -17.667 -109.167 -53 -151.5s-78.5 -63.5 -129.5 -63.5s-95.833 12.167 -134.5 36.5s-58 51.833 -58 82.5c0 6 3.33301 13 10 21
s16.334 12 29.001 12s26.334 -5.83301 41.001 -17.5s31.334 -23.334 50.001 -35.001s39.667 -17.5 63 -17.5c66.667 0 100 41.667 100 125c0 32 -11.5 57.833 -34.5 77.5s-55.5 29.834 -97.5 30.501c-8.66699 0.666992 -15.167 1.33398 -19.5 2.00098s-10 3.66699 -17 9
s-10.5 13.666 -10.5 24.999c0 24 13.333 37 40 39s50.5 14 71.5 36s31.5 49.667 31.5 83c0 18.667 -8 35.834 -24 51.501s-34.667 23.5 -56 23.5z" />
    <glyph glyph-name="four" unicode="4" horiz-adv-x="375" 
d="M252 221c-24 -4 -57.999 -6 -101.999 -6s-74 7.33301 -90 22s-24 46.5 -24 95.5s3.66699 102.833 11 161.5s15.5 101.834 24.5 129.501s26.833 41.5 53.5 41.5c18 0 28.333 -7.66699 31 -23v-19c0 -8.66699 -2 -21 -6 -37c-16 -117.333 -24 -201 -24 -251
c0 -12 0.333008 -22 1 -30c12 -2.66699 28.167 -4 48.5 -4s46.166 2 77.499 6c1.33301 14 2 32.833 2 56.5s0.333008 43.5 1 59.5s3 27.333 7 34s15.5 10 34.5 10s31 -3.33301 36 -10s7.5 -15.834 7.5 -27.501s-1 -36 -3 -73s-3 -141.167 -3 -312.5
c0 -30 -14.667 -45 -44 -45h-4c-24.667 0 -37 20.333 -37 61v55z" />
    <glyph glyph-name="five" unicode="5" horiz-adv-x="423" 
d="M121 431c27.333 10 53.6641 15.002 78.9971 15.002s49.833 -4 73.5 -12s45.334 -20.333 65.001 -37s35.5 -39.5 47.5 -68.5s18 -62.5 18 -100.5c0 -64 -18.667 -118 -56 -162s-80.5 -66 -129.5 -66s-92 11.167 -129 33.5s-55.5 46.833 -55.5 73.5
c0 12.667 1.5 22.167 4.5 28.5s8.5 11.5 16.5 15.5s15.167 6 21.5 6s15 -3.83301 26 -11.5l46.5 -32.5c20 -14 43 -21 69 -21s49 13.167 69 39.5s30 55.166 30 86.499c0 90 -40.333 135 -121 135c-17.333 0 -37.5 -1.66699 -60.5 -5s-38 -5.33301 -45 -6
s-16.5 1.66602 -28.5 6.99902c-14 13.333 -21 55.833 -21 127.5s1.66699 118 5 139s9 33.167 17 36.5c14 6 55.833 9 125.5 9s125.5 -6.66699 167.5 -20c13.333 -8 20 -19.5 20 -34.5s-4.16699 -27.167 -12.5 -36.5s-17.166 -13 -26.499 -11c-55.333 12 -111 18 -167 18
c-17.333 0 -34.666 -0.666992 -51.999 -2c0 -26 1 -74 3 -144z" />
    <glyph glyph-name="six" unicode="6" horiz-adv-x="399" 
d="M197.5 469c-35.667 -71.333 -55.167 -114.003 -58.5 -128.003c28 7.33301 56.5 11 85.5 11s56.167 -8 81.5 -24c41.333 -27.333 62 -71.333 62 -132c0 -132.667 -64.667 -199.334 -194 -200.001h-3c-47.333 0 -81.333 16.5 -102 49.5s-32 76.833 -34 131.5
c0 126.667 47.667 266.334 143 419.001c16 26.667 30 44 42 52s21.5 12 28.5 12s14.167 -2.66699 21.5 -8s11 -12.666 11 -21.999s-5 -20.666 -15 -33.999s-32.833 -55.666 -68.5 -126.999zM270.5 251.997c-15 14.667 -35.1689 21.999 -60.502 21.999s-44 -2 -56 -6
c-9.33301 -4 -16.666 -9.16699 -21.999 -15.5s-10.166 -16.166 -14.499 -29.499s-6.5 -31.5 -6.5 -54.5s6.5 -43 19.5 -60s28.833 -25.5 47.5 -25.5c37.333 0 65.833 11 85.5 33s29.5 46.5 29.5 73.5s-7.5 47.833 -22.5 62.5z" />
    <glyph glyph-name="seven" unicode="7" horiz-adv-x="495" 
d="M339 358l-7.99902 -314.999c0 -14.667 -4.83301 -25.667 -14.5 -33s-20.5 -11 -32.5 -11c-18.667 0 -28 25 -28 75c0 103.333 3 198.666 9 285.999l-102 -6c-8 -0.666992 -15.333 3.16602 -22 11.499s-10 16.833 -10 25.5c0 23.333 14 35 42 35l98 1l10 121
c-22.667 8 -80.667 19.333 -174 34c-36 6 -57.333 9.66699 -64 11c-17.333 3.33301 -26 16.333 -26 39c0 8 3.33301 15.667 10 23s16.167 11 28.5 11s62.333 -7.16699 150 -21.5s136.167 -25.833 145.5 -34.5c4 -3.33301 6 -15.666 6 -36.999c0 -10 -2.33301 -37 -7 -81
c-4 -30.667 -6.33301 -51.667 -7 -63l50 3h22.5c10.333 0 19.166 -2.33301 26.499 -7s11 -13.5 11 -26.5s-4.66699 -22.667 -14 -29s-27.333 -9.83301 -54 -10.5z" />
    <glyph glyph-name="eight" unicode="8" horiz-adv-x="433" 
d="M341 630c32.667 -23.333 48.999 -56.333 48.999 -99c0 -60.667 -32.667 -113 -98 -157c38 -40.667 65 -75.667 81 -105c17.333 -32 26 -70 26 -114s-16.333 -80.333 -49 -109c-35.333 -30.667 -79.666 -46 -132.999 -46s-95 13.333 -125 40
c-31.333 28 -47 66.333 -47 115c0 79.333 38.333 149.333 115 210c-28.667 15.333 -53.334 39 -74.001 71c-21.333 32.667 -32 67.167 -32 103.5s14.667 65.833 44 88.5c32 24.667 72.333 37 121 37s89.334 -11.667 122.001 -35zM124.999 526
c0 -13.333 3.99902 -26.001 11.999 -38.001s16 -21 24 -27s19 -13.667 33 -23s23.333 -15.666 28 -18.999l43 32.5c7.33301 5.66699 15.833 13.667 25.5 24s15.667 19.333 18 27s3.33301 19.167 3 34.5s-9.66602 28.833 -27.999 40.5s-37.5 17.5 -57.5 17.5h-6
c-63.333 -5.33301 -95 -28.333 -95 -69zM118.998 166.999l-0.000976562 -9.00098c0.666992 -26 11.834 -46 33.501 -60s48.5 -21 80.5 -21c30 0 51.667 8.33301 65 25s19.833 37 19.5 61s-8.33301 48 -24 72s-40.5 53.333 -74.5 88
c-34 -23.333 -59.167 -48.666 -75.5 -75.999s-24.5 -54 -24.5 -80z" />
    <glyph glyph-name="nine" unicode="9" horiz-adv-x="367" 
d="M339 521l-1.00195 -99.999v-189l2 -190c0 -12 -5.16699 -21.833 -15.5 -29.5s-20 -11.5 -29 -11.5s-16.167 4.16699 -21.5 12.5s-8.33301 17.833 -9 28.5c-4.66699 98 -7 199.333 -7 304c-17.333 -22.667 -52.333 -34 -105 -34c-36 0 -65.667 18.667 -89 56
s-35 77.666 -35 120.999c0 57.333 17.833 101.166 53.5 131.499s80.834 45.5 135.501 45.5s92.334 -21 113.001 -63c5.33301 -11.333 8 -38.666 8 -81.999zM259.998 497.001l0.99707 48.999c0 16 -1.33301 26.5 -4 31.5s-6 8.83301 -10 11.5
c-4.66699 4.66699 -10.167 7 -16.5 7s-14.666 -1.16699 -24.999 -3.5s-23.666 -7 -39.999 -14s-30.666 -18.667 -42.999 -35s-18.5 -37.5 -18.5 -63.5s6.66699 -47.333 20 -64s27.333 -25 42 -25c4 0 8.33301 0.666992 13 2c40 10.667 67 21.334 81 32.001v72z" />
    <glyph glyph-name="colon" unicode=":" horiz-adv-x="232" 
d="M148.5 403c11 -10.667 17.5 -25.333 19.5 -44c0 -14.667 -5.5 -28.167 -16.5 -40.5s-23.5 -18.5 -37.5 -18.5s-26.667 4 -38 12s-17 19.833 -17 35.5s5 31.5 15 47.5s22.167 24 36.5 24s27 -5.33301 38 -16zM124 113.001c5.33301 0 11.999 -1.66699 19.999 -5
c4.66699 -2.66699 9.83398 -10 15.501 -22s8.5 -24 8.5 -36s-5.66699 -23.167 -17 -33.5s-24 -15.5 -38 -15.5s-25.5 5.16699 -34.5 15.5s-13.5 23.5 -13.5 39.5c0 38 19.667 57 59 57z" />
    <glyph glyph-name="semicolon" unicode=";" horiz-adv-x="232" 
d="M148.5 400.5c11 -10.333 17.499 -25.167 19.499 -44.5c0 -14 -5.33301 -27 -16 -39s-21.667 -18 -33 -18c-22 0 -38.667 5.66699 -50 17c-6.66699 6 -10 14 -10 24c0 24.667 6.33301 43.5 19 56.5s24.834 19.5 36.501 19.5s23 -5.16699 34 -15.5zM140.499 -49.001
c-18.333 -24.667 -35.332 -36.998 -50.999 -36.998s-23.5 5 -23.5 15c0 4.66699 6.83301 15.5 20.5 32.5s22.167 31.5 25.5 43.5c-14.667 0 -27.667 5.66699 -39 17s-17 24.666 -17 39.999s4.66699 28.666 14 39.999s21.666 17 36.999 17s27.333 -3 36 -9
c16.667 -10.667 25 -33.667 25 -69s-9.16699 -65.333 -27.5 -90z" />
    <glyph glyph-name="less" unicode="&#x3c;" horiz-adv-x="396" 
d="M26 236c0 12 5.66699 21.666 17 28.999c92.667 76.667 178 140.667 256 192c6.66699 3.33301 14.167 5 22.5 5s16 -3.66699 23 -11s10.5 -15.666 10.5 -24.999s-2.66699 -17.666 -8 -24.999l-228 -166c16 -12 51.833 -36.667 107.5 -74s96.5 -66.666 122.5 -87.999
c5.33301 -8.66699 8 -16.834 8 -24.501s-4.33301 -15.334 -13 -23.001s-17.5 -11.5 -26.5 -11.5s-14.833 1 -17.5 3c-28 22 -69.5 52 -124.5 90s-99.833 70.667 -134.5 98c-10 8.66699 -15 19 -15 31z" />
    <glyph glyph-name="equal" unicode="=" horiz-adv-x="572" 
d="M466 389c-5.33301 -8.66699 -11.334 -14.334 -18.001 -17.001c-43.333 -2.66699 -82.666 -4 -117.999 -4l-190 4c-16 0 -24 8 -24 24c0 8.66699 2.83301 17.334 8.5 26.001s12.5 13.667 20.5 15l190 -4c34.667 0 74.667 1.33301 120 4
c12.667 -2.66699 19 -9.16699 19 -19.5s-2.66699 -19.833 -8 -28.5zM473.999 247c0 -8.66699 -2.5 -16.999 -7.5 -24.999s-11.167 -12.667 -18.5 -14l-316 -4c-15.333 0 -23 8.33301 -23 25c0 10 2.66699 19.167 8 27.5s12 13.166 20 14.499
c63.333 0.666992 168.333 1 315 1c14.667 -0.666992 22 -9 22 -25z" />
    <glyph glyph-name="greater" unicode="&#x3e;" horiz-adv-x="400" 
d="M92 462c7.33301 -2.66699 16.165 -7.16895 26.498 -13.502s20 -12.666 29 -18.999l37.5 -26.5l64 -44c26.667 -18 61.667 -44.667 105 -80c14.667 -12.667 22 -24.5 22 -35.5s-5.33301 -22.167 -16 -33.5l-18 -18c-6 -6 -22.333 -18.333 -49 -37l-30 -21l-70 -48
c-33.333 -22.667 -64 -45.667 -92 -69c-3.33301 -2 -9.66602 -3 -18.999 -3s-18.166 4 -26.499 12s-12.5 16.833 -12.5 26.5s2 17.5 6 23.5l124.5 87c51 34.667 88.833 61.667 113.5 81c-19.333 14.667 -49.666 35.834 -90.999 63.501l-141 96.5
c-8.66699 10.667 -13 20.667 -13 30s2.83301 17 8.5 23s12.167 9 19.5 9s14.666 -1.33301 21.999 -4z" />
    <glyph glyph-name="question" unicode="?" horiz-adv-x="368" 
d="M278 570c0 16 -8.49902 30.335 -25.499 43.002s-34.167 19 -51.5 19s-33.333 -3.83301 -48 -11.5s-25.334 -16.834 -32.001 -27.501c-18.667 -26.667 -33 -40 -43 -40c-28.667 0 -43 14 -43 42c0 25.333 17.667 51.166 53 77.499s72.333 39.5 111 39.5
c54.667 0 98 -22.333 130 -67c17.333 -24.667 26 -49.667 26 -75c0 -44 -18 -86.333 -54 -127c-15.333 -17.333 -30.666 -33.666 -45.999 -48.999c-36.667 -36.667 -55 -61 -55 -73s4.66699 -25.333 14 -40c8.66699 -14.667 13 -24.667 13 -30s-1.66699 -11.333 -5 -18
c-8 -12 -19.5 -18 -34.5 -18s-30.167 10.167 -45.5 30.5s-23 42.833 -23 67.5c0 43.333 16.333 82.666 49 117.999c15.333 16.667 29.666 30.667 42.999 42c44.667 42 67 74.333 67 97zM156.501 117.002c9 10 21.5 15 37.5 15s27.5 -3 34.5 -9s10.5 -19 10.5 -39
c0 -35.333 -16 -53 -48 -53c-12 0 -23 6 -33 18s-15 23.833 -15 35.5s4.5 22.5 13.5 32.5z" />
    <glyph glyph-name="at" unicode="@" horiz-adv-x="550" 
d="M288 142l0.00195312 2.99512c-4.66699 -0.666992 -15 -1 -31 -1c-48 0 -80 9.66699 -96 29c-10 12.667 -15 27.167 -15 43.5s6.66699 34.5 20 54.5s30.166 36.167 50.499 48.5s38.166 18.5 53.499 18.5s29 -2 41 -6c0 4 3.33301 7.33301 10 10s14 4 22 4
c18.667 0 28 -5.66699 28 -17c0 -1.33301 -3.66699 -35 -11 -101c19.333 10.667 34.833 24.5 46.5 41.5s17.5 35 17.5 54s-7 33.833 -21 44.5c-23.333 19.333 -55.5 29 -96.5 29s-77.333 -9.16699 -109 -27.5s-55.667 -42.166 -72 -71.499s-24.5 -61.166 -24.5 -95.499
s14.667 -63.833 44 -88.5s70.333 -37 123 -37c32 0 62.333 7.16699 91 21.5s49.667 30.833 63 49.5s25.333 28 36 28s19 -2.5 25 -7.5s9 -11.167 9 -18.5s-0.333008 -11.666 -1 -12.999c-10 -42 -33.833 -75 -71.5 -99s-80.167 -36 -127.5 -36c-96 0 -169 31.667 -219 95
c-25.333 33.333 -38 72.333 -38 117s14.167 87 42.5 127s64.5 71.167 108.5 93.5s87.333 33.5 130 33.5s81.334 -10.333 116.001 -31c40 -23.333 60 -61.666 60 -114.999s-23.333 -97.333 -70 -132c-20 -15.333 -43.333 -26.666 -70 -33.999
c-2.66699 -22 -10.334 -34.667 -23.001 -38c-6.66699 -1.33301 -12 -2 -16 -2c-16.667 0 -25 8.66699 -25 26zM293.002 203.995c4.66699 25.333 7 46.668 7 64.001c0 10 -6 15 -18 15c-26 0 -45.667 -10.333 -59 -31c-8 -10.667 -12 -24.334 -12 -41.001
c9.33301 -5.33301 24.333 -8 45 -8s33 0.333008 37 1z" />
    <glyph glyph-name="A" unicode="A" horiz-adv-x="488" 
d="M259 659c16.667 0 30.6709 -7.33301 42.0039 -22s26 -45 44 -91c42 -108.667 83 -279 123 -511c0.666992 -2.66699 1 -6.5 1 -11.5s-3.16699 -10.333 -9.5 -16s-15.333 -8.5 -27 -8.5s-21.5 2.83301 -29.5 8.5s-13.333 15 -16 28l-15 76.5
c-16 84.667 -26.667 128.667 -32 132c-8 4.66699 -34.5 9.66699 -79.5 15s-74.833 8 -89.5 8s-23.334 -1.33301 -26.001 -4c-12 -10.667 -28.333 -91.667 -49 -243c-2.66699 -12.667 -15.334 -19 -38.001 -19s-34 9.66699 -34 29c0 48 17.667 139.667 53 275
s64.666 225 87.999 269c29.333 56.667 60.666 85 93.999 85zM255.004 548c-10 0 -27.333 -29.501 -52 -88.501s-37 -95.5 -37 -109.5c0 -3.33301 0.666992 -5.66602 2 -6.99902c5.33301 -5.33301 26.333 -10 63 -14s61 -6 73 -6s18.667 0.833008 20 2.5s2 7 2 16
s-9 45.667 -27 110s-32.667 96.5 -44 96.5z" />
    <glyph glyph-name="B" unicode="B" horiz-adv-x="507" 
d="M198 2l-129 2.99805c-7.33301 28 -11.666 154 -12.999 378v71c0 56.667 5.33301 99.834 16 129.501s33 53.5 67 71.5c17.333 8.66699 41.5 13 72.5 13s54.833 -2 71.5 -6c44.667 -9.33301 75.167 -26.666 91.5 -51.999s24.5 -59.333 24.5 -102
c0 -59.333 -15.667 -103 -47 -131c16 -2 32 -10 48 -24s29 -28.333 39 -43c17.333 -26.667 26 -63 26 -109c0 -72 -21.833 -123.167 -65.5 -153.5s-110.834 -45.5 -201.501 -45.5zM136 488.998l1.99902 -114.002c1.33301 0 12.666 1.5 33.999 4.5s39.333 6.16699 54 9.5
c67.333 16 101 54.333 101 115c0 30 -8.83301 52 -26.5 66s-40.834 21 -69.501 21c-36 0 -60.333 -6.33301 -73 -19c-5.33301 -5.33301 -9.66602 -9.83301 -12.999 -13.5s-5.66602 -9.5 -6.99902 -17.5s-2.16602 -13.667 -2.49902 -17s-0.333008 -9.66602 0 -18.999
s0.5 -14.666 0.5 -15.999zM329.999 295.996c-14 6 -34.168 9 -60.501 9s-71.166 -4.33301 -134.499 -13c0 -104 1.66699 -174.333 5 -211c78 0 132.667 5.16699 164 15.5s52.5 23 63.5 38s16.5 31 16.5 48s-0.166992 29 -0.5 36s-2.33301 16.667 -6 29s-9 22 -16 29
s-17.5 13.5 -31.5 19.5z" />
    <glyph glyph-name="C" unicode="C" horiz-adv-x="548" 
d="M336 654c44.667 0 93.999 -8.66699 147.999 -26c12 -9.33301 18 -19.5 18 -30.5s-5.5 -20.667 -16.5 -29s-23.5 -12.5 -37.5 -12.5c-36 9.33301 -69.667 14 -101 14c-72 0 -126.667 -21.333 -164 -64s-56 -106 -56 -190s22 -149.667 66 -197
c22.667 -24.667 49.667 -37 81 -37s81.333 16.667 150 50c24 11.333 40 17 48 17c17.333 0 26 -9 26 -27s-8.33301 -33 -25 -45c-57.333 -30 -102 -50.167 -134 -60.5s-59.667 -15.5 -83 -15.5c-48 0 -89 17.667 -123 53c-60.667 65.333 -91 154.5 -91 267.5
s28.833 196.667 86.5 251s126.834 81.5 207.501 81.5z" />
    <glyph glyph-name="D" unicode="D" horiz-adv-x="475" 
d="M59 32c-10 7.33301 -14.998 15.501 -14.998 24.501s3.66699 16.5 11 22.5c-12.667 95.333 -19 204.666 -19 327.999c0 37.333 1.66699 110 5 218c3.33301 10 10.166 18.667 20.499 26s20.166 11 29.499 11s15 -0.333008 17 -1c95.333 -26.667 178.333 -78.167 249 -154.5
s107.667 -167.833 111 -274.5c0 -117.333 -48.667 -191 -146 -221c-28 -8.66699 -57.5 -13 -88.5 -13s-58.167 2.33301 -81.5 7c2.66699 -5.33301 4 -12.5 4 -21.5s-5.5 -17.667 -16.5 -26s-24 -12.5 -39 -12.5s-24.5 9 -28.5 27zM119.002 415.001
c0 -116.667 6.66602 -227.335 19.999 -332.002c16 -4.66699 43 -7 81 -7s74.5 6.33301 109.5 19s53.5 31.334 55.5 56.001c2 18.667 3 33 3 43c0 86.667 -23.167 163.334 -69.5 230.001s-111.166 117.334 -194.499 152.001c-3.33301 -78.667 -5 -132.334 -5 -161.001z" />
    <glyph glyph-name="E" unicode="E" horiz-adv-x="442" 
d="M55 344c-9.33301 6 -13.999 14.667 -13.999 26s3.66699 21.666 11 30.999c-2.66699 66.667 -4 137 -4 211c4 16 10.167 27.667 18.5 35s20.5 12 36.5 14c88 -4 183.333 -6 286 -6c25.333 -5.33301 38 -16.333 38 -33c0 -28 -27.333 -44.333 -82 -49
c-14.667 -0.666992 -30.667 -1 -48 -1h-65c-12.667 0 -47.667 2.66699 -105 8c0 -83.333 1.33301 -140.666 4 -171.999c35.333 -0.666992 103.333 -1 204 -1c24 -4.66699 36 -15.5 36 -32.5s-9.66699 -30.167 -29 -39.5c-2 -1.33301 -5.66699 -2.66602 -11 -3.99902l-173 3
c-10.667 0 -19.334 -0.666992 -26.001 -2l4 -172c0 -38.667 -1 -66.334 -3 -83.001l232 3c21.333 -3.33301 32 -12.333 32 -27c0 -10 -4.5 -20 -13.5 -30s-19.5 -16.333 -31.5 -19l-256 -4c-15.333 -0 -26 2.83301 -32 8.5s-9 15.167 -9 28.5c2.66699 18.667 4 48.667 4 90
v70z" />
    <glyph glyph-name="F" unicode="F" horiz-adv-x="375" 
d="M210 648l111 2c49.333 0 74 -13 74 -39c0 -9.33301 -1.33301 -15.833 -4 -19.5s-4.66699 -6.5 -6 -8.5s-4 -3.66699 -8 -5c-8 -2.66699 -14.667 -4.33398 -20 -5.00098s-9 -1 -11 -1c-7.33301 -1.33301 -19.666 -2.33301 -36.999 -3s-42.5 -1 -75.5 -1
s-73.5 1.33301 -121.5 4v-184h204c7.33301 0 14.166 -3.33301 20.499 -10s9.5 -14 9.5 -22c0 -30.667 -13 -46 -39 -46h-195l4 -262c0 -34 -11.5 -51 -34.5 -51s-36.5 15.333 -40.5 46c-2 10 -3.16699 94.833 -3.5 254.5s-1.16602 251.5 -2.49902 275.5
c-24.667 -2.66699 -37 11.333 -37 42c0 8 3.33301 16.833 10 26.5s12.5 14.834 17.5 15.501s11.333 1 19 1s26.5 -1.33301 56.5 -4c41.333 -4 77.666 -6 108.999 -6z" />
    <glyph glyph-name="G" unicode="G" horiz-adv-x="480" 
d="M331 664c32 0 63.8281 -8.00098 95.4951 -24.001s47.5 -34 47.5 -54c0 -30.667 -12.667 -46 -38 -46c-9.33301 0 -25.666 6 -48.999 18s-43 18 -59 18c-57.333 0 -105.166 -25.667 -143.499 -77s-57.5 -116.666 -57.5 -195.999c0 -59.333 13 -111.333 39 -156
s56.833 -67 92.5 -67s63.667 11.833 84 35.5s30.5 50.5 30.5 80.5c0 16.667 -1.16699 30.5 -3.5 41.5s-8.16602 21 -17.499 30s-21.666 13.5 -36.999 13.5s-29.833 3.33301 -43.5 10s-20.5 15.667 -20.5 27s3.33301 22 10 32s15.667 16 27 18
c45.333 0 75.833 -4.66699 91.5 -14s27.5 -17 35.5 -23s14.667 -16 20 -30s9.5 -25.667 12.5 -35s5.16699 -24.333 6.5 -45c1.33301 -34.667 2 -75.167 2 -121.5s-3.33301 -74.833 -10 -85.5c-6 -8.66699 -16 -13.167 -30 -13.5s-23.667 2.5 -29 8.5
s-8.66602 19.333 -9.99902 40c-16 -14 -36.167 -25.833 -60.5 -35.5s-45.833 -14.5 -64.5 -14.5c-58.667 0 -108 31.167 -148 93.5s-60 137.5 -60 225.5c0 46.667 7.66699 92.5 23 137.5s36 82.833 62 113.5c54.667 63.333 122 95 202 95z" />
    <glyph glyph-name="H" unicode="H" horiz-adv-x="468" 
d="M132 383c52 -8.66699 99.668 -12.999 143.001 -12.999s71 0.333008 83 1c-1.33301 50.667 -2 99.334 -2 146.001v95c0 16.667 0.666992 27.167 2 31.5s5.66602 8.5 12.999 12.5s18 6 32 6c20 0 30 -12 30 -36v-354c0 -73.333 -1.66699 -154 -5 -242
c-0.666992 -19.333 -17 -29 -49 -29c-16 0 -24 9.66699 -24 29l4 265c-21.333 -1.33301 -50.5 -2 -87.5 -2s-83.5 4 -139.5 12c0 -88 4 -180 12 -276c0.666992 -10.667 -4 -18.834 -14 -24.501s-22.5 -8.5 -37.5 -8.5s-23.167 7.66699 -24.5 23
c-8.66699 94.667 -13 188 -13 280l6 312c0 13.333 5 23.166 15 29.499s20.667 9.5 32 9.5c18.667 0 28 -9 28 -27z" />
    <glyph glyph-name="I" unicode="I" horiz-adv-x="235" 
d="M135 646c13.333 0 21.668 -7.66797 25.001 -23.001c0.666992 -77.333 2 -193 4 -347c0 -94 -2.66699 -173.667 -8 -239c-1.33301 -10 -7.5 -18.833 -18.5 -26.5s-22.167 -11.5 -33.5 -11.5c-18.667 0 -28 9.66699 -28 29c6.66699 66.667 10 149.334 10 248.001l-6 336
c2.66699 9.33301 9.16699 17.333 19.5 24s22.166 10 35.499 10z" />
    <glyph glyph-name="J" unicode="J" horiz-adv-x="370" 
d="M255 657c10.667 7.33301 21.165 11.001 31.498 11.001s18.333 -2.33301 24 -7s8.83398 -10.334 9.50098 -17.001c14 -180 21 -293.833 21 -341.5s-0.666992 -83.5 -2 -107.5s-4.66602 -49.833 -9.99902 -77.5s-13 -49.5 -23 -65.5c-22 -37.333 -57.333 -56 -106 -56
s-88.334 16.167 -119.001 48.5s-46 78.833 -46 139.5c0 10 5.16699 19.167 15.5 27.5s21.5 12.5 33.5 12.5c14.667 0 23.667 -13.667 27 -41c8.66699 -77.333 37.667 -116 87 -116c12.667 0 23.5 4.16699 32.5 12.5s15.833 18.333 20.5 30s8.33398 27.167 11.001 46.5
c4 28 6 61.5 6 100.5s-4.83301 110.167 -14.5 213.5s-14.5 158.5 -14.5 165.5s5.33301 14.167 16 21.5z" />
    <glyph glyph-name="K" unicode="K" horiz-adv-x="523" 
d="M73 114c0 51.333 -3.16895 138.167 -9.50195 260.5s-11.833 199.833 -16.5 232.5c0 14.667 5 27.5 15 38.5s21.333 16.5 34 16.5c16 0 26.667 -10 32 -30c10.667 -66.667 17.334 -162.667 20.001 -288c60 55.333 106.5 102.666 139.5 141.999
s67.833 89.666 104.5 150.999c10.667 18 26.334 27 47.001 27c10.667 0 19.5 -2.83301 26.5 -8.5s10.5 -12.5 10.5 -20.5c0 -21.333 -18.833 -58.166 -56.5 -110.499s-77.5 -103.166 -119.5 -152.499c56 -56 104 -120.667 144 -194l21 -35l20 -33
c12.667 -22 19 -40.667 19 -56s-3.83301 -27.833 -11.5 -37.5s-17.167 -14.5 -28.5 -14.5s-26 14.833 -44 44.5l-77.5 126c-33.667 54.333 -69.167 102.166 -106.5 143.499c-37.333 -36 -65.333 -61 -84 -75c2 -42.667 3 -78.167 3 -106.5s-0.666992 -51.166 -2 -68.499
c-4 -43.333 -21.667 -65 -53 -65c-19.333 0 -28.333 11.667 -27 35v78z" />
    <glyph glyph-name="L" unicode="L" horiz-adv-x="372" 
d="M27 139l1.00195 78l9 418c0 8 4.33301 14.333 13 19s19.667 7 33 7c32 0 48 -11.333 48 -34c0 -7.33301 -3.83301 -63.333 -11.5 -168s-11.5 -167.334 -11.5 -188.001v-106c0 -50 3.33301 -77.333 10 -82c10 -3.33301 21.667 -5 35 -5l144 10c31.333 0 47 -11.333 47 -34
c0 -18 -8.5 -31.167 -25.5 -39.5s-33.833 -13 -50.5 -14s-37 -1.5 -61 -1.5c-104.667 0 -161.334 3.33301 -170.001 10c-4.66699 4 -7.33398 19.167 -8.00098 45.5s-1.16699 44.833 -1.5 55.5s-0.5 20.334 -0.5 29.001z" />
    <glyph glyph-name="M" unicode="M" horiz-adv-x="595" 
d="M513 666c16 0 26.3301 -11.667 30.9971 -35c3.33301 -108.667 5 -227.167 5 -355.5s-0.666992 -202.5 -2 -222.5s-5.66602 -34 -12.999 -42s-20.666 -12 -39.999 -12c-17.333 0 -26 10.667 -26 32v226c0 36.667 -0.666992 74.334 -2 113.001s-2 63 -2 73
c-22.667 -38.667 -52.667 -70.5 -90 -95.5s-79 -37.5 -125 -37.5s-84.667 19 -116 57c-1.33301 -40.667 -2 -88.834 -2 -144.501s0.333008 -114.167 1 -175.5c0 -16.667 -5.5 -28.834 -16.5 -36.501s-23.5 -11.5 -37.5 -11.5c-18 0 -27 11 -27 33c0.666992 60 1 155 1 285
v284c0 11.333 3.83301 22.333 11.5 33s16.667 16 27 16s19.833 -2.83301 28.5 -8.5s13.334 -14.167 14.001 -25.5c2.66699 -74 14.667 -129 36 -165s46.666 -54 75.999 -54s54.5 4.83301 75.5 14.5s38.333 20.834 52 33.501s26.834 30.667 39.501 54
c18 33.333 35.333 74.333 52 123c10 29.333 26.333 44 49 44z" />
    <glyph glyph-name="N" unicode="N" horiz-adv-x="532" 
d="M449 662c10.667 0 20.333 -4.50488 29 -13.5049s13 -19.5 13 -31.5c0 -260.667 1.16699 -418.167 3.5 -472.5s3.5 -82.166 3.5 -83.499c0 -14.667 -4 -28.5 -12 -41.5s-16.833 -19.5 -26.5 -19.5s-17 0.5 -22 1.5s-9.5 2.16699 -13.5 3.5s-8 4 -12 8l-10 10
c-2.66699 2.66699 -6.16699 7.83398 -10.5 15.501l-10.5 18.5c-2.66699 4.66699 -6.83398 12.834 -12.501 24.501s-18 35.5 -37 71.5l-51.5 97c-52.667 96.667 -101.667 173 -147 229c0 -216.667 -6 -367 -18 -451c-2 -16 -14.333 -24 -37 -24
c-10.667 0 -19.5 2.66699 -26.5 8s-10.5 14 -10.5 26s2.5 78 7.5 198s7.5 194.833 7.5 224.5v56.5c0 48 3.66699 75 11 81s15 9 23 9c36.667 0 92.667 -60 168 -180c14.667 -23.333 42.667 -72.166 84 -146.499s66 -120.166 74 -137.499l-12 415c0 57.333 6.33301 90 19 98
c6.66699 4 15.334 6 26.001 6z" />
    <glyph glyph-name="O" unicode="O" horiz-adv-x="556" 
d="M306 665c46.667 0 86.3311 -14.999 118.998 -44.999c64 -57.333 96 -147.833 96 -271.5s-35.333 -220.834 -106 -291.501c-36.667 -35.333 -79 -54.666 -127 -57.999c-63.333 0 -112.666 21.667 -147.999 65s-60.5 91.833 -75.5 145.5s-22.5 105.5 -22.5 155.5
c0 85.333 20.333 155.666 61 210.999c42.667 59.333 110.334 89 203.001 89zM298.997 582.001c-89.333 0 -144.999 -42.333 -166.999 -127c-6.66699 -22.667 -10 -51.667 -10 -87s6.66699 -76.333 20 -123c18 -62.667 44.667 -106.667 80 -132c20.667 -16 45.667 -24 75 -24
s55.666 13.167 78.999 39.5s39.333 59.833 48 100.5s13 81.667 13 123c0 73.333 -10.5 130 -31.5 170s-56.5 60 -106.5 60z" />
    <glyph glyph-name="P" unicode="P" horiz-adv-x="481" 
d="M57 102c-4.66699 68.667 -7 161.501 -7 278.501s1.66699 192.833 5 227.5c3.33301 21.333 18 35.5 44 42.5s60.333 10.5 103 10.5c62.667 0 115.5 -13.5 158.5 -40.5s64.5 -66.833 64.5 -119.5c0 -43.333 -6 -79.5 -18 -108.5s-27 -50.5 -45 -64.5
c-29.333 -22.667 -72.666 -34 -129.999 -34c-24.667 0 -57 3.33301 -97 10c3.33301 -133.333 4.66602 -217.333 3.99902 -252s-12.334 -52 -35.001 -52c-14.667 0 -24 2.66699 -28 8s-6.66699 9.16602 -8 11.499s-2.66602 5.83301 -3.99902 10.5s-2.33301 8.5 -3 11.5
s-1.16699 7.5 -1.5 13.5s-0.833008 10.667 -1.5 14c-0.666992 10 -1 21 -1 33zM298 562.501c-29.333 15.667 -60.6641 23.499 -93.9971 23.499s-56.666 -3 -69.999 -9c-2.66699 -39.333 -4 -75.5 -4 -108.5s1.33301 -62.833 4 -89.5c18 -2 30.333 -3.66699 37 -5
c17.333 -2 32.166 -3 44.499 -3s20.666 0.166992 24.999 0.5s12.666 1.33301 24.999 3s21.166 4.5 26.499 8.5s12 9.33301 20 16s13.667 14.334 17 23.001c8.66699 24 13 49.5 13 76.5s-14.667 48.333 -44 64z" />
    <glyph glyph-name="Q" unicode="Q" horiz-adv-x="655" 
d="M494 52l-13.001 14.998c-47.333 -40.667 -105.333 -64.334 -174 -71.001c-50.667 4 -96.167 21.5 -136.5 52.5s-70.666 70 -90.999 117s-30.5 94.167 -30.5 141.5c0 90.667 23 171.667 69 243c22 35.333 50.667 63.333 86 84s74 31 116 31s81.667 -9.66699 119 -29
s68 -45.666 92 -78.999c49.333 -69.333 74 -148.666 74 -237.999c0 -67.333 -20 -131.333 -60 -192c0 -0.666992 10.333 -11.667 31 -33c19.333 -21.333 29 -37.166 29 -47.499s-3.5 -20.833 -10.5 -31.5s-18.5 -16 -34.5 -16s-38 17.667 -66 53zM173.999 160.998
c30.667 -55.333 78.999 -85 144.999 -89c53.333 4.66699 95 18.334 125 41.001l-79 91c-20.667 23.333 -31 41.166 -31 53.499s4.33301 22.666 13 30.999s19.5 12.5 32.5 12.5s30.167 -11.333 51.5 -34c12.667 -14.667 29.667 -35.667 51 -63
c9.33301 -13.333 15.333 -21.333 18 -24c21.333 38.667 32 81 32 127c0 104 -34.667 183.333 -104 238c-34.667 28 -75.667 42 -123 42c-61.333 0 -106.666 -28 -135.999 -84c-24.667 -49.333 -37 -106.166 -37 -170.499s14 -121.5 42 -171.5z" />
    <glyph glyph-name="R" unicode="R" horiz-adv-x="454" 
d="M103 10.5c-10.667 -9.66699 -22.1689 -14.498 -34.502 -14.498s-20.833 8 -25.5 24c-2 88 -3 175.667 -3 263l-3 252c0 50.667 22.333 85.334 67 104.001c36 16.667 78.667 25 128 25c25.333 0 52.5 -6.16699 81.5 -18.5s55 -30.333 78 -54s34.5 -49.334 34.5 -77.001
s-12.667 -57.334 -38 -89.001s-56.666 -59.667 -93.999 -84s-73.666 -42.5 -108.999 -54.5c62 -43.333 116 -89.833 162 -139.5s69 -88.167 69 -115.5c0 -8.66699 -4.33301 -16.834 -13 -24.501s-19.167 -11.5 -31.5 -11.5s-22.833 5.33301 -31.5 16
c-14.667 35.333 -42.5 72.5 -83.5 111.5s-88.833 76.167 -143.5 111.5l6 -192c0 -12 -5.33301 -22.833 -16 -32.5zM265.498 399.002c55.667 35.333 83.499 67.168 83.499 95.501s-14 50.166 -42 65.499s-61.167 23 -99.5 23s-68.833 -4.66699 -91.5 -14
c-0.666992 -34 -1 -109.333 -1 -226c44.667 2 94.834 20.667 150.501 56z" />
    <glyph glyph-name="S" unicode="S" horiz-adv-x="459" 
d="M266 662c43.333 0 80.168 -7.33203 110.501 -21.999s45.5 -33.334 45.5 -56.001c0 -10 -2.5 -18.667 -7.5 -26s-12.333 -11 -22 -11s-30.5 7.5 -62.5 22.5s-61.167 22.5 -87.5 22.5s-53.5 -8.33301 -81.5 -25s-42 -37 -42 -61c0 -32.667 17 -56.667 51 -72
c25.333 -11.333 61.666 -21.5 108.999 -30.5s86 -27.333 116 -55s45 -69.5 45 -125.5c0 -85.333 -25.667 -148.333 -77 -189c-28.667 -22.667 -69.167 -34 -121.5 -34s-104.5 14.333 -156.5 43c-34 18 -51 36 -51 54c0 6.66699 2.83301 14 8.5 22s13.5 14.667 23.5 20
s19.167 6.16602 27.5 2.49902s21.833 -10.167 40.5 -19.5s32.334 -15.666 41.001 -18.999c28 -10.667 54.333 -16 79 -16s48.5 12.167 71.5 36.5s34.5 54.166 34.5 89.499c0 46.667 -23.333 79.334 -70 98.001c-22.667 9.33301 -48.334 16.333 -77.001 21
c-59.333 10.667 -104 28.5 -134 53.5s-45 62.833 -45 113.5s21.667 90.5 65 119.5s99 43.5 167 43.5z" />
    <glyph glyph-name="T" unicode="T" horiz-adv-x="468" 
d="M44 649l405 6.00098c19.333 -6 29 -15.667 29 -29c0 -33.333 -13.667 -50 -41 -50c-50 0 -103 -1.33301 -159 -4c-3.33301 -57.333 -5 -100.5 -5 -129.5v-55.5l4 -351c0 -20.667 -5.33301 -32.667 -16 -36c-8 -2.66699 -18 -4 -30 -4c-19.333 0 -30 11 -32 33
c-4 51.333 -6 147.166 -6 287.499s2 224.833 6 253.5c-14 -0.666992 -34.667 -1 -62 -1s-61.333 0.333008 -102 1c-10.667 0 -19 3.33301 -25 10s-9 14.834 -9 24.501s4.16699 19.167 12.5 28.5s18.5 14.666 30.5 15.999z" />
    <glyph glyph-name="U" unicode="U" horiz-adv-x="550" 
d="M464 666c11.333 0 21.0029 -5.66602 29.0029 -16.999c11.333 -58 17 -123 17 -195v-76c0 -57.333 -1 -91.166 -3 -101.499s-4 -21.833 -6 -34.5s-3.83301 -22.334 -5.5 -29.001s-4.16699 -15.667 -7.5 -27c-7.33301 -24.667 -17.666 -46.667 -30.999 -66
c-20 -37.333 -46.333 -66.666 -79 -87.999s-65.834 -32 -99.501 -32s-68.334 14.667 -104.001 44s-64.834 66 -87.501 110c-34.667 68 -52 146.333 -52 235c0 31.333 4.66699 105.666 14 222.999c4.66699 10.667 11.834 20.167 21.501 28.5s19.5 12.5 29.5 12.5
c14.667 0 23.667 -10 27 -30c-9.33301 -115.333 -14 -188.333 -14 -219c0 -73.333 14.333 -138.333 43 -195c18 -37.333 40.167 -68.5 66.5 -93.5s52.166 -37.5 77.499 -37.5c42 0 78 32.667 108 98c12.667 22.667 19.667 59 21 109c0 13.333 0.666992 22.666 2 27.999
l2 132c0 61.333 -4.66699 117.333 -14 168c0 14 4.66699 26.333 14 37s19.666 16 30.999 16z" />
    <glyph glyph-name="V" unicode="V" horiz-adv-x="562" 
d="M295 19c-27.333 80.667 -55.6689 154.501 -85.002 221.501l-113 252.5l-30 65.5c-4 8.33301 -6 17.666 -6 27.999s5.16699 20.5 15.5 30.5s21.833 15 34.5 15s23.334 -6.33301 32.001 -19l48 -110l144 -339l18 70c14.667 61.333 30 122 46 182c45.333 164 90 246 134 246
c8 0 14.833 -2.33301 20.5 -7s8.5 -11 8.5 -19s-4.16699 -19.667 -12.5 -35s-18.833 -43 -31.5 -83s-20.5 -63.5 -23.5 -70.5s-19 -63.167 -48 -168.5s-53.833 -188 -74.5 -248c-3.33301 -10.667 -9.66602 -19.5 -18.999 -26.5s-19.833 -10.5 -31.5 -10.5
s-20.5 8.33301 -26.5 25z" />
    <glyph glyph-name="W" unicode="W" horiz-adv-x="616" 
d="M575 667c14 0 23.668 -10.002 29.001 -30.002c-4 -67.333 -8.33301 -115.166 -13 -143.499s-8.5 -53.166 -11.5 -74.499s-5 -36 -6 -44s-3.83301 -24.333 -8.5 -49l-14.5 -73.5l-9 -43.5l-18.5 -89.5c-11.333 -55 -19.833 -88.667 -25.5 -101
s-15.334 -18.5 -29.001 -18.5s-24.5 4 -32.5 12c-30.667 42 -59.667 94 -87 156l-22.5 52l-18.5 42l-9 21c-14 -24 -33.333 -64.667 -58 -122s-46.334 -103.333 -65.001 -138c-12 -15.333 -25.333 -23 -40 -23c-30.667 0 -54 81.667 -70 245
c0 0.666992 -0.5 4.33398 -1.5 11.001s-2.33301 18.334 -4 35.001s-3.66699 35.167 -6 55.5s-10.833 104.5 -25.5 252.5c0 13.333 5 25.5 15 36.5s21 16.5 33 16.5c14.667 0 24.667 -9.66699 30 -29c18 -216.667 36 -376.667 54 -480c5.33301 9.33301 19 40.166 41 92.499
s42 94 60 125s35.333 46.5 52 46.5c11.333 0 21 -6 29 -18c42 -119.333 78 -203.333 108 -252c0.666992 7.33301 4.66699 27.333 12 60l13 64c0 4 0.833008 9.66699 2.5 17s3 14.5 4 21.5s2.16699 13.5 3.5 19.5l11 63c16 98.667 26 179.667 30 243
c2.66699 11.333 8.83398 21.166 18.501 29.499s19.5 12.5 29.5 12.5z" />
    <glyph glyph-name="X" unicode="X" horiz-adv-x="601" 
d="M63 -5c-22.667 0 -33.998 9.66504 -33.998 28.998c0 10.667 2.66699 21.334 8 32.001l76.5 84.5c45.667 50.333 87.834 99.5 126.501 147.5c-90.667 141.333 -148.334 233.666 -173.001 276.999c-3.33301 8 -5 16.833 -5 26.5s4.83301 19.5 14.5 29.5s20.667 15 33 15
s22.166 -5.66699 29.499 -17l161 -259c69.333 81.333 135 172 197 272c11.333 20 27.333 30 48 30c8 0 14.833 -2.5 20.5 -7.5s8.5 -11.167 8.5 -18.5s-2 -16.666 -6 -27.999c-50 -83.333 -124.667 -187.666 -224 -312.999c57.333 -92 110.333 -166.333 159 -223
c5.33301 -10.667 8 -20.667 8 -30s-4.83301 -19 -14.5 -29s-20.5 -15 -32.5 -15s-22.333 3.33301 -31 10c-30 38 -80 110 -150 216l-191 -217c-10.667 -8 -20.334 -12 -29.001 -12z" />
    <glyph glyph-name="Y" unicode="Y" horiz-adv-x="442" 
d="M178 242l1 50.998c0 17.333 -5.5 34.333 -16.5 51s-37.5 65 -79.5 145s-63 125.167 -63 135.5s4.33301 19.666 13 27.999s17.167 12.5 25.5 12.5s18.333 -7.66699 30 -23s34.667 -55.666 69 -120.999s54.166 -101.333 59.499 -108c64 113.333 115.333 193.333 154 240
c9.33301 8.66699 16.833 13 22.5 13s9.83398 -0.666992 12.501 -2c16 -6.66699 24 -15.5 24 -26.5s-2.66699 -20.5 -8 -28.5l-44 -63c-35.333 -49.333 -65.833 -99.166 -91.5 -149.499s-38.5 -81.166 -38.5 -92.499v-183l3 -80c0 -14.667 -4 -24.834 -12 -30.501
s-17.833 -8.5 -29.5 -8.5s-19.5 6.33301 -23.5 19s-6.33301 29.334 -7 50.001s-1 51 -1 91v80z" />
    <glyph glyph-name="Z" unicode="Z" horiz-adv-x="507" 
d="M229 0l-151.998 -3.99805h-10.5c-5.66699 0 -10.834 2.5 -15.501 7.5s-7 13.5 -7 25.5c9.33301 51.333 22.666 92.166 39.999 122.499s41.5 63.166 72.5 98.499s50.833 58.333 59.5 69c-82.667 14 -124 34 -124 60c0 14 4.5 25.5 13.5 34.5s16.5 13.5 22.5 13.5
s25.5 -4.5 58.5 -13.5s64.167 -14.833 93.5 -17.5c2 3.33301 9 12.666 21 27.999l33 42c24.667 32.667 45.667 65 63 97c-79.333 17.333 -188 26 -326 26c-22.667 0 -34 10.333 -34 31c0 7.33301 5 15.833 15 25.5s22.167 15.167 36.5 16.5s39.166 2 74.499 2
s88.666 -4.66699 159.999 -14c103.333 -13.333 158 -32 164 -56c0.666992 -2 1 -6.5 1 -13.5s-5.66699 -21.167 -17 -42.5c-15.333 -30 -45.333 -74 -90 -132c-6 -8 -10.667 -14 -14 -18c2.66699 0 8.83398 0.166992 18.501 0.5s16.167 0.333008 19.5 0
s8 -1.16602 14 -2.49902c13.333 -4 20 -14.833 20 -32.5s-8.83301 -29.667 -26.5 -36s-32.334 -9.5 -44.001 -9.5h-25.5l-36 4c-43.333 -48.667 -74.666 -85 -93.999 -109c-32.667 -42.667 -56 -85 -70 -127l137 -4c20.667 0 44 1 70 3l55 5
c5.33301 0.666992 10.833 1 16.5 1s12.5 -0.333008 20.5 -1c17.333 -1.33301 28 -13 32 -35c2.66699 -16.667 -5.66602 -28.334 -24.999 -35.001c-21.333 -7.33301 -43 -11.166 -65 -11.499s-38.667 -0.5 -50 -0.5l-83 2h-22z" />
    <glyph glyph-name="bracketleft" unicode="[" horiz-adv-x="303" 
d="M140 13c2.66699 0.666992 11.335 1.00195 26.002 1.00195c49.333 0 74 -9.33301 74 -28c0 -35.333 -32 -53 -96 -53c-40 0 -64.333 5.33301 -73 16c-4.66699 5.33301 -7 12.666 -7 21.999v341l-3 85v304c1.33301 23.333 9.16602 39 23.499 47s38.166 12 71.499 12h16
c56.667 0 85 -12 85 -36c0 -30 -22.333 -45 -67 -45h-33c-6 1.33301 -11.667 1.33301 -17 0c2 -48.667 3 -108.334 3 -179.001z" />
    <glyph glyph-name="backslash" unicode="\" horiz-adv-x="420" 
d="M353 -38c-18 0 -31.667 8.66797 -41 26.001c-33.333 77.333 -79 192.5 -137 345.5s-107 275.5 -147 367.5c-2 6 -3 12.167 -3 18.5s2.5 12 7.5 17s10.833 7.5 17.5 7.5c14.667 0 27.667 -7.66699 39 -23c38 -88.667 86.5 -208 145.5 -358l117 -295
c19 -46.667 28.5 -73.834 28.5 -81.501s-2.5 -13.667 -7.5 -18s-11.5 -6.5 -19.5 -6.5z" />
    <glyph glyph-name="bracketright" unicode="]" horiz-adv-x="296" 
d="M145 760c34 0 58.167 -3.99902 72.5 -11.999s21.5 -23.667 21.5 -47v-730c0 -11.333 -4.5 -20 -13.5 -26s-18.5 -9.5 -28.5 -10.5s-23.333 -1.5 -40 -1.5c-64 0 -96 17 -96 51c0 20 25 30 75 30c14 0 22.333 -0.333008 25 -1v444c-0.666992 49.333 -1 92.5 -1 129.5
s0.333008 67.833 1 92.5c-12 1.33301 -21.667 1.66602 -29 0.999023s-14 -1 -20 -1c-45.333 0 -68 14 -68 42c0 26 29.667 39 89 39h12z" />
    <glyph glyph-name="asciicircum" unicode="^" horiz-adv-x="370" 
d="M303 620c0 -9.33301 -3.99902 -17.332 -11.999 -23.999s-15.333 -9.83398 -22 -9.50098s-20.334 8 -41.001 23s-36.667 29.5 -48 43.5c-43.333 -43.333 -71.5 -64.833 -84.5 -64.5s-22.5 4.33301 -28.5 12s-8.83301 16.667 -8.5 27s17.833 28.5 52.5 54.5
s59.5 38.833 74.5 38.5s38.333 -13.333 70 -39s47.5 -46.167 47.5 -61.5z" />
    <glyph glyph-name="underscore" unicode="_" horiz-adv-x="571" 
d="M124 -60h-69c-16 0 -24 9 -24 27c0 9.33301 3 17 9 23s15 9 27 9c99.333 -0.666992 186.5 -1 261.5 -1s137.5 0.333008 187.5 1c16.667 0 25 -9.33301 25 -28c0 -7.33301 -4.33301 -14.333 -13 -21s-16.667 -10 -24 -10c-26 -0.666992 -61.667 -1 -107 -1z" />
    <glyph glyph-name="grave" unicode="`" horiz-adv-x="220" 
d="M172 563c12 -6 17.9971 -18.667 17.9971 -38c0 -5.33301 -2 -10 -6 -14c-6 -9.33301 -13.5 -14 -22.5 -14s-19.667 3.33301 -32 10s-27.666 19 -45.999 37s-31.833 35.5 -40.5 52.5s-13 28.667 -13 35s0.5 12.333 1.5 18s5.33301 10.667 13 15s13.834 6.5 18.501 6.5
s8.33398 -0.333008 11.001 -1c10 -2.66699 23.667 -18.5 41 -47.5s36.333 -48.833 57 -59.5z" />
    <glyph glyph-name="a" unicode="a" horiz-adv-x="440" 
d="M110 27c-2.66699 -16.667 -14.5 -25 -35.5 -25s-31.5 8.66699 -31.5 26c0 39.333 19.333 119.333 58 240c17.333 55.333 36.666 101.333 57.999 138s42 55 62 55c10.667 0 20 -6.33301 28 -19s22.5 -41.5 43.5 -86.5s38.5 -92.667 52.5 -143s29.333 -111.833 46 -184.5
c0 -8.66699 -3 -15.5 -9 -20.5s-13.333 -7.5 -22 -7.5c-21.333 -0 -34.666 9.33301 -39.999 28l-35 137c-58.667 0 -105.667 4.66699 -141 14c-20 -73.333 -31.333 -124 -34 -152zM218 369c-22 -37.333 -39.999 -79 -53.999 -125c29.333 -8 64 -12 104 -12
c-12.667 46 -29.334 91.667 -50.001 137z" />
    <glyph glyph-name="b" unicode="b" horiz-adv-x="400" 
d="M62 426c14.667 24.667 44.667 37 90 37s82.5 -10.833 111.5 -32.5s43.5 -50.167 43.5 -85.5s-10.333 -63.666 -31 -84.999c23.333 -5.33301 42.666 -19.833 57.999 -43.5s23 -48.5 23 -74.5c0 -42.667 -15 -78.667 -45 -108c-21.333 -22.667 -110.666 -34 -267.999 -34
c0 3.33301 -0.333008 17.666 -1 42.999c-2 76 -3 161.333 -3 256c0 60 7.33301 102.333 22 127zM110 350v-85c36.667 0 68.5 6.16699 95.5 18.5s40.5 32.833 40.5 61.5c0 16 -8 29.167 -24 39.5s-35 15.5 -57 15.5s-36.667 -4 -44 -12s-11 -20.667 -11 -38zM212 212
c-30.667 0 -65 -2.66699 -103 -8c-0.666992 -14 -1 -32.833 -1 -56.5s1.66699 -52.5 5 -86.5h29c14 0 34.667 2 62 6c60.667 10 91 35 91 75c0 46.667 -27.667 70 -83 70z" />
    <glyph glyph-name="c" unicode="c" 
d="M357 376l-81 9.99902c-108 0 -162 -54 -162 -162c0 -54.667 16.333 -98 49 -130c16 -16.667 32.667 -25 50 -25s47.666 7.66699 90.999 23s66.666 23 69.999 23c18 0 27 -8.33301 27 -25c0 -14 -7.66699 -26 -23 -36c-83.333 -35.333 -143.666 -53 -180.999 -53
c-22.667 0 -45 7.33301 -67 22s-39.333 33.667 -52 57c-26 46 -39 95.333 -39 148c0 70.667 21.333 126.667 64 168s97.334 62 164.001 62c38.667 0 77 -6.33301 115 -19v-1c12 -7.33301 18 -15.666 18 -24.999s-4.83301 -17.833 -14.5 -25.5s-19.167 -11.5 -28.5 -11.5z
" />
    <glyph glyph-name="d" unicode="d" horiz-adv-x="440" 
d="M65 26c-8.66699 6.66699 -13.001 13.502 -13.001 20.502s2.33301 13.5 7 19.5c-6.66699 51.333 -11.334 110.666 -14.001 177.999s-4 105.5 -4 114.5s0.166992 18.667 0.5 29s1.83301 21.833 4.5 34.5c4.66699 25.333 20 38 46 38c68.667 0 134.834 -31 198.501 -93
s95.5 -129.333 95.5 -202c0 -54.667 -17 -95.834 -51 -123.501s-80.333 -41.5 -139 -41.5c-11.333 -0 -27.333 1.33301 -48 4c0 -10.667 -4.33301 -20 -13 -28s-18.667 -12 -30 -12c-17.333 0 -27.666 8.66699 -30.999 26zM115.999 386.002
c-0.666992 -7.33301 -0.999023 -20 -0.999023 -38s1.83301 -57.833 5.5 -119.5s8.5 -114.167 14.5 -157.5c5.33301 -1.33301 26 -2 62 -2c78 0 117 22 117 66c0 56 -17.833 106 -53.5 150s-83.834 77.667 -144.501 101z" />
    <glyph glyph-name="e" unicode="e" horiz-adv-x="380" 
d="M121 225l2.00293 -130.999c0 -17.333 -0.333008 -26.666 -1 -27.999l173 3c19.333 -2 29 -10.333 29 -25c0 -28 -13 -42 -39 -42l-196 -2c-12 0 -20.833 4.16699 -26.5 12.5s-8.83398 17.166 -9.50098 26.499s-1 19.666 -1 30.999v166
c-8.66699 4.66699 -13 11.667 -13 21s3.66699 17.666 11 24.999c-2 52 -3 99.333 -3 142c0 24.667 15 37.334 45 38.001h28l175 -3h1c21.333 -2.66699 32 -12.667 32 -30c0 -13.333 -4 -22.333 -12 -27c-17.333 -9.33301 -59 -14 -125 -14c-24.667 0 -49.334 1 -74.001 3
c0 -60 0.333008 -93.667 1 -101c26 -0.666992 77 -1 153 -1c20.667 -2.66699 31 -12 31 -28c0 -8 -3.33301 -15.667 -10 -23s-13.834 -11.5 -21.501 -12.5s-24 -1.5 -49 -1.5s-58.5 0.333008 -100.5 1z" />
    <glyph glyph-name="f" unicode="f" horiz-adv-x="350" 
d="M248 211l-124 0.00195312c0 -62 1 -117.333 3 -166c0 -31.333 -10.333 -47 -31 -47s-32.667 12.667 -36 38c-1.33301 6 -2 33.333 -2 82v158c0 57.333 -0.333008 94.666 -1 111.999c-17.333 2 -26 14.667 -26 38c0 5.33301 3 12 9 20c8 10 16.167 15 24.5 15
s23.333 -1 45 -3s71.167 -3 148.5 -3c38.667 0 58 -10.667 58 -32c0 -16.667 -5.33301 -26.334 -16 -29.001c-3.33301 -1.33301 -5.66602 -2.5 -6.99902 -3.5s-4.33301 -1.66699 -9 -2s-7.33398 -0.5 -8.00098 -0.5c-3.33301 -1.33301 -11.166 -2.33301 -23.499 -3
s-29.333 -1 -51 -1s-47.5 1 -77.5 3v-108h130c6 0 12 -3.33301 18 -10s9 -14.5 9 -23.5s-2.83301 -17 -8.5 -24s-13.834 -10.5 -24.501 -10.5z" />
    <glyph glyph-name="g" unicode="g" horiz-adv-x="420" 
d="M262 461c28 0 53.9971 -6 77.9971 -18s36 -26.667 36 -44c0 -9.33301 -3.66699 -17.333 -11 -24s-16 -10 -26 -10s-21.333 3.83301 -34 11.5s-29.334 11.5 -50.001 11.5c-42.667 0 -77.334 -17.667 -104.001 -53s-40 -74.166 -40 -116.499s9.33301 -78.166 28 -107.499
s40.334 -44 65.001 -44s44.834 6.5 60.501 19.5s23.5 29.5 23.5 49.5c0 34.667 -6.33301 52 -19 52c-28 0 -47.333 1.83301 -58 5.5s-16 11.834 -16 24.501c0 24 10.667 37 32 39c9.33301 0.666992 21.333 1 36 1s29.667 -2.66699 45 -8c21.333 -8 34.333 -20.667 39 -38
c10 -41.333 15 -80 15 -116v-23c0 -11.333 -0.166992 -20.5 -0.5 -27.5s-1.33301 -15 -3 -24s-4.66699 -15.167 -9 -18.5s-11.666 -5 -21.999 -5s-18.166 2.16699 -23.499 6.5s-9 12.166 -11 23.499c-31.333 -20.667 -62.666 -31 -93.999 -31s-59.833 11.167 -85.5 33.5
s-44.834 50.166 -57.501 83.499s-19 66.666 -19 99.999c0 74 21.333 133.667 64 179s96.334 68 161.001 68z" />
    <glyph glyph-name="h" unicode="h" horiz-adv-x="380" 
d="M335 204l-1 -148c0 -37.333 -12 -56 -36 -56c-11.333 -0 -19.833 2.33301 -25.5 7s-8.16699 12 -7.5 22c2.66699 35.333 4 91.666 4 168.999c-11.333 -1.33301 -28.833 -2 -52.5 -2s-60.5 2.66699 -110.5 8v-21c0 -14 2.66699 -64.667 8 -152
c0.666992 -10.667 -3.16602 -18.5 -11.499 -23.5s-16.833 -7.5 -25.5 -7.5s-15.5 2.5 -20.5 7.5s-7.83301 10.833 -8.5 17.5c-7.33301 69.333 -11 121.833 -11 157.5s0.333008 59.834 1 72.501l4 167c0.666992 8 5.16699 14.833 13.5 20.5s17.166 8.5 26.499 8.5
c17.333 0 26 -7.33301 26 -22l-2 -157c33.333 -5.33301 62.333 -8 87 -8h45h31c-2 36.667 -3 92 -3 166c0 9.33301 4.5 17 13.5 23s18.667 9 29 9s17.5 -4.66699 21.5 -14s5.66699 -18.333 5 -27v-217z" />
    <glyph glyph-name="i" unicode="i" horiz-adv-x="150" 
d="M61 0c-18.667 0 -28 8.00098 -28 24.001l4 407c0 9.33301 3.33301 16.833 10 22.5s14.834 8.5 24.501 8.5s18 -2.33301 25 -7s10.833 -12.5 11.5 -23.5s1 -35.5 1 -73.5c0 -178 -1.33301 -286.333 -4 -325c-0.666992 -8.66699 -5.83398 -16.334 -15.501 -23.001
s-19.167 -10 -28.5 -10z" />
    <glyph glyph-name="j" unicode="j" horiz-adv-x="300" 
d="M194 457.5c10 6.33301 21.498 9.50098 34.498 9.50098s20.167 -4.66699 21.5 -14c11.333 -111.333 17 -188.333 17 -231s-0.666992 -73.334 -2 -92.001c-4 -40.667 -14.667 -72.5 -32 -95.5s-46 -34.5 -86 -34.5s-69 12 -87 36s-30 57 -36 99c0 8 4.5 15.167 13.5 21.5
s18 9.5 27 9.5s14.833 -2 17.5 -6s5.83398 -15.167 9.50098 -33.5s11.5 -33.666 23.5 -45.999s23.667 -18.5 35 -18.5c18.667 0 31.334 8.33301 38.001 25c10 30.667 15 68 15 112s-4 91.667 -12 143s-12.333 83 -13 95c0.666992 7.33301 6 14.166 16 20.499z" />
    <glyph glyph-name="k" unicode="k" 
d="M64 84c0 36 -2 91.8311 -6 167.498s-7.33301 122.834 -10 141.501s-4 31.667 -4 39s4 14.166 12 20.499s17.667 9.5 29 9.5s20 -6 26 -18c14 -30.667 21 -94.667 21 -192c41.333 34 74.666 64.5 99.999 91.5s51 59.833 77 98.5c8.66699 14 19.667 21 33 21
c25.333 0 38 -8.33301 38 -25c0 -32 -43 -92 -129 -180c36.667 -33.333 71.167 -75.166 103.5 -125.499s48.5 -81.666 48.5 -93.999s-3.5 -21.666 -10.5 -27.999s-15.167 -9.5 -24.5 -9.5s-20.166 8.16699 -32.499 24.5s-27 38.333 -44 66s-32 49.667 -45 66
s-30.833 34.166 -53.5 53.499c-19.333 -17.333 -39 -33 -59 -47c2 -78 3 -121.667 3 -131c0 -22 -14.667 -33 -44 -33c-20 -0 -29.667 10.333 -29 31v53z" />
    <glyph glyph-name="l" unicode="l" horiz-adv-x="300" 
d="M158 -1l-95 1.00195c-16.667 0 -26 5 -28 15c-4 28 -6 71.667 -6 131l7 290c0 16.667 12.667 25 38 25c12.667 0 23 -3 31 -9s12 -14.333 12 -25c-1.33301 -28 -5 -66.667 -11 -116c-7.33301 -64.667 -11 -111.834 -11 -141.501s1 -65.167 3 -106.5l148 9
c22 0 33 -11.333 33 -34c0 -18.667 -7 -29.334 -21 -32.001c-30 -4.66699 -63.333 -7 -100 -7z" />
    <glyph glyph-name="m" unicode="m" horiz-adv-x="480" 
d="M413 485c19.333 0 29 -9.33105 29 -27.998c2 -118.667 3 -257 3 -415c0 -10.667 -3.83301 -20.334 -11.5 -29.001s-19.834 -13 -36.501 -13s-25 11 -25 33c0 70.667 -0.5 123.167 -1.5 157.5s-1.5 71.5 -1.5 111.5c-24.667 -30 -48.5 -51 -71.5 -63s-53.5 -18 -91.5 -18
s-67.667 10.333 -89 31c0 -119.333 -0.666992 -189.333 -2 -210c-1.33301 -28 -17 -42 -47 -42c-18 0 -27 9.66699 -27 29l3 185v141v56c0 9.33301 3.66699 18.333 11 27s15.833 13 25.5 13s18.334 -2.16699 26.001 -6.5s11.834 -10.833 12.501 -19.5
c1.33301 -34 11.166 -64.333 29.499 -91s39.166 -40 62.499 -40c67.333 0 114 36.333 140 109c1.33301 3.33301 4.16602 12 8.49902 26s7.83301 23.667 10.5 29s7.83398 11.166 15.501 17.499s16.834 9.5 27.501 9.5z" />
    <glyph glyph-name="n" unicode="n" horiz-adv-x="440" 
d="M115 312l-11 -243.006c-0.666992 -21.333 -1.33398 -35.666 -2.00098 -42.999c-2.66699 -18 -14.334 -27 -35.001 -27c-8 0 -15.167 2.83301 -21.5 8.5s-9.83301 12.834 -10.5 21.501c5.33301 173.333 8 266.833 8 280.5v45.5c0 16.667 1.66699 31.667 5 45
c4.66699 18 16.667 27 36 27c9.33301 0 21 -6.33301 35 -19s34.333 -36 61 -70c63.333 -78 111.333 -151.667 144 -221c-1.33301 94.667 -3.66602 166.834 -6.99902 216.501s-5 76.834 -5 81.501v8c4.66699 25.333 18.334 38 41.001 38c8.66699 0 16.667 -3.83301 24 -11.5
s11 -17.167 11 -28.5l5 -372c0 -34.667 -14 -52 -42 -52c-16.667 0 -29.667 5.83301 -39 17.5s-16 20.834 -20 27.501s-10 17.334 -18 32.001c-51.333 96.667 -104.333 176 -159 238z" />
    <glyph glyph-name="o" unicode="o" 
d="M237 457c49.333 0 89.166 -19 119.499 -57s45.5 -90 45.5 -156s-16.667 -123 -50 -171s-75.666 -72 -126.999 -72c-56 0 -101.667 24 -137 72s-53 106.667 -53 176s18.333 121.333 55 156s85.667 52 147 52zM307 350.5c-15.333 25 -42.333 37.502 -81 37.502
s-68.667 -11.833 -90 -35.5s-32 -57.334 -32 -101.001s11.333 -84.167 34 -121.5s54 -56 94 -56c22.667 0 42 9.66699 58 29c26.667 33.333 40 76.666 40 129.999s-7.66699 92.5 -23 117.5z" />
    <glyph glyph-name="p" unicode="p" horiz-adv-x="370" 
d="M161 462c48 0 86.5 -10.5 115.5 -31.5s43.5 -49.167 43.5 -84.5c0 -54.667 -17 -95 -51 -121c-24.667 -18.667 -58 -28 -100 -28c-16 0 -33.333 1.33301 -52 4c2 -39.333 3 -73.5 3 -102.5s-0.666992 -54.167 -2 -75.5c-1.33301 -15.333 -11 -23 -29 -23
s-29.833 3.66699 -35.5 11s-8.5 18.333 -8.5 33v376c1.33301 28 40 42 116 42zM115 391c-1.33301 -20 -1.99902 -41.5 -1.99902 -64.5v-54.5c17.333 -2 36.666 -3 57.999 -3s39 4 53 12c19.333 10.667 29 30.667 29 60v9c-1.33301 17.333 -17.333 30 -48 38
c-17.333 4.66699 -33.333 7 -48 7s-28.667 -1.33301 -42 -4z" />
    <glyph glyph-name="q" unicode="q" horiz-adv-x="520" 
d="M98 404.5c35.333 38.333 85.3311 57.502 149.998 57.502s118.167 -22.333 160.5 -67s63.5 -103 63.5 -175c0 -42.667 -13.667 -83.667 -41 -123c27.333 -26.667 41 -45.167 41 -55.5s-3.66699 -19.5 -11 -27.5s-14.666 -12 -21.999 -12c-12 0 -30 11 -54 33l-12 11
c-31.333 -30 -74.666 -45 -129.999 -45c-35.333 0 -66.5 7.33301 -93.5 22s-47.5 33.667 -61.5 57c-28.667 47.333 -43 99.666 -43 156.999c0 73.333 17.667 129.166 53 167.499zM241.998 397.002c-23.333 0 -43.834 -6 -61.501 -18s-30.5 -27 -38.5 -45
c-16.667 -34 -25 -63.333 -25 -88c0 -68 19 -118.333 57 -151c21.333 -18 45.833 -27 73.5 -27s57.5 6.33301 89.5 19l-28 28c-7.33301 7.33301 -13.666 14 -18.999 20s-9.5 11 -12.5 15s-6 8.66699 -9 14s-4.83301 10 -5.5 14s-1 8 -1 12
c0.666992 8.66699 5 16.167 13 22.5s15.5 9.5 22.5 9.5s16.167 -4 27.5 -12s32.333 -31.333 63 -70c14 20.667 21 46.334 21 77.001c0 51.333 -15.833 94.166 -47.5 128.499s-71.5 51.5 -119.5 51.5z" />
    <glyph glyph-name="r" unicode="r" horiz-adv-x="400" 
d="M115 37c0 -10 -4.66895 -18.666 -14.002 -25.999s-19.666 -11 -30.999 -11c-14.667 0 -22 6.66699 -22 20c-2.66699 31.333 -4 155.666 -4 372.999c0 21.333 12.833 38 38.5 50s60 18 103 18s80.667 -10.667 113 -32s48.5 -47 48.5 -77c0 -14.667 -6.33301 -31 -19 -49
s-26.167 -32.167 -40.5 -42.5s-34.833 -22.833 -61.5 -37.5s-43 -22.667 -49 -24c42 -26.667 79.333 -55.667 112 -87s49 -56 49 -74s-8 -29.667 -24 -35c-4.66699 -1.33301 -10.667 -2 -18 -2s-16.666 7.16699 -27.999 21.5s-32.666 35 -63.999 62s-62.333 51.167 -93 72.5
c1.33301 -53.333 2.66602 -93 3.99902 -119v-1zM110.998 246.001c22 0 55 10.832 99 32.499s67 41.834 69 60.501c0 18 -10 31.5 -30 40.5s-41 13.5 -63 13.5c-25.333 0 -50 -3 -74 -9c-0.666992 -32 -1 -78 -1 -138z" />
    <glyph glyph-name="s" unicode="s" horiz-adv-x="400" 
d="M88 429.5c32 22.333 71.1641 33.501 117.497 33.501s81.5 -6 105.5 -18s36 -27.333 36 -46c0 -8.66699 -2.83301 -15.834 -8.5 -21.501s-12.5 -8.5 -20.5 -8.5s-23.833 5.33301 -47.5 16s-45 16 -64 16s-39 -5.16699 -60 -15.5s-31.5 -23.166 -31.5 -38.499
s12.667 -29 38 -41s55.333 -22.333 90 -31s57.834 -17.167 69.501 -25.5s20 -15 25 -20s10.167 -14.667 15.5 -29s8 -32.833 8 -55.5c0 -48.667 -15.833 -84.834 -47.5 -108.501s-69.334 -35.5 -113.001 -35.5s-81.167 7 -112.5 21s-47 31.333 -47 52
c0 10.667 4.5 20.167 13.5 28.5s18.5 10.5 28.5 6.5c62.667 -24.667 102 -37 118 -37c28.667 0 50.667 7.16699 66 21.5s23 32.5 23 54.5s-8.66699 38.833 -26 50.5s-38.166 20.167 -62.499 25.5s-48.666 11.333 -72.999 18s-45.166 18.334 -62.499 35.001
s-26 40.667 -26 72s16 58.166 48 80.499z" />
    <glyph glyph-name="t" unicode="t" horiz-adv-x="430" 
d="M240 401l-2 -237.003c0 -49.333 0.666992 -92.666 2 -129.999c0.666992 -10 -3.5 -18.167 -12.5 -24.5s-18.167 -9.5 -27.5 -9.5c-17.333 0 -26 9.33301 -26 28c-2 72.667 -3 141.834 -3 207.501s2 119.834 6 162.501c-40 -3.33301 -80.667 -5 -122 -5
c-20.667 0 -31 8.66699 -31 26c0 8 3.83301 16 11.5 24s16.167 12.333 25.5 13l312 10c18 -4 27 -12.667 27 -26c0 -27.333 -31.333 -41 -94 -41z" />
    <glyph glyph-name="u" unicode="u" 
d="M325 421c-0.666992 2.66699 -0.998047 7.00195 -0.998047 13.002s4.16699 12.333 12.5 19s16.833 10 25.5 10s16.5 -2.66699 23.5 -8s10.833 -11.333 11.5 -18c6.66699 -67.333 10 -120.333 10 -159s-1 -68.667 -3 -90c-4.66699 -64.667 -20.834 -112.167 -48.501 -142.5
s-70.167 -45.5 -127.5 -45.5c-42 0 -77 12.167 -105 36.5s-47.667 56.166 -59 95.499c-17.333 59.333 -26 125.333 -26 198c0 31.333 1.66699 63 5 95c0.666992 9.33301 5.83398 17 15.501 23s18.667 9 27 9s15.166 -2.66699 20.499 -8s7.66602 -12.333 6.99902 -21
c-3.33301 -34.667 -5 -65.834 -5 -93.501s0.666992 -52.5 2 -74.5c4 -53.333 16.333 -98.833 37 -136.5s47.667 -56.5 81 -56.5c72.667 0 109 62 109 186c0 74 -4 130 -12 168z" />
    <glyph glyph-name="v" unicode="v" horiz-adv-x="460" 
d="M418 430c0 -6.66699 -3.33398 -16.999 -10.001 -30.999l-18 -38c-13.333 -28.667 -28.833 -72.667 -46.5 -132s-39.5 -124 -65.5 -194c-8.66699 -23.333 -22 -35 -40 -35c-13.333 0 -27.666 19 -42.999 57c-40 98 -84.667 192.667 -134 284l-11 20.5
c-2.66699 5 -5.33398 9.66699 -8.00098 14s-4.5 7.66602 -5.5 9.99902l-2.5 6c-0.666992 1.66699 -1.16699 3.5 -1.5 5.5s-0.5 3.66699 -0.5 5v6c0 8 4.5 16 13.5 24s18 12 27 12s16.5 -2.33301 22.5 -7s12 -12.167 18 -22.5s11.333 -20.5 16 -30.5l41 -88l27.5 -59
c8.33301 -18.667 16.333 -38 24 -58s12.834 -33 15.501 -39c4.66699 16.667 19.167 59 43.5 127s41.5 113.667 51.5 137c16.667 38.667 33.334 58 50.001 58c3.33301 0 6.66602 -0.666992 9.99902 -2c17.333 -6 26 -16 26 -30z" />
    <glyph glyph-name="w" unicode="w" horiz-adv-x="500" 
d="M26 413c0 12 4.00098 22.499 12.001 31.499s18 13.5 30 13.5c14 0 23 -9 27 -27c3.33301 -22.667 9.33301 -70.334 18 -143.001s16 -129.334 22 -170.001c11.333 20.667 22.833 43.834 34.5 69.501s20.167 43.834 25.5 54.501c16.667 32 34.334 48 53.001 48
c14 0 28 -17 42 -51c36.667 -77.333 57 -119 61 -125c26 118.667 44.333 225.667 55 321c0.666992 8 5.5 15.5 14.5 22.5s17.5 10.5 25.5 10.5s14.667 -2.16699 20 -6.5s8 -10.166 8 -17.499c0 -36 -24.667 -174.667 -74 -416c-4 -17.333 -18 -26 -42 -26
c-11.333 0 -20.333 5.66699 -27 17c-12.667 22 -28.834 52.833 -48.501 92.5s-33.167 66.167 -40.5 79.5c-28.667 -67.333 -52.167 -116 -70.5 -146s-37.833 -45 -58.5 -45c-12 0 -22.5 10.667 -31.5 32s-14.333 40.833 -16 58.5s-14.834 125.167 -39.501 322.5z" />
    <glyph glyph-name="x" unicode="x" horiz-adv-x="500" 
d="M50 59l151.003 153.003l-33 47c-14 20 -29.333 40.667 -46 62l-18.5 25.5c-7 9.66699 -12.5 17.667 -16.5 24s-7.83301 12.833 -11.5 19.5s-6.33398 12.5 -8.00098 17.5s-2.5 10.667 -2.5 17s4.33301 13.833 13 22.5s18.667 13 30 13s25.333 -11.333 42 -34
c9.33301 -12.667 18.166 -25.334 26.499 -38.001l35.5 -54.5l43 -64.5c26 27.333 48.333 54.333 67 81l29.5 46.5c14.333 22.333 23.5 36.166 27.5 41.499c11.333 15.333 25 23 41 23c8 0 14.833 -3.66699 20.5 -11s8.5 -13.666 8.5 -18.999
c0 -33.333 -49.667 -106.333 -149 -219c12.667 -18 30.334 -39.833 53.001 -65.5s40.334 -46.834 53.001 -63.501s19 -29.834 19 -39.501s-4.33301 -18.167 -13 -25.5s-17.834 -11 -27.501 -11s-28 14.5 -55 43.5s-55.167 63.5 -84.5 103.5
c-42.667 -46 -90.334 -94.333 -143.001 -145c-11.333 -6 -21.333 -9 -30 -9s-16.334 3.33301 -23.001 10c-7.33301 5.33301 -11 12.833 -11 22.5s4 18.5 12 26.5z" />
    <glyph glyph-name="y" unicode="y" horiz-adv-x="380" 
d="M309 465c17.333 -2 26 -10.001 26 -24.001c0 -17.333 -9 -40.333 -27 -69l-26 -39.5c-11.333 -17 -19.166 -29 -23.499 -36s-11.333 -17.167 -21 -30.5s-17.834 -25.666 -24.501 -36.999v-87c0 -60 -2 -98.667 -6 -116s-16.333 -26 -37 -26c-6 -0 -10.333 1.33301 -13 4
c-7.33301 7.33301 -11 29.333 -11 66l1 108c0 17.333 -1 35 -3 53c-27.333 35.333 -64.666 96 -111.999 182c-2 3.33301 -3 7.33301 -3 12s2 9.66699 6 15c9.33301 14 20.666 21 33.999 21c10 0 34.333 -33.667 73 -101c17.333 -30 30.333 -51.333 39 -64l38 58.5l31 49.5
c20 31.333 35.333 50 46 56c4.66699 3.33301 9 5 13 5z" />
    <glyph glyph-name="z" unicode="z" 
d="M239 66l78.9951 3.00391c28.667 0 46 -2.33301 52 -7s9 -10.334 9 -17.001c0 -18.667 -6.66699 -30.334 -20 -35.001c-15.333 -4.66699 -42.666 -7 -81.999 -7l-206 -3c-11.333 0 -19.166 2.16699 -23.499 6.5s-6.5 11.833 -6.5 22.5
c4.66699 25.333 12.334 48.166 23.001 68.499s21 35.833 31 46.5l36 37.5c14 14.333 24.667 26.833 32 37.5c-58 7.33301 -87 23.666 -87 48.999c0 9.33301 3.83301 17.833 11.5 25.5s13.834 11.5 18.501 11.5s8.66699 -0.666992 12 -2
c30.667 -10.667 65.667 -17.667 105 -21l13 16c30 34.667 52.333 62.667 67 84c-49.333 10.667 -128 16 -236 16c-20 0 -30 8.33301 -30 25c0 12 6 23 18 33c8 4 24.833 6 50.5 6s67.667 -2.16699 126 -6.5s102.833 -10.5 133.5 -18.5c18.667 -4.66699 28 -17 28 -37
c0 -6.66699 -2 -12 -6 -16l-85 -107c18.667 -0.666992 31.334 -3.66699 38.001 -9s10 -12 10 -20s-1.16699 -14.167 -3.5 -18.5s-5.66602 -7.83301 -9.99902 -10.5s-8.83301 -4.66699 -13.5 -6c-7.33301 -2 -20 -3 -38 -3l-40 1l-26 -25.5l-26 -25.5l-20.5 -21
c-9.66699 -10 -16.834 -18 -21.501 -24c-14.667 -18.667 -25.667 -35 -33 -49h121z" />
    <glyph glyph-name="braceleft" unicode="{" horiz-adv-x="339" 
d="M240 22l21 0.000976562h4c23.333 0 35 -9 35 -27c0 -9.33301 -4.16699 -19 -12.5 -29s-17.833 -16.333 -28.5 -19c-73.333 0 -119 21.667 -137 65c-4.66699 10 -7 20.833 -7 32.5s4.66699 33.5 14 65.5s14 57.667 14 77c0 38.667 -14.5 73.667 -43.5 105
s-43.5 54.333 -43.5 69s11.333 32.334 34 53.001c6 6 15.667 16.333 29 31c22 26 33 59 33 99c0 14.667 -3.33301 37.667 -10 69s-10 50.666 -10 57.999s2.33301 15.833 7 25.5s10.5 17 17.5 22s16.833 9.83301 29.5 14.5s26.667 7 42 7h18c44 0 66 -11 66 -33
c0 -30 -18.333 -45 -55 -45c-7.33301 0 -17.333 1 -30 3c-8 0 -12 -5.83301 -12 -17.5s2.16699 -28.5 6.5 -50.5s6.5 -45 6.5 -69s-5.83301 -49.833 -17.5 -77.5s-32.5 -56.5 -62.5 -86.5c5.33301 -8 17 -23 35 -45c20 -28.667 32.333 -63.334 37 -104.001
c0 -10 -4.5 -33.5 -13.5 -70.5s-13.5 -63.167 -13.5 -78.5s4.66699 -26.5 14 -33.5s20.333 -10.5 33 -10.5z" />
    <glyph glyph-name="bar" unicode="|" horiz-adv-x="176" 
d="M46 -19l0.00195312 716c5.33301 12 12.666 22 21.999 30s19 12 29 12c14 0 23.667 -10 29 -30v-716c-4 -12.667 -11.333 -23.5 -22 -32.5s-21.334 -13.5 -32.001 -13.5c-17.333 0 -26 11.333 -26 34z" />
    <glyph glyph-name="braceright" unicode="}" horiz-adv-x="328" 
d="M56 -3c0 17.333 14.3359 25.999 43.0029 25.999l17 -1c31.333 0 47 14.667 47 44c0 16.667 -4.16699 42.5 -12.5 77.5s-12.5 59.833 -12.5 74.5s3.5 32.5 10.5 53.5s21.167 44.167 42.5 69.5c10 13.333 16 21 18 23c-30.667 30 -51.834 58.833 -63.501 86.5
s-17.5 61.834 -17.5 102.501c0 8.66699 2.33301 23.667 7 45s7 37.833 7 49.5s-3.33301 17.5 -10 17.5l-31 -3c-38 0 -57 15 -57 45c4 22 29.333 33 76 33h1c34 0 59.667 -7 77 -21s26 -32 26 -54c0 -3.33301 -3.33301 -20.666 -10 -51.999s-10 -56.333 -10 -75
c0 -36 11.333 -67 34 -93c9.33301 -11.333 18.666 -21.666 27.999 -30.999c22.667 -20.667 34 -38.334 34 -53.001s-14.167 -37.5 -42.5 -68.5s-42.5 -66.167 -42.5 -105.5c0 -21.333 4.33301 -47 13 -77s13 -50.333 13 -61c0 -30.667 -11.833 -55.334 -35.5 -74.001
s-59.834 -28 -108.501 -28c-10.667 2.66699 -20.167 9 -28.5 19s-12.5 20.333 -12.5 31z" />
    <glyph glyph-name="asciitilde" unicode="~" horiz-adv-x="529" 
d="M74 408c-10 0 -20.4971 3.49902 -31.4971 10.499s-16.5 15.833 -16.5 26.5c0 20.667 18.833 43.834 56.5 69.501s68.667 38.5 93 38.5s54.666 -10 90.999 -30s63.166 -33 80.499 -39c10.667 0 29.334 10.667 56.001 32s45.834 32 57.501 32s21 -3.83301 28 -11.5
s10.5 -15.167 10.5 -22.5c0 -20.667 -18.833 -43.5 -56.5 -68.5s-68.167 -37.5 -91.5 -37.5c-36 0 -68.833 10.167 -98.5 30.5s-52.834 30.5 -69.501 30.5s-34.334 -10.167 -53.001 -30.5s-37.334 -30.5 -56.001 -30.5z" />
    <glyph glyph-name="uni00A0" unicode="&#xa0;" horiz-adv-x="230" 
 />
    <glyph glyph-name="exclamdown" unicode="&#xa1;" horiz-adv-x="214" 
d="M167 420c0 -20.667 -3.50098 -34 -10.501 -40s-18.5 -9 -34.5 -9s-28.5 4.83301 -37.5 14.5s-13.5 21.5 -13.5 35.5s7.66699 28 23 42c6.66699 6 13.334 9 20.001 9c35.333 0 53 -17.333 53 -52zM115.999 -211c-10.667 0 -20.832 2.5 -30.499 7.5
s-15.834 11.167 -18.501 18.5c0 138 5.33301 279.333 16 424c5.33301 13.333 12.5 20 21.5 20s17.5 -3.16699 25.5 -9.5s13 -13.5 15 -21.5c-0.666992 -10.667 -1 -35.5 -1 -74.5s1.83301 -96.167 5.5 -171.5s5.5 -131 5.5 -167c-5.33301 -17.333 -18.333 -26 -39 -26z" />
    <glyph glyph-name="cent" unicode="&#xa2;" horiz-adv-x="424" 
d="M383 112c0 -16.667 -10.999 -34.333 -32.999 -53s-49 -34 -81 -46l6 -60c-2.66699 -24.667 -16 -37 -40 -37c-21.333 0 -32 28 -32 84c-56 -0 -99.667 20.833 -131 62.5s-47 99.167 -47 172.5c0 54.667 16.833 102.167 50.5 142.5s76.5 66.833 128.5 79.5
c4 24 6.66699 46.333 8 67c2.66699 10 7.5 18.167 14.5 24.5s14.5 9.5 22.5 9.5s14.667 -2.83301 20 -8.5s8 -13.5 8 -23.5v-6l-5 -53c67.333 -5.33301 101 -18.333 101 -39c0 -14.667 -4 -29.667 -12 -45s-16.833 -23 -26.5 -23s-20.167 2.16699 -31.5 6.5
s-21 8.16602 -29 11.499c-2.66699 0.666992 -4.66699 1 -6 1c-2.66699 -55.333 -4 -103.166 -4 -143.499s0.333008 -67.833 1 -82.5v-50l12.5 6.5l33.5 17.5c16.667 8.66699 30.167 13 40.5 13s18.166 -2.66699 23.499 -8s8 -12 8 -20zM200.001 372.001
c-58.667 -24 -88 -73.333 -88 -148c0 -42.667 6.5 -75.167 19.5 -97.5s35.5 -34.833 67.5 -37.5c-1.33301 38.667 -2 82 -2 130s1 99 3 153z" />
    <glyph glyph-name="sterling" unicode="&#xa3;" horiz-adv-x="550" 
d="M73 265c-24 0 -36 14.334 -36 43.001c0 10.667 3.5 19.5 10.5 26.5s16 10.833 27 11.5s34.167 1 69.5 1c-4 32.667 -6 79.167 -6 139.5s15.667 105 47 134s70.333 43.5 117 43.5s90 -11 130 -33c32 -18 48 -36.667 48 -56c0 -2 -0.333008 -4 -1 -6
c-4.66699 -20.667 -16.667 -31 -36 -31c-12 0 -23.667 4.33301 -35 13c-38.667 24.667 -71.667 37 -99 37c-42 0 -68.667 -16.333 -80 -49c-7.33301 -22 -11 -45.333 -11 -70s0.166992 -42.5 0.5 -53.5s1.16602 -25 2.49902 -42s2 -26.167 2 -27.5
c34.667 3.33301 76.334 5 125.001 5c18 0 30.167 -2.83301 36.5 -8.5s9.5 -14.834 9.5 -27.501c0 -26.667 -7.83301 -41.167 -23.5 -43.5s-64.5 -3.5 -146.5 -3.5c1.33301 -23.333 2 -46.166 2 -68.499s-1 -44.166 -3 -65.499c12 -19.333 29.333 -34.333 52 -45
s46.667 -16 72 -16c44 0 78 15.667 102 47c7.33301 9.33301 18 14 32 14c22 0 33 -8.66699 33 -26c0 -24 -17.833 -48 -53.5 -72s-72.5 -36 -110.5 -36c-44.667 0 -80.667 7.33301 -108 22c-18.667 10.667 -37.667 23 -57 37c-16 0 -32.333 -7 -49 -21
c-4.66699 -4 -12.667 -11.333 -24 -22s-23.333 -16 -36 -16c-24 0 -36 12.333 -36 37c0 19.333 26 46.666 78 81.999c14.667 10 23.667 16.333 27 19c2 14.667 3 32.667 3 54s-1 46.666 -3 75.999l-69 -3h-3z" />
    <glyph glyph-name="currency" unicode="&#xa4;" horiz-adv-x="692" 
d="M517 163l75.001 -71.9971c4 -6 6 -14.333 6 -25s-4.5 -20.5 -13.5 -29.5s-18.833 -13.5 -29.5 -13.5s-20 4 -28 12l-76 77c-36.667 -20 -76 -30 -118 -30s-79.667 8.66699 -113 26c-44.667 -46.667 -71.5 -72.167 -80.5 -76.5s-16.5 -6.5 -22.5 -6.5
c-19.333 0 -29 10 -29 30s24.333 53.333 73 100c-36 40.667 -55.333 95.667 -58 165c0.666992 67.333 22 124.333 64 171c-15.333 16 -31 33.333 -47 52l-27 29c-4.66699 4 -7 11.5 -7 22.5s4.83301 21 14.5 30s20.167 13.5 31.5 13.5c18 0 43 -20 75 -60l17 -21.5
c6.66699 -8.33301 10.667 -13.5 12 -15.5c37.333 18.667 76 28 116 28s78.333 -11 115 -33l54 67c21.333 25.333 40.666 38 57.999 38c8.66699 0 15.667 -2.83301 21 -8.5s8 -13.834 8 -24.501s-7 -23.334 -21 -38.001s-36 -40.334 -66 -77.001
c39.333 -44.667 59 -99.667 59 -165s-21 -120.333 -63 -165zM337.001 491.003c-44.667 0 -81.501 -14 -110.501 -42s-44.5 -67 -46.5 -117c2.66699 -52.667 20.334 -95 53.001 -127s71 -48 115 -48s80.333 14.167 109 42.5s43 67.833 43 118.5s-16 92.167 -48 124.5
s-70.333 48.5 -115 48.5z" />
    <glyph glyph-name="yen" unicode="&#xa5;" horiz-adv-x="464" 
d="M336 293c18.667 -6 28.001 -17 28.001 -33c0 -22.667 -26.667 -37 -80 -43l-37 -6v-36c40.667 8.66699 67.167 13 79.5 13s21.833 -3 28.5 -9s10 -13.333 10 -22c0 -26.667 -40 -44.667 -120 -54c0 -20.667 0.666992 -40.334 2 -59.001c-2 -10 -7.33301 -19.5 -16 -28.5
s-16.334 -13.5 -23.001 -13.5c-21.333 0 -32 19.333 -32 58v31c-4.66699 -1.33301 -16.167 -3.66602 -34.5 -6.99902s-31.166 -6.16602 -38.499 -8.49902s-14.333 -3.5 -21 -3.5s-12.667 3.33301 -18 10s-8 13.667 -8 21c0 23.333 9.66699 36.666 29 39.999l91 20v36
c-40 -8.66699 -69 -13.334 -87 -14.001c-23.333 3.33301 -35 16 -35 38c0 10.667 3.33301 18 10 22c7.33301 3.33301 24 7.33301 50 12l62 12l2 39c0 8.66699 -0.666992 16.334 -2 23.001c-35.333 50.667 -66.666 104.334 -93.999 161.001
c-4.66699 10 -8.5 17.833 -11.5 23.5s-5.5 10.834 -7.5 15.501s-3.66699 8 -5 10s-7 13.333 -17 34s-16 32.5 -18 35.5s-3 8.66699 -3 17s4.33301 16.666 13 24.999s17.167 12.5 25.5 12.5s18.5 -8.16699 30.5 -24.5s28 -42.5 48 -78.5
c17.333 -34.667 27.333 -53.334 30 -56.001l23 -44c12.667 -24.667 21.667 -41 27 -49l46 80c0 1.33301 3.33301 7.33301 10 18l13 23c8.66699 17.333 19 34 31 50l16 24c10 14.667 21.5 28 34.5 40s24.167 18 33.5 18s16.666 -2.5 21.999 -7.5s8 -11.5 8 -19.5
s-1.33301 -14.667 -4 -20c-48.667 -60 -101.334 -145.667 -158.001 -257c-10 -20 -17 -32.667 -21 -38v-44z" />
    <glyph glyph-name="brokenbar" unicode="&#xa6;" horiz-adv-x="170" 
d="M41 426l1.99707 272c2.66699 12 8.83398 22.333 18.501 31s19.834 13 30.501 13c14 0 24 -10 30 -30l-1 -282c-2.66699 -12 -9.16699 -21.333 -19.5 -28s-21.166 -10 -32.499 -10c-18.667 0 -28 11.333 -28 34zM40.9971 -23l2 295.998
c2.66699 10.667 8.66699 19.334 18 26.001s19.666 10 30.999 10c14.667 0 24.667 -10 30 -30l-1 -290c-2.66699 -13.333 -9.16699 -24.166 -19.5 -32.499s-21.166 -12.5 -32.499 -12.5c-18.667 0 -28 11 -28 33z" />
    <glyph glyph-name="section" unicode="&#xa7;" horiz-adv-x="384" 
d="M127 451c-36 16.667 -54 42.667 -54 78c0 54 20 92 60 114c24.667 16 52 24 82 24c52.667 0 79 -14.333 79 -43c0 -10.667 -3.33301 -20.5 -10 -29.5s-14.667 -13.5 -24 -13.5l-40 5c-21.333 0 -38 -4.83301 -50 -14.5s-18 -22.5 -18 -38.5c0 -27.333 23.5 -50 70.5 -68
s77.833 -37.833 92.5 -59.5s22 -45.834 22 -72.501c0 -53.333 -24 -101.666 -72 -144.999c16 -20 24 -47.5 24 -82.5s-11.167 -61.333 -33.5 -79s-50.5 -26.5 -84.5 -26.5s-62.333 3.83301 -85 11.5s-34 19.167 -34 34.5c0 25.333 12.667 38 38 38l74 -7
c29.333 0 46 8.66699 50 26c0.666992 2.66699 1 6.66699 1 12c0 24.667 -15.667 46.667 -47 66c-2 1.33301 -4 2.5 -6 3.5s-9 5.16699 -21 12.5s-22 13.666 -30 18.999s-19 14 -33 26c-23.333 20.667 -35 46.334 -35 77.001c0 50 28 94 84 132zM109 331
c0 -26.667 20.001 -51.334 60.001 -74.001c20 -12 33 -19.333 39 -22c17.333 10 32.333 23.667 45 41s19 34.833 19 52.5s-8 34.5 -24 50.5s-33.333 24 -52 24s-37.834 -7.66699 -57.501 -23s-29.5 -31.666 -29.5 -48.999z" />
    <glyph glyph-name="dieresis" unicode="&#xa8;" horiz-adv-x="404" 
d="M115 512c-24.667 0 -39.667 12.999 -45 38.999c0 15.333 5.66699 28.833 17 40.5s23.833 17.5 37.5 17.5s24.5 -4.66699 32.5 -14s12.333 -22 13 -38c-2 -13.333 -8.16699 -24.166 -18.5 -32.499s-22.5 -12.5 -36.5 -12.5zM295 607.999
c12 0 22.167 -3.49902 30.5 -10.499s12.833 -16.5 13.5 -28.5c-2 -16.667 -8 -29.834 -18 -39.501s-21.5 -14.5 -34.5 -14.5s-23.833 4.5 -32.5 13.5s-13 20.5 -13 34.5c0 30 18 45 54 45z" />
    <glyph glyph-name="copyright" unicode="&#xa9;" horiz-adv-x="759" 
d="M44 332c0 57.333 15.665 111.167 46.998 161.5s72.666 90.5 123.999 120.5s106 47.667 164 53c86.667 -4 146.334 -14.333 179.001 -31c18.667 -9.33301 35 -21 49 -35c60 -59.333 90 -148 90 -266c0 -102 -26.167 -182.833 -78.5 -242.5
s-126.833 -90.834 -223.5 -93.501c-49.333 0 -95.666 6.83301 -138.999 20.5s-83.666 38.334 -120.999 74.001s-63 80.167 -77 133.5c-9.33301 33.333 -14 68.333 -14 105zM619.998 329.001c0 128.667 -40.6689 210.667 -122.002 246c-33.333 13.333 -73 20.333 -119 21
c-73.333 -7.33301 -134.666 -36.833 -183.999 -88.5s-74 -112.5 -74 -182.5s25.333 -129 76 -177s113.834 -72 189.501 -72s133.5 22 173.5 66s60 106.333 60 187zM291.996 343.001c0 -84.667 24.001 -126.999 72.001 -126.999c2 0 19 6.83301 51 20.5s55.667 20.5 71 20.5
c19.333 0 29 -9.66699 29 -29c0 -16.667 -8.66699 -32.5 -26 -47.5s-37.833 -26.167 -61.5 -33.5s-43.5 -11 -59.5 -11c-42 0 -78 17.333 -108 52s-45 76.334 -45 125.001c0 79.333 24.333 141.333 73 186c26 24 56.333 36 91 36c15.333 0 34 -4.33301 56 -13
s42.167 -20.834 60.5 -36.501s27.5 -30.334 27.5 -44.001s-4.33301 -24.667 -13 -33s-19.167 -12.5 -31.5 -12.5s-28.5 10.333 -48.5 31c-26.667 18 -48.334 28 -65.001 30c-21.333 0 -38.833 -11.5 -52.5 -34.5s-20.5 -49.5 -20.5 -79.5z" />
    <glyph glyph-name="ordfeminine" unicode="&#xaa;" horiz-adv-x="289" 
d="M261 603l-1.00098 -71l10 -184c0 -14 -14.667 -21 -44 -21c-16 0 -24 9 -24 27v8c-21.333 -18 -47.333 -27 -78 -27c-67.333 0 -101 51 -101 153c0 56.667 10.833 99.5 32.5 128.5s52.5 43.5 92.5 43.5c18 0 36 -3 54 -9c6.66699 8 15.334 12 26.001 12
c22 0 33 -20 33 -60zM189.499 574c-6.33301 12 -19.833 18 -40.5 18s-37 -7 -49 -21s-18 -40.667 -18 -80c0 -64.667 17.333 -97 52 -97c22 0 38.333 11.833 49 35.5s16 50.667 16 81s-3.16699 51.5 -9.5 63.5z" />
    <glyph glyph-name="guillemotleft" unicode="&#xab;" horiz-adv-x="478" 
d="M233 427c17.333 0 25.9971 -10.499 25.9971 -31.499s-30 -57.5 -90 -109.5c-23.333 -20 -37.333 -33 -42 -39c7.33301 -7.33301 21.666 -20 42.999 -38c42 -39.333 63 -69 63 -89c0 -11.333 -2.83301 -20.333 -8.5 -27s-12.167 -10 -19.5 -10
s-17.666 4.83301 -30.999 14.5s-23.666 19.667 -30.999 30s-20.333 23.666 -39 39.999s-31.5 29.5 -38.5 39.5s-10.5 21.667 -10.5 35c0 26 11.667 50.667 35 74c10.667 12 27.834 28.5 51.501 49.5s37.334 33.833 41.001 38.5s11 9.66699 22 15s20.5 8 28.5 8z
M335.997 380.001l17.998 18.999c8.66699 10 15.334 16.333 20.001 19c4.66699 2 11.167 3 19.5 3s15.833 -2.33301 22.5 -7s10 -10.667 10 -18c0 -22 -38.333 -74.333 -115 -157c4.66699 -10.667 16.667 -24 36 -40c48.667 -43.333 73 -71.666 73 -84.999
c0 -24.667 -9.66699 -37 -29 -37c-16.667 0 -30.667 5.66699 -42 17c-4 3.33301 -9.5 9.5 -16.5 18.5s-17.5 19.833 -31.5 32.5c-42.667 38 -64 69.667 -64 95c0 10 9.33301 28 28 54s42.334 54.667 71.001 86z" />
    <glyph glyph-name="logicalnot" unicode="&#xac;" horiz-adv-x="484" 
d="M56.5 265c14.333 8.66699 28.499 13.334 42.499 14.001s27.333 1 40 1l105 -2c60.667 0 115 -0.333008 163 -1c13.333 -2 21 -8 23 -18c2 -5.33301 3 -13 3 -23v-163c-2 -11.333 -6.16699 -20.333 -12.5 -27s-13.666 -10 -21.999 -10s-15.833 3.16699 -22.5 9.5
s-10.667 15.166 -12 26.499c0 66 0.333008 108.667 1 128h-297c-22 0 -33 8.66699 -33 26s7.16699 30.333 21.5 39z" />
    <glyph glyph-name="softhyphen" unicode="&#xad;" horiz-adv-x="404" 
d="M152 197l-83 -2.00098c-9.33301 0 -17.166 3.33301 -23.499 10s-9.5 16.167 -9.5 28.5s4 22.5 12 30.5s19.333 12 34 12h54h145h50c24.667 -1.33301 37 -14 37 -38c0 -11.333 -3.83301 -21.166 -11.5 -29.499s-18.834 -12.5 -33.501 -12.5z" />
    <glyph glyph-name="registered" unicode="&#xae;" horiz-adv-x="760" 
d="M93 494c30.667 50 71.668 89.999 123.001 119.999s105.666 47 162.999 51c80.667 -0.666992 140 -10.334 178 -29.001c16 -8.66699 32 -20.334 48 -35.001c60.667 -58.667 91 -147 91 -265c0 -102 -26 -182.667 -78 -242s-126.333 -90.666 -223 -93.999
c-107.333 0 -194.333 32 -261 96c-26 24.667 -47 57.834 -63 99.501s-24 89.334 -24 143.001s15.333 105.5 46 155.5zM619.001 328.999c0 130 -40.333 211.998 -121 245.998c-32 13.333 -71.333 20.333 -118 21c-73.333 -8 -134.333 -37.667 -183 -89
s-73 -112.166 -73 -182.499s24.833 -129.166 74.5 -176.499s112.167 -71 187.5 -71s133 22 173 66s60 106 60 186zM371.001 516.997c43.333 0 77.002 -9.33301 101.002 -28s36 -44 36 -76c0 -43.333 -19 -75.666 -57 -96.999
c5.33301 -8.66699 16.166 -24.834 32.499 -48.501s26.5 -44.167 30.5 -61.5c0 -15.333 -7.33301 -28 -22 -38c-7.33301 -4 -14.833 -6 -22.5 -6s-14.5 6.33301 -20.5 19c-4.66699 16.667 -15.834 38.167 -33.501 64.5s-28.167 43.166 -31.5 50.499c-28.667 0 -50 1 -64 3
c0 -9.33301 0.333008 -17.666 1 -24.999v-55c-2 -42 -16.667 -63 -44 -63c-16 0 -24 9.66699 -24 29l4 291c8.66699 27.333 38 41 88 41h26zM357.003 449.997c-18.667 0 -30 -0.333008 -34 -1v-81c7.33301 -5.33301 20.833 -8 40.5 -8s38.167 4.16699 55.5 12.5s26 19 26 32
s-10 23.833 -30 32.5s-39.333 13 -58 13z" />
    <glyph glyph-name="macron" unicode="&#xaf;" horiz-adv-x="400" 
d="M70 596l116.999 -2.99902c46.667 0 81.5 0.833008 104.5 2.5s36.667 2.5 41 2.5s9.83301 -2.33301 16.5 -7s10.167 -9.33398 10.5 -14.001s0.5 -11.667 0.5 -21c0 -23.333 -13 -36.333 -39 -39c-32.667 -2.66699 -70.667 -4 -114 -4s-91.666 1.33301 -144.999 4
c-22 0.666992 -33 10 -33 28c0 34 13.667 51 41 51z" />
    <glyph glyph-name="degree" unicode="&#xb0;" horiz-adv-x="232" 
d="M124 713c34 0 55.999 -16.667 65.999 -50c4 -11.333 6 -24 6 -38c-3.33301 -27.333 -17 -48 -41 -62c-12.667 -8 -27.667 -12 -45 -12s-34.833 7.16699 -52.5 21.5s-26.5 33.833 -26.5 58.5s8.83301 44.5 26.5 59.5s39.834 22.5 66.501 22.5zM147.999 637
c0 13.333 -3.33301 22.333 -10 27s-14.167 7 -22.5 7s-16.333 -3.5 -24 -10.5s-11.5 -15.167 -11.5 -24.5c0 -21.333 11.333 -32 34 -32s34 11 34 33z" />
    <glyph glyph-name="plusminus" unicode="&#xb1;" horiz-adv-x="475" 
d="M204 277l0.000976562 8.00098l-2 70c0 67.333 16.667 101 50 101c15.333 0 25.666 -9.66699 30.999 -29l-2 -150h126c19.333 -3.33301 29 -12.333 29 -27c0 -10.667 -4 -20.834 -12 -30.501s-17.667 -16.167 -29 -19.5h-115c-0.666992 -4.66699 -1 -12.334 -1 -23.001
v-48v-7c0 -73.333 -16 -110 -48 -110c-20.667 0 -31 11.667 -31 35c0 68 1 119 3 153h-135c-22 0 -33 9 -33 27c0 10.667 4.5 21.334 13.5 32.001s19.5 16.667 31.5 18h124zM73.001 -119.999c-11.333 0 -20.333 3.16602 -27 9.49902s-10 13.833 -10 22.5
c0 24.667 16.333 39.334 49 44.001h306c24.667 -8 37 -21 37 -39c0 -10.667 -2.83301 -18.5 -8.5 -23.5s-16.167 -9.5 -31.5 -13.5h-315z" />
    <glyph glyph-name="twosuperior" unicode="&#xb2;" horiz-adv-x="230" 
d="M129 462c-70 0 -105.001 12.333 -105.001 37c0 22 15 44.667 45 68s45 42.333 45 57c0 8 -2 12.333 -6 13s-10.833 -1.5 -20.5 -6.5s-17.834 -7.5 -24.501 -7.5c-24.667 0 -37 12.667 -37 38c0 13.333 9.33301 26.5 28 39.5s38.834 19.5 60.501 19.5s40 -6.5 55 -19.5
s22.5 -29.833 22.5 -50.5c0 -38.667 -27 -80 -81 -124c15.333 2.66699 38.333 5.33398 69 8.00098c10.667 1.33301 17.834 -0.833984 21.501 -6.50098s5.5 -13.5 5.5 -23.5c0 -20 -6 -32 -18 -36s-32 -6 -60 -6z" />
    <glyph glyph-name="threesuperior" unicode="&#xb3;" horiz-adv-x="220" 
d="M110.5 613.5c10.333 5.66699 15.501 12.6631 15.501 20.9961s-5.66699 12.5 -17 12.5s-22.833 -0.833008 -34.5 -2.5s-20.667 1 -27 8s-9.5 16.5 -9.5 28.5c0 26 18.333 39 55 39c28 0 51.667 -4.83301 71 -14.5s29 -23 29 -40s-2.16699 -31 -6.5 -42
s-13.833 -20.833 -28.5 -29.5c26.667 -4.66699 40 -25 40 -61c0 -20.667 -7 -38 -21 -52s-32 -21 -54 -21c-38 0 -65.333 8.33301 -82 25c-6 6 -9 12.667 -9 20c0 25.333 11 38 33 38c8.66699 0 18 -1.66699 28 -5c18 -6 29 -5 33 3
c5.33301 12.667 5.66602 21.334 0.999023 26.001s-11.167 9.33398 -19.5 14.001s-12.5 9.83398 -12.5 15.501s5.16699 11.334 15.5 17.001z" />
    <glyph glyph-name="acute" unicode="&#xb4;" horiz-adv-x="247" 
d="M135 660c4 11.333 12.5 16.999 25.5 16.999s23.333 -4 31 -12s11.5 -14.5 11.5 -19.5s-0.666992 -9.16699 -2 -12.5c-10.667 -30 -28.5 -58.333 -53.5 -85s-44.167 -40 -57.5 -40s-23.333 3.33301 -30 10s-10 14.5 -10 23.5s5.33301 17.833 16 26.5
c35.333 28.667 58.333 59.334 69 92.001z" />
    <glyph glyph-name="paragraph" unicode="&#xb6;" horiz-adv-x="500" 
d="M341 -5c-25.333 0 -38.001 41.666 -38.001 124.999l9 485h-43c-4.66699 -58.667 -7 -153.667 -7 -285l1 -279c0 -22.667 -15.667 -37.667 -47 -45c-11.333 2 -17.333 5.33301 -18 10c-2.66699 5.33301 -4 11 -4 17c-4 32 -6 87.667 -6 167s1.33301 133.333 4 162
c-64 6 -109 29.333 -135 70c-14 22 -21 49 -21 81c0 52 19.667 91.833 59 119.5s96 41.5 170 41.5h87c36 0 61.667 -2 77 -6s23 -10.667 23 -20c0 -11.333 -2.5 -20.166 -7.5 -26.499s-14.667 -9.5 -29 -9.5s-26.166 0.666992 -35.499 2c-4 -170.667 -6 -323.667 -6 -459
l2 -104c0 -12.667 -3.66699 -23.5 -11 -32.5s-15.333 -13.5 -24 -13.5z" />
    <glyph glyph-name="periodcentered" unicode="&#xb7;" horiz-adv-x="200" 
d="M63.5 276c10.333 16 22.666 24.001 36.999 24.001s26.833 -5.33301 37.5 -16s17 -25.334 19 -44.001c0 -14.667 -5.33301 -28.167 -16 -40.5s-23.167 -18.5 -37.5 -18.5s-27.166 3.83301 -38.499 11.5s-17 19.5 -17 35.5s5.16699 32 15.5 48z" />
    <glyph glyph-name="cedilla" unicode="&#xb8;" horiz-adv-x="400" 
d="M200 -37l33 4.00098c14.667 0 26.334 -2.66699 35.001 -8c14.667 -8 24.334 -24.333 29.001 -49c2 -10.667 3 -20.334 3 -29.001c0 -22 -8.33301 -41.333 -25 -58s-40.5 -25 -71.5 -25s-56 4.33301 -75 13s-28.5 18.667 -28.5 30s2.66699 20.333 8 27
s10.666 10 15.999 10s16.333 -4.33301 33 -13s31.667 -13 45 -13s24.166 3.33301 32.499 10s12.5 13.334 12.5 20.001c0 19.333 -5 30.666 -15 33.999c-2.66699 0.666992 -8 1 -16 1s-20 -0.666992 -36 -2c-30 0 -45 19 -45 57s12 57 36 57c15.333 0 23 -10.333 23 -31
c-0.666992 -6 -1 -13.333 -1 -22s2.33301 -13 7 -13z" />
    <glyph glyph-name="onesuperior" unicode="&#xb9;" horiz-adv-x="200" 
d="M118 460c-10.667 0 -19.334 4 -26.001 12s-9.66699 17 -9 27c2 31.333 7.33301 70.333 16 117c-35.333 -22.667 -58.333 -28 -69 -16c-5.33301 6 -8 15.5 -8 28.5s14.167 31.667 42.5 56s52.833 36.5 73.5 36.5c24 0 36 -18.667 36 -56c0 -9.33301 -5.33301 -61 -16 -155
c-1.33301 -14 -5.66602 -25.833 -12.999 -35.5s-16.333 -14.5 -27 -14.5z" />
    <glyph glyph-name="ordmasculine" unicode="&#xba;" horiz-adv-x="299" 
d="M244 611.5c21.333 -32.333 31.999 -70.499 31.999 -114.499s-11.167 -81.833 -33.5 -113.5s-51.666 -47.5 -87.999 -47.5s-65.833 16.167 -88.5 48.5s-34 70.666 -34 114.999s10.333 81.833 31 112.5c22 32 52.333 48 91 48s68.667 -16.167 90 -48.5zM151.999 595.001
c-17.333 0 -31.5 -9.16699 -42.5 -27.5s-16.5 -41.166 -16.5 -68.499s6 -49.333 18 -66s26.5 -25 43.5 -25s31 5.16699 42 15.5s16.5 32.166 16.5 65.499c0 70.667 -20.333 106 -61 106z" />
    <glyph glyph-name="guillemotright" unicode="&#xbb;" horiz-adv-x="508" 
d="M256 416c5.33301 0 13.666 -2.50293 24.999 -7.50293s20 -11.167 26 -18.5s19.167 -19.666 39.5 -36.999s37.5 -33 51.5 -47c22.667 -22.667 34 -47 34 -73c0 -13.333 -3.5 -25 -10.5 -35s-19.667 -23.167 -38 -39.5s-31.166 -30.166 -38.499 -41.499
c-8 -11.333 -18.5 -21.666 -31.5 -30.999s-23.167 -14 -30.5 -14s-14.166 3.33301 -20.499 10s-9.5 16.5 -9.5 29.5s8.66699 29 26 48s36.666 37.833 57.999 56.5l23 20c-6.66699 8 -20.334 21 -41.001 39c-57.333 48.667 -87.666 85 -90.999 109c0 21.333 9.33301 32 28 32
zM105 66.9971c-25.333 0 -38.002 10.333 -38.002 31c0 17.333 24.333 47.666 73 90.999c18.667 16 30.667 29 36 39c-77.333 80.667 -116 133 -116 157c0 7.33301 3.66699 13.666 11 18.999s15.333 8 24 8s17.334 -3.66699 26.001 -11
c26.667 -26.667 54.834 -58.167 84.501 -94.5s44.5 -59.833 44.5 -70.5c0 -21.333 -8 -41.166 -24 -59.499s-29.833 -32.666 -41.5 -42.999s-21.5 -20.5 -29.5 -30.5l-17 -19c-17.333 -11.333 -27 -17 -29 -17h-4z" />
    <glyph glyph-name="onequarter" unicode="&#xbc;" horiz-adv-x="535" 
d="M152 216c-20.667 0 -33.002 12 -37.002 36c0.666992 35.333 6 74 16 116c-2 -2 -9.83301 -5.5 -23.5 -10.5s-21.834 -8.16699 -24.501 -9.5c-20 0 -30 10.333 -30 31c0 14.667 14 33.167 42 55.5s52.667 33.5 74 33.5c24 0 36 -16.333 36 -49
c0 -17.333 -2.66699 -46 -8 -86s-8.16602 -64.333 -8.49902 -73s-4.16602 -18.167 -11.499 -28.5s-15.666 -15.5 -24.999 -15.5zM444.998 404l-12 -16.999c-3.33301 -5.33301 -47.666 -65.333 -132.999 -180l-140 -189c-8 -11.333 -17.5 -17 -28.5 -17
s-20.333 3.33301 -28 10s-11.5 14 -11.5 22s1.66699 14.667 5 20l52 67c74.667 96 118.667 154.333 132 175c66.667 103.333 110.667 159.666 132 168.999c4.66699 2.66699 10.667 4 18 4s13.666 -3.5 18.999 -10.5s8 -15.667 8 -26s-4.33301 -19.5 -13 -27.5z
M400.998 31.001l0.000976562 42.001h-24c-28.667 0 -47.667 2.5 -57 7.5s-14 13.5 -14 25.5c0 19.333 32.667 65.666 98 138.999c8 6 17.333 9 28 9c21.333 0 35 -8.66699 41 -26c1.33301 -6.66699 1.66602 -12 0.999023 -16s-4 -29.333 -10 -76
c15.333 -3.33301 23 -11.5 23 -24.5s-4.66699 -22.167 -14 -27.5c-0.666992 0 -1.5 -0.333008 -2.5 -1s-3.5 -2 -7.5 -4c-1.33301 -4 -2 -12.667 -2 -26c-1.33301 -36 -10.833 -54 -28.5 -54s-28.167 10.667 -31.5 32zM403.999 148.002v9.99902
c-0.666992 2.66699 -1 6 -1 10c-10 -10 -19 -22.333 -27 -37c18.667 2.66699 28 8.33398 28 17.001z" />
    <glyph glyph-name="onehalf" unicode="&#xbd;" horiz-adv-x="586" 
d="M152 216c-20.667 0 -33.002 12 -37.002 36c0.666992 35.333 6 74 16 116c-2 -2 -9.83301 -5.5 -23.5 -10.5s-21.834 -8.16699 -24.501 -9.5c-20 0 -30 10.333 -30 31c0 14.667 14 33.167 42 55.5s52.667 33.5 74 33.5c24 0 36 -16.333 36 -49
c0 -17.333 -2.66699 -46 -8 -86s-8.16602 -64.333 -8.49902 -73s-4.16602 -18.167 -11.499 -28.5s-15.666 -15.5 -24.999 -15.5zM444.998 404l-12 -16.999c-3.33301 -5.33301 -47.666 -65.333 -132.999 -180l-140 -189c-8 -11.333 -17.5 -17 -28.5 -17
s-20.333 3.33301 -28 10s-11.5 14 -11.5 22s1.66699 14.667 5 20l52 67c74.667 96 118.667 154.333 132 175c66.667 103.333 110.667 159.666 132 168.999c4.66699 2.66699 10.667 4 18 4s13.666 -3.5 18.999 -10.5s8 -15.667 8 -26s-4.33301 -19.5 -13 -27.5z
M459.998 -0.999023l-35.001 -0.00195312c-52 0.666992 -78 13.334 -78 38.001c0 20.667 14.667 41.334 44 62.001c30 19.333 45 37 45 53c0 6 -1.33301 11.667 -4 17c-5.33301 0 -13.666 -2.33301 -24.999 -7s-20.833 -7 -28.5 -7s-14.667 3.16699 -21 9.5s-9.5 16 -9.5 29
s9.33301 25.167 28 36.5s38.334 17 59.001 17c53.333 0 80 -24.333 80 -73c0 -26.667 -27.667 -63 -83 -109l68 8c8.66699 0 15.667 -3.16699 21 -9.5s8 -15 8 -26s-4.33301 -19.5 -13 -25.5c-1.33301 -0.666992 -3.5 -2 -6.5 -4s-6.83301 -4 -11.5 -6
s-17.334 -3 -38.001 -3z" />
    <glyph glyph-name="threequarters" unicode="&#xbe;" horiz-adv-x="536" 
d="M444 404l-82.001 -110c-124 -167.333 -190.333 -258 -199 -272s-20 -21 -34 -21s-25 6 -33 18c-3.33301 5.33301 -5 11 -5 17s3 13.167 9 21.5s35 46.5 87 114.5s83 109.667 93 125l31 47l14 21c46 68.667 79.667 103 101 103c8.66699 0 15.834 -3.5 21.501 -10.5
s8.5 -15.667 8.5 -26s-4 -19.5 -12 -27.5zM88.999 400c-19.333 0 -29.001 11.166 -29.001 33.499s17.333 33.5 52 33.5c26.667 0 48.834 -4.16699 66.501 -12.5s26.5 -20.166 26.5 -35.499c0 -34 -10 -56 -30 -66c10.667 -2 19.5 -9 26.5 -21s10.5 -24.833 10.5 -38.5
s-7 -28 -21 -43s-31.667 -22.5 -53 -22.5s-42.333 4 -63 12s-31 18.667 -31 32c0 8.66699 3.5 16.167 10.5 22.5s15.5 9.83301 25.5 10.5c22 -4 34 -6 36 -6c12 0 21.333 6 28 18c-8 0 -19 5.66699 -33 17c-5.33301 4 -8 10.333 -8 19s2.66699 14.667 8 18l33 18
c-3.33301 7.33301 -14 11 -32 11h-23zM394.998 72.999h-23.998c-28.667 0 -47.834 2.5 -57.501 7.5s-14.5 13.5 -14.5 25.5c0 19.333 32.667 65.666 98 138.999c8 6 17.333 9 28 9c21.333 0 35 -8.66699 41 -26c1.33301 -6.66699 1.66602 -12 0.999023 -16
s-4 -29.333 -10 -76c16 -2.66699 24 -12.334 24 -29.001c0 -6.66699 -1.66699 -12.167 -5 -16.5s-10 -8.16602 -20 -11.499c-0.666992 -3.33301 -1 -10.666 -1 -21.999c-1.33301 -38.667 -10 -58 -26 -58c-20.667 0 -32 10.667 -34 32v42zM368 130.999
c4.66699 0.666992 13.667 1 27 1c0.666992 5.33301 1 17.333 1 36c-8.66699 -8.66699 -18 -21 -28 -37z" />
    <glyph glyph-name="questiondown" unicode="&#xbf;" horiz-adv-x="375" 
d="M231 386.5c-8.66699 -10.333 -18.334 -15.501 -29.001 -15.501c-21.333 0 -35.666 2.83301 -42.999 8.5s-11 18.834 -11 39.501c0 35.333 15.333 53 46 53c11.333 0 22.5 -5.16699 33.5 -15.5s16.5 -22 16.5 -35s-4.33301 -24.667 -13 -35zM107 -68.001
c0 -15.333 8.66406 -29.668 25.9971 -43.001s35 -20 53 -20c32.667 0 58.834 13.167 78.501 39.5s35.334 39.5 47.001 39.5s21.334 -3.66699 29.001 -11s11.5 -17 11.5 -29c0 -25.333 -17.833 -51.166 -53.5 -77.499s-72.834 -39.5 -111.501 -39.5c-54.667 0 -98 22 -130 66
c-17.333 23.333 -26 48.333 -26 75c0 44 18.333 86.667 55 128c14.667 17.333 29.667 33.333 45 48c36 36 54 60.333 54 73s-4.5 26.5 -13.5 41.5s-13.5 26 -13.5 33s3.83301 14 11.5 21s15.5 10.5 23.5 10.5c18.667 0 35.834 -10 51.501 -30s23.5 -42.667 23.5 -68
c0 -42 -16.667 -81 -50 -117c-18.667 -20 -33 -34.333 -43 -43c-45.333 -42 -68 -74.333 -68 -97z" />
    <glyph glyph-name="Agrave" unicode="&#xc0;" horiz-adv-x="488" 
d="M329 710c-6 -9.33301 -13.5029 -14 -22.5029 -14s-19.667 3.33301 -32 10s-27.666 19 -45.999 37s-32 35.5 -41 52.5s-13.5 28.667 -13.5 35s0.666992 12.333 2 18s5.83301 10.667 13.5 15s13.834 6.5 18.501 6.5s8.33398 -0.333008 11.001 -1
c10 -2.66699 23.667 -18.5 41 -47.5s36.333 -48.833 57 -59.5c10.667 -5.33301 16.667 -14 18 -26s-0.666992 -20.667 -6 -26zM258.997 659c16.667 0 30.6709 -7.33301 42.0039 -22s26 -45 44 -91c42 -108.667 83 -279 123 -511c0.666992 -2.66699 1 -6.5 1 -11.5
s-3.16699 -10.333 -9.5 -16s-15.333 -8.5 -27 -8.5s-21.5 2.83301 -29.5 8.5s-13.333 15 -16 28l-15 76.5c-16 84.667 -26.667 128.667 -32 132c-8 4.66699 -34.5 9.66699 -79.5 15s-74.833 8 -89.5 8s-23.334 -1.33301 -26.001 -4c-12 -10.667 -28.333 -91.667 -49 -243
c-2.66699 -12.667 -15.334 -19 -38.001 -19s-34 9.66699 -34 29c0 48 17.667 139.667 53 275s64.666 225 87.999 269c29.333 56.667 60.666 85 93.999 85zM255.001 548c-10 0 -27.333 -29.501 -52 -88.501s-37 -95.5 -37 -109.5c0 -3.33301 0.666992 -5.66602 2 -6.99902
c5.33301 -5.33301 26.333 -10 63 -14s61 -6 73 -6s18.667 0.833008 20 2.5s2 7 2 16s-9 45.667 -27 110s-32.667 96.5 -44 96.5z" />
    <glyph glyph-name="Aacute" unicode="&#xc1;" horiz-adv-x="488" 
d="M262 859c4 11.333 12.5 17 25.5 17s23.333 -4 31 -12s11.5 -14.5 11.5 -19.5s-0.666992 -9.16699 -2 -12.5c-10.667 -30 -28.5 -58.333 -53.5 -85s-44.167 -40 -57.5 -40s-23.333 3.33301 -30 10s-10 14.5 -10 23.5s5 17.5 15 25.5c36 29.333 59.333 60.333 70 93z
M259 659c16.667 0 30.6709 -7.33301 42.0039 -22s26 -45 44 -91c42 -108.667 83 -279 123 -511c0.666992 -2.66699 1 -6.5 1 -11.5s-3.16699 -10.333 -9.5 -16s-15.333 -8.5 -27 -8.5s-21.5 2.83301 -29.5 8.5s-13.333 15 -16 28l-15 76.5
c-16 84.667 -26.667 128.667 -32 132c-8 4.66699 -34.5 9.66699 -79.5 15s-74.833 8 -89.5 8s-23.334 -1.33301 -26.001 -4c-12 -10.667 -28.333 -91.667 -49 -243c-2.66699 -12.667 -15.334 -19 -38.001 -19s-34 9.66699 -34 29c0 48 17.667 139.667 53 275
s64.666 225 87.999 269c29.333 56.667 60.666 85 93.999 85zM255.004 548c-10 0 -27.333 -29.501 -52 -88.501s-37 -95.5 -37 -109.5c0 -3.33301 0.666992 -5.66602 2 -6.99902c5.33301 -5.33301 26.333 -10 63 -14s61 -6 73 -6s18.667 0.833008 20 2.5s2 7 2 16
s-9 45.667 -27 110s-32.667 96.5 -44 96.5z" />
    <glyph glyph-name="Acircumflex" unicode="&#xc2;" horiz-adv-x="488" 
d="M186 811c34 26.667 58.4971 40 73.4971 40s38.833 -12.5 71.5 -37.5s49 -45.167 49 -60.5c0 -9.33301 -4 -17.333 -12 -24s-14.667 -10 -20 -10s-20 10.667 -44 32s-39.167 32 -45.5 32s-20.666 -11 -42.999 -33s-38.166 -33 -47.499 -33s-17.166 3.83301 -23.499 11.5
s-9.5 16.667 -9.5 27s17 28.833 51 55.5zM258.997 659c16.667 0 30.6709 -7.33301 42.0039 -22s26 -45 44 -91c42 -108.667 83 -279 123 -511c0.666992 -2.66699 1 -6.5 1 -11.5s-3.16699 -10.333 -9.5 -16s-15.333 -8.5 -27 -8.5s-21.5 2.83301 -29.5 8.5
s-13.333 15 -16 28l-15 76.5c-16 84.667 -26.667 128.667 -32 132c-8 4.66699 -34.5 9.66699 -79.5 15s-74.833 8 -89.5 8s-23.334 -1.33301 -26.001 -4c-12 -10.667 -28.333 -91.667 -49 -243c-2.66699 -12.667 -15.334 -19 -38.001 -19s-34 9.66699 -34 29
c0 48 17.667 139.667 53 275s64.666 225 87.999 269c29.333 56.667 60.666 85 93.999 85zM255.001 548c-10 0 -27.333 -29.501 -52 -88.501s-37 -95.5 -37 -109.5c0 -3.33301 0.666992 -5.66602 2 -6.99902c5.33301 -5.33301 26.333 -10 63 -14s61 -6 73 -6
s18.667 0.833008 20 2.5s2 7 2 16s-9 45.667 -27 110s-32.667 96.5 -44 96.5z" />
    <glyph glyph-name="Atilde" unicode="&#xc3;" horiz-adv-x="488" 
d="M149.5 805c19.667 16 38.332 23.999 55.999 23.999s31.834 -2.66699 42.501 -8s18 -11.333 22 -18c10.667 -17.333 20.334 -26 29.001 -26s18.167 8 28.5 24s20 24 29 24s16.833 -4 23.5 -12s10 -16.333 10 -25c0 -24 -9.83301 -42.333 -29.5 -55s-38.667 -19 -57 -19
s-32.5 3.83301 -42.5 11.5s-18.667 15.334 -26 23.001s-15.333 11.5 -24 11.5c-4 0 -12.333 -7.5 -25 -22.5s-23.334 -22.5 -32.001 -22.5s-16.5 4.16699 -23.5 12.5s-10.5 19.333 -10.5 33s9.83301 28.5 29.5 44.5zM258.998 658.999c16.667 0 30.6709 -7.33301 42.0039 -22
s26 -45 44 -91c42 -108.667 83 -279 123 -511c0.666992 -2.66699 1 -6.5 1 -11.5s-3.16699 -10.333 -9.5 -16s-15.333 -8.5 -27 -8.5s-21.5 2.83301 -29.5 8.5s-13.333 15 -16 28l-15 76.5c-16 84.667 -26.667 128.667 -32 132c-8 4.66699 -34.5 9.66699 -79.5 15
s-74.833 8 -89.5 8s-23.334 -1.33301 -26.001 -4c-12 -10.667 -28.333 -91.667 -49 -243c-2.66699 -12.667 -15.334 -19 -38.001 -19s-34 9.66699 -34 29c0 48 17.667 139.667 53 275s64.666 225 87.999 269c29.333 56.667 60.666 85 93.999 85zM255.002 547.999
c-10 0 -27.333 -29.501 -52 -88.501s-37 -95.5 -37 -109.5c0 -3.33301 0.666992 -5.66602 2 -6.99902c5.33301 -5.33301 26.333 -10 63 -14s61 -6 73 -6s18.667 0.833008 20 2.5s2 7 2 16s-9 45.667 -27 110s-32.667 96.5 -44 96.5z" />
    <glyph glyph-name="Adieresis" unicode="&#xc4;" horiz-adv-x="488" 
d="M167 711c-24.667 0 -39.667 12.999 -45 38.999c0 15.333 5.66699 28.833 17 40.5s23.833 17.5 37.5 17.5s24.5 -4.66699 32.5 -14s12.333 -22 13 -38c-2 -13.333 -8.16699 -24.166 -18.5 -32.499s-22.5 -12.5 -36.5 -12.5zM347 806.999
c12 0 22.167 -3.49902 30.5 -10.499s12.833 -16.5 13.5 -28.5c-2 -16.667 -8 -29.834 -18 -39.501s-21.5 -14.5 -34.5 -14.5s-23.833 4.5 -32.5 13.5s-13 20.5 -13 34.5c0 30 18 45 54 45zM259 659c16.667 0 30.6709 -7.33301 42.0039 -22s26 -45 44 -91
c42 -108.667 83 -279 123 -511c0.666992 -2.66699 1 -6.5 1 -11.5s-3.16699 -10.333 -9.5 -16s-15.333 -8.5 -27 -8.5s-21.5 2.83301 -29.5 8.5s-13.333 15 -16 28l-15 76.5c-16 84.667 -26.667 128.667 -32 132c-8 4.66699 -34.5 9.66699 -79.5 15s-74.833 8 -89.5 8
s-23.334 -1.33301 -26.001 -4c-12 -10.667 -28.333 -91.667 -49 -243c-2.66699 -12.667 -15.334 -19 -38.001 -19s-34 9.66699 -34 29c0 48 17.667 139.667 53 275s64.666 225 87.999 269c29.333 56.667 60.666 85 93.999 85zM255.004 548
c-10 0 -27.333 -29.501 -52 -88.501s-37 -95.5 -37 -109.5c0 -3.33301 0.666992 -5.66602 2 -6.99902c5.33301 -5.33301 26.333 -10 63 -14s61 -6 73 -6s18.667 0.833008 20 2.5s2 7 2 16s-9 45.667 -27 110s-32.667 96.5 -44 96.5z" />
    <glyph glyph-name="Aring" unicode="&#xc5;" horiz-adv-x="488" 
d="M195.5 835c19 16 41.001 24 66.001 24s44.333 -8 58 -24s20.5 -36.333 20.5 -61c0 -26 -8.66699 -46.667 -26 -62s-37.833 -23 -61.5 -23s-43.834 9 -60.501 27s-25 38.333 -25 61s9.5 42 28.5 58zM259.001 809c-8.66699 0 -16.333 -3 -23 -9s-10 -13.333 -10 -22
c0 -18.667 8.66699 -28 26 -28c21.333 0 32 9.83301 32 29.5s-8.33301 29.5 -25 29.5zM259.002 659c16.667 0 30.6709 -7.33301 42.0039 -22s26 -45 44 -91c42 -108.667 83 -279 123 -511c0.666992 -2.66699 1 -6.5 1 -11.5s-3.16699 -10.333 -9.5 -16
s-15.333 -8.5 -27 -8.5s-21.5 2.83301 -29.5 8.5s-13.333 15 -16 28l-15 76.5c-16 84.667 -26.667 128.667 -32 132c-8 4.66699 -34.5 9.66699 -79.5 15s-74.833 8 -89.5 8s-23.334 -1.33301 -26.001 -4c-12 -10.667 -28.333 -91.667 -49 -243
c-2.66699 -12.667 -15.334 -19 -38.001 -19s-34 9.66699 -34 29c0 48 17.667 139.667 53 275s64.666 225 87.999 269c29.333 56.667 60.666 85 93.999 85zM255.006 548c-10 0 -27.333 -29.501 -52 -88.501s-37 -95.5 -37 -109.5c0 -3.33301 0.666992 -5.66602 2 -6.99902
c5.33301 -5.33301 26.333 -10 63 -14s61 -6 73 -6s18.667 0.833008 20 2.5s2 7 2 16s-9 45.667 -27 110s-32.667 96.5 -44 96.5z" />
    <glyph glyph-name="AE" unicode="&#xc6;" horiz-adv-x="661" 
d="M559 368c24 -4 36.001 -14.333 36.001 -31c0 -8.66699 -3.83301 -17.167 -11.5 -25.5s-16.834 -13.833 -27.501 -16.5c-10.667 0 -25 0.666992 -43 2s-46.667 2 -86 2h-26l6 -197v-26l188 3c22 -3.33301 33 -13 33 -29c0 -13.333 -7.66699 -26 -23 -38
c-8 -5.33301 -15.333 -9 -22 -11h-203h-5c-36.667 0 -55 10 -55 30l3 258l-90 -2c-32 0 -59 3 -81 9c-12 -48.667 -21.667 -103.667 -29 -165l-15 -106c-2 -16 -14.5 -24 -37.5 -24s-34.5 9.33301 -34.5 28c0 60 6.33301 127.167 19 201.5s35.667 139.833 69 196.5
c48 83.333 89.5 140.166 124.5 170.499s76.167 45.5 123.5 45.5h229c24.667 -8 37 -19.667 37 -35c0 -32 -38.667 -48 -116 -48h-35c-4 0 -34.333 2.66699 -91 8c0 -101.333 1.33301 -166.666 4 -195.999zM313.001 563c-22 -14.667 -46 -38.501 -72 -71.501
s-49 -72.5 -69 -118.5c18.667 -3.33301 36.667 -5 54 -5l91 4c0.666992 8.66699 1 21.834 1 39.501s-1.66699 68.167 -5 151.5z" />
    <glyph glyph-name="Ccedilla" unicode="&#xc7;" horiz-adv-x="548" 
d="M339 -17l33.001 4.00098c14.667 0 26.667 -2.66699 36 -8c14 -8 23.333 -24.333 28 -49c2 -10.667 3 -20.334 3 -29.001c0 -22 -8.33301 -41.333 -25 -58s-40.5 -25 -71.5 -25s-56 4.33301 -75 13s-28.5 18.667 -28.5 30s2.66699 20.333 8 27s10.666 10 15.999 10
s16.333 -4.33301 33 -13s31.667 -13 45 -13s24.166 3.33301 32.499 10s12.5 13.334 12.5 20.001c0 19.333 -5 30.666 -15 33.999c-2.66699 0.666992 -8 1 -16 1s-20 -0.666992 -36 -2c-30 0 -45 17.667 -45 53v14c-4 -0.666992 -10 -1 -18 -1c-48 0 -89 17.667 -123 53
c-60.667 65.333 -91 154.5 -91 267.5s28.833 196.667 86.5 251s126.834 81.5 207.501 81.5c44.667 0 94 -8.66699 148 -26c12 -9.33301 18 -19.5 18 -30.5s-5.5 -20.667 -16.5 -29s-23.5 -12.5 -37.5 -12.5c-36 9.33301 -69.667 14 -101 14c-72 0 -126.667 -21.333 -164 -64
s-56 -106 -56 -190s22 -149.667 66 -197c22.667 -24.667 49.667 -37 81 -37s81.333 16.667 150 50c24 11.333 40 17 48 17c17.333 0 26 -9 26 -27s-8.33301 -33 -25 -45c-54 -28 -100.667 -48.667 -140 -62c-0.666992 -5.33301 -1 -12 -1 -20s2.33301 -12 7 -12z" />
    <glyph glyph-name="Egrave" unicode="&#xc8;" horiz-adv-x="442" 
d="M305 711c-6 -9.33301 -13.5029 -14 -22.5029 -14s-19.667 3.33301 -32 10s-27.666 19 -45.999 37s-32 35.5 -41 52.5s-13.5 28.667 -13.5 35s0.666992 12.333 2 18s5.83301 10.667 13.5 15s13.834 6.5 18.501 6.5s8.33398 -0.333008 11.001 -1
c10 -2.66699 23.667 -18.5 41 -47.5s36.333 -48.833 57 -59.5c10.667 -5.33301 16.667 -14 18 -26s-0.666992 -20.667 -6 -26zM54.9971 344c-9.33301 6 -13.999 14.667 -13.999 26s3.66699 21.666 11 30.999c-2.66699 66.667 -4 137 -4 211c4 16 10.167 27.667 18.5 35
s20.5 12 36.5 14c88 -4 183.333 -6 286 -6c25.333 -5.33301 38 -16.333 38 -33c0 -28 -27.333 -44.333 -82 -49c-14.667 -0.666992 -30.667 -1 -48 -1h-65c-12.667 0 -47.667 2.66699 -105 8c0 -83.333 1.33301 -140.666 4 -171.999c35.333 -0.666992 103.333 -1 204 -1
c24 -4.66699 36 -15.5 36 -32.5s-9.66699 -30.167 -29 -39.5c-2 -1.33301 -5.66699 -2.66602 -11 -3.99902l-173 3c-10.667 0 -19.334 -0.666992 -26.001 -2l4 -172c0 -38.667 -1 -66.334 -3 -83.001l232 3c21.333 -3.33301 32 -12.333 32 -27c0 -10 -4.5 -20 -13.5 -30
s-19.5 -16.333 -31.5 -19l-256 -4c-15.333 -0 -26 2.83301 -32 8.5s-9 15.167 -9 28.5c2.66699 18.667 4 48.667 4 90v70z" />
    <glyph glyph-name="Eacute" unicode="&#xc9;" horiz-adv-x="442" 
d="M238 860c4 11.333 12.5 16.999 25.5 16.999s23.333 -4 31 -12s11.5 -14.5 11.5 -19.5s-0.666992 -9.16699 -2 -12.5c-10.667 -30 -28.5 -58.333 -53.5 -85s-44.167 -40 -57.5 -40s-23.333 3.33301 -30 10s-10 14.5 -10 23.5s5 17.833 15 26.5
c36 28.667 59.333 59.334 70 92.001zM55 343.999c-9.33301 6 -13.999 14.667 -13.999 26s3.66699 21.666 11 30.999c-2.66699 66.667 -4 137 -4 211c4 16 10.167 27.667 18.5 35s20.5 12 36.5 14c88 -4 183.333 -6 286 -6c25.333 -5.33301 38 -16.333 38 -33
c0 -28 -27.333 -44.333 -82 -49c-14.667 -0.666992 -30.667 -1 -48 -1h-65c-12.667 0 -47.667 2.66699 -105 8c0 -83.333 1.33301 -140.666 4 -171.999c35.333 -0.666992 103.333 -1 204 -1c24 -4.66699 36 -15.5 36 -32.5s-9.66699 -30.167 -29 -39.5
c-2 -1.33301 -5.66699 -2.66602 -11 -3.99902l-173 3c-10.667 0 -19.334 -0.666992 -26.001 -2l4 -172c0 -38.667 -1 -66.334 -3 -83.001l232 3c21.333 -3.33301 32 -12.333 32 -27c0 -10 -4.5 -20 -13.5 -30s-19.5 -16.333 -31.5 -19l-256 -4
c-15.333 0 -26 2.83301 -32 8.5s-9 15.167 -9 28.5c2.66699 18.667 4 48.667 4 90v70z" />
    <glyph glyph-name="Ecircumflex" unicode="&#xca;" horiz-adv-x="442" 
d="M162 812c34 26.667 58.4971 40 73.4971 40s38.833 -12.5 71.5 -37.5s49 -45.167 49 -60.5c0 -9.33301 -4 -17.333 -12 -24s-14.667 -10 -20 -10s-20 10.667 -44 32s-39.167 32 -45.5 32s-20.666 -11 -42.999 -33s-38.166 -33 -47.499 -33s-17.166 3.83301 -23.499 11.5
s-9.5 16.667 -9.5 27s17 28.833 51 55.5zM54.9971 344c-9.33301 6 -13.999 14.667 -13.999 26s3.66699 21.666 11 30.999c-2.66699 66.667 -4 137 -4 211c4 16 10.167 27.667 18.5 35s20.5 12 36.5 14c88 -4 183.333 -6 286 -6c25.333 -5.33301 38 -16.333 38 -33
c0 -28 -27.333 -44.333 -82 -49c-14.667 -0.666992 -30.667 -1 -48 -1h-65c-12.667 0 -47.667 2.66699 -105 8c0 -83.333 1.33301 -140.666 4 -171.999c35.333 -0.666992 103.333 -1 204 -1c24 -4.66699 36 -15.5 36 -32.5s-9.66699 -30.167 -29 -39.5
c-2 -1.33301 -5.66699 -2.66602 -11 -3.99902l-173 3c-10.667 0 -19.334 -0.666992 -26.001 -2l4 -172c0 -38.667 -1 -66.334 -3 -83.001l232 3c21.333 -3.33301 32 -12.333 32 -27c0 -10 -4.5 -20 -13.5 -30s-19.5 -16.333 -31.5 -19l-256 -4
c-15.333 -0 -26 2.83301 -32 8.5s-9 15.167 -9 28.5c2.66699 18.667 4 48.667 4 90v70z" />
    <glyph glyph-name="Edieresis" unicode="&#xcb;" horiz-adv-x="442" 
d="M143 712c-24.667 0 -39.667 12.999 -45 38.999c0 15.333 5.66699 28.833 17 40.5s23.833 17.5 37.5 17.5s24.5 -4.66699 32.5 -14s12.333 -22 13 -38c-2 -13.333 -8.16699 -24.166 -18.5 -32.499s-22.5 -12.5 -36.5 -12.5zM323 807.999
c12 0 22.167 -3.49902 30.5 -10.499s12.833 -16.5 13.5 -28.5c-2 -16.667 -8 -29.834 -18 -39.501s-21.5 -14.5 -34.5 -14.5s-23.833 4.5 -32.5 13.5s-13 20.5 -13 34.5c0 30 18 45 54 45zM55 344c-9.33301 6 -13.999 14.667 -13.999 26s3.66699 21.666 11 30.999
c-2.66699 66.667 -4 137 -4 211c4 16 10.167 27.667 18.5 35s20.5 12 36.5 14c88 -4 183.333 -6 286 -6c25.333 -5.33301 38 -16.333 38 -33c0 -28 -27.333 -44.333 -82 -49c-14.667 -0.666992 -30.667 -1 -48 -1h-65c-12.667 0 -47.667 2.66699 -105 8
c0 -83.333 1.33301 -140.666 4 -171.999c35.333 -0.666992 103.333 -1 204 -1c24 -4.66699 36 -15.5 36 -32.5s-9.66699 -30.167 -29 -39.5c-2 -1.33301 -5.66699 -2.66602 -11 -3.99902l-173 3c-10.667 0 -19.334 -0.666992 -26.001 -2l4 -172
c0 -38.667 -1 -66.334 -3 -83.001l232 3c21.333 -3.33301 32 -12.333 32 -27c0 -10 -4.5 -20 -13.5 -30s-19.5 -16.333 -31.5 -19l-256 -4c-15.333 -0 -26 2.83301 -32 8.5s-9 15.167 -9 28.5c2.66699 18.667 4 48.667 4 90v70z" />
    <glyph glyph-name="Igrave" unicode="&#xcc;" horiz-adv-x="235" 
d="M180 763c12 -6 17.9971 -18.667 17.9971 -38c0 -5.33301 -2 -10 -6 -14c-6 -9.33301 -13.5 -14 -22.5 -14s-19.667 3.33301 -32 10s-27.666 19 -45.999 37s-31.833 35.5 -40.5 52.5s-13 28.667 -13 35s0.5 12.333 1.5 18s5.33301 10.667 13 15s13.834 6.5 18.501 6.5
s8.33398 -0.333008 11.001 -1c10 -2.66699 23.667 -18.5 41 -47.5s36.333 -48.833 57 -59.5zM134.997 646c13.333 0 21.668 -7.66797 25.001 -23.001c0.666992 -77.333 2 -193 4 -347c0 -94 -2.66699 -173.667 -8 -239c-1.33301 -10 -7.5 -18.833 -18.5 -26.5
s-22.167 -11.5 -33.5 -11.5c-18.667 0 -28 9.66699 -28 29c6.66699 66.667 10 149.334 10 248.001l-6 336c2.66699 9.33301 9.16699 17.333 19.5 24s22.166 10 35.499 10z" />
    <glyph glyph-name="Iacute" unicode="&#xcd;" horiz-adv-x="235" 
d="M125 860c4 11.333 12.5 16.999 25.5 16.999s23.333 -4 31 -12s11.5 -14.5 11.5 -19.5s-0.666992 -9.16699 -2 -12.5c-10.667 -30 -28.5 -58.333 -53.5 -85s-44.167 -40 -57.5 -40s-23.333 3.33301 -30 10s-10 14.5 -10 23.5s5.33301 17.833 16 26.5
c35.333 28.667 58.333 59.334 69 92.001zM135 645.999c13.333 0 21.668 -7.66797 25.001 -23.001c0.666992 -77.333 2 -193 4 -347c0 -94 -2.66699 -173.667 -8 -239c-1.33301 -10 -7.5 -18.833 -18.5 -26.5s-22.167 -11.5 -33.5 -11.5c-18.667 0 -28 9.66699 -28 29
c6.66699 66.667 10 149.334 10 248.001l-6 336c2.66699 9.33301 9.16699 17.333 19.5 24s22.166 10 35.499 10z" />
    <glyph glyph-name="Icircumflex" unicode="&#xce;" horiz-adv-x="235" 
d="M49 812c34 26.667 58.498 40 73.498 40s38.833 -12.5 71.5 -37.5s49 -45.167 49 -60.5c0 -9.33301 -4 -17.333 -12 -24s-14.5 -10 -19.5 -10s-19.833 10.667 -44.5 32s-40 32 -46 32s-20.167 -11 -42.5 -33s-38.166 -33 -47.499 -33s-17.166 3.83301 -23.499 11.5
s-9.5 16.667 -9.5 27s17 28.833 51 55.5zM134.998 646c13.333 0 21.668 -7.66797 25.001 -23.001c0.666992 -77.333 2 -193 4 -347c0 -94 -2.66699 -173.667 -8 -239c-1.33301 -10 -7.5 -18.833 -18.5 -26.5s-22.167 -11.5 -33.5 -11.5c-18.667 0 -28 9.66699 -28 29
c6.66699 66.667 10 149.334 10 248.001l-6 336c2.66699 9.33301 9.16699 17.333 19.5 24s22.166 10 35.499 10z" />
    <glyph glyph-name="Idieresis" unicode="&#xcf;" horiz-adv-x="235" 
d="M30 712c-25.333 0 -40.333 12.999 -45 38.999c0 15.333 5.66699 28.833 17 40.5s23.833 17.5 37.5 17.5s24.5 -4.66699 32.5 -14s12.333 -22 13 -38c-2 -13.333 -8.16699 -24.166 -18.5 -32.499s-22.5 -12.5 -36.5 -12.5zM210 807.999c12 0 22.167 -3.49902 30.5 -10.499
s12.833 -16.5 13.5 -28.5c-2 -16.667 -8 -29.834 -18 -39.501s-21.5 -14.5 -34.5 -14.5s-23.833 4.5 -32.5 13.5s-13 20.5 -13 34.5c0 30 18 45 54 45zM135 646c13.333 0 21.668 -7.66797 25.001 -23.001c0.666992 -77.333 2 -193 4 -347c0 -94 -2.66699 -173.667 -8 -239
c-1.33301 -10 -7.5 -18.833 -18.5 -26.5s-22.167 -11.5 -33.5 -11.5c-18.667 0 -28 9.66699 -28 29c6.66699 66.667 10 149.334 10 248.001l-6 336c2.66699 9.33301 9.16699 17.333 19.5 24s22.166 10 35.499 10z" />
    <glyph glyph-name="Eth" unicode="&#xd0;" horiz-adv-x="589" 
d="M127 79c-8.66699 66.667 -14.667 145.999 -18 237.999h-37c-24 3.33301 -36 16 -36 38c0 10 3.33301 18.5 10 25.5s15.667 10.833 27 11.5h36c0 112.667 1.33301 190.334 4 233.001c5.33301 17.333 17.333 29 36 35c8 1.33301 14.667 2 20 2s9 -0.333008 11 -1
c95.333 -26.667 178.333 -78.167 249 -154.5s107.667 -167.833 111 -274.5c0 -117.333 -48.667 -191 -146 -221c-28 -8.66699 -57.5 -13 -88.5 -13s-58.167 2.33301 -81.5 7c2.66699 -5.33301 4 -12.5 4 -21.5s-5.5 -17.667 -16.5 -26s-24 -12.5 -39 -12.5s-24.5 9 -28.5 27
l-13 60c-10 6.66699 -15 14.667 -15 24s3.66699 17 11 23zM192 391.999l72.999 -0.00390625c20 -5.33301 30 -18.166 30 -38.499s-10.333 -32.5 -31 -36.5h-71c3.33301 -83.333 9.33301 -161.333 18 -234c16 -4.66699 43 -7 81 -7s74.5 6.33301 109.5 19
s53.5 31.334 55.5 56.001c2 18.667 3 33 3 43c0 86.667 -23.167 163.334 -69.5 230.001s-111.166 117.334 -194.499 152.001c-2.66699 -32.667 -4 -94 -4 -184z" />
    <glyph glyph-name="Ntilde" unicode="&#xd1;" horiz-adv-x="532" 
d="M160.5 806c19.667 16 38.332 23.999 55.999 23.999s31.834 -2.66699 42.501 -8s18 -11.333 22 -18c10.667 -17.333 20.334 -26 29.001 -26s18.167 8 28.5 24s20 24 29 24s16.833 -4 23.5 -12s10 -16.333 10 -25c0 -24 -9.83301 -42.333 -29.5 -55s-38.667 -19 -57 -19
s-32.5 3.83301 -42.5 11.5s-18.667 15.334 -26 23.001s-15.333 11.5 -24 11.5c-4 0 -12.333 -7.5 -25 -22.5s-23.334 -22.5 -32.001 -22.5s-16.5 4.16699 -23.5 12.5s-10.5 19.333 -10.5 33s9.83301 28.5 29.5 44.5zM448.998 661.999c10.667 0 20.333 -4.50488 29 -13.5049
s13 -19.5 13 -31.5c0 -260.667 1.16699 -418.167 3.5 -472.5s3.5 -82.166 3.5 -83.499c0 -14.667 -4 -28.5 -12 -41.5s-16.833 -19.5 -26.5 -19.5s-17 0.5 -22 1.5s-9.5 2.16699 -13.5 3.5s-8 4 -12 8l-10 10c-2.66699 2.66699 -6.16699 7.83398 -10.5 15.501l-10.5 18.5
c-2.66699 4.66699 -6.83398 12.834 -12.501 24.501s-18 35.5 -37 71.5l-51.5 97c-52.667 96.667 -101.667 173 -147 229c0 -216.667 -6 -367 -18 -451c-2 -16 -14.333 -24 -37 -24c-10.667 0 -19.5 2.66699 -26.5 8s-10.5 14 -10.5 26s2.5 78 7.5 198s7.5 194.833 7.5 224.5
v56.5c0 48 3.66699 75 11 81s15 9 23 9c36.667 0 92.667 -60 168 -180c14.667 -23.333 42.667 -72.166 84 -146.499s66 -120.166 74 -137.499l-12 415c0 57.333 6.33301 90 19 98c6.66699 4 15.334 6 26.001 6z" />
    <glyph glyph-name="Ograve" unicode="&#xd2;" horiz-adv-x="556" 
d="M366 711c-6 -9.33301 -13.5029 -14 -22.5029 -14s-19.667 3.33301 -32 10s-27.666 19 -45.999 37s-31.833 35.5 -40.5 52.5s-13 28.667 -13 35s0.5 12.333 1.5 18s5.33301 10.667 13 15s13.834 6.5 18.501 6.5s8.33398 -0.333008 11.001 -1
c10 -2.66699 23.667 -18.5 41 -47.5s36.333 -48.833 57 -59.5c10.667 -5.33301 16.667 -14 18 -26s-0.666992 -20.667 -6 -26zM305.997 665c46.667 0 86.3311 -14.999 118.998 -44.999c64 -57.333 96 -147.833 96 -271.5s-35.333 -220.834 -106 -291.501
c-36.667 -35.333 -79 -54.666 -127 -57.999c-63.333 0 -112.666 21.667 -147.999 65s-60.5 91.833 -75.5 145.5s-22.5 105.5 -22.5 155.5c0 85.333 20.333 155.666 61 210.999c42.667 59.333 110.334 89 203.001 89zM298.994 582.001
c-89.333 0 -144.999 -42.333 -166.999 -127c-6.66699 -22.667 -10 -51.667 -10 -87s6.66699 -76.333 20 -123c18 -62.667 44.667 -106.667 80 -132c20.667 -16 45.667 -24 75 -24s55.666 13.167 78.999 39.5s39.333 59.833 48 100.5s13 81.667 13 123
c0 73.333 -10.5 130 -31.5 170s-56.5 60 -106.5 60z" />
    <glyph glyph-name="Oacute" unicode="&#xd3;" horiz-adv-x="556" 
d="M299 860c4 11.333 12.5 16.999 25.5 16.999s23.333 -4 31 -12s11.5 -14.5 11.5 -19.5s-0.666992 -9.16699 -2 -12.5c-10.667 -30 -28.5 -58.333 -53.5 -85s-44.167 -40 -57.5 -40s-23.333 3.33301 -30 10s-10 14.5 -10 23.5s5.33301 17.833 16 26.5
c35.333 28.667 58.333 59.334 69 92.001zM306 664.999c46.667 0 86.3311 -14.999 118.998 -44.999c64 -57.333 96 -147.833 96 -271.5s-35.333 -220.834 -106 -291.501c-36.667 -35.333 -79 -54.666 -127 -57.999c-63.333 0 -112.666 21.667 -147.999 65
s-60.5 91.833 -75.5 145.5s-22.5 105.5 -22.5 155.5c0 85.333 20.333 155.666 61 210.999c42.667 59.333 110.334 89 203.001 89zM298.997 582c-89.333 0 -144.999 -42.333 -166.999 -127c-6.66699 -22.667 -10 -51.667 -10 -87s6.66699 -76.333 20 -123
c18 -62.667 44.667 -106.667 80 -132c20.667 -16 45.667 -24 75 -24s55.666 13.167 78.999 39.5s39.333 59.833 48 100.5s13 81.667 13 123c0 73.333 -10.5 130 -31.5 170s-56.5 60 -106.5 60z" />
    <glyph glyph-name="Ocircumflex" unicode="&#xd4;" horiz-adv-x="556" 
d="M223 812c34 26.667 58.498 40 73.498 40s38.833 -12.5 71.5 -37.5s49 -45.167 49 -60.5c0 -9.33301 -4 -17.333 -12 -24s-14.5 -10 -19.5 -10s-19.833 10.667 -44.5 32s-40 32 -46 32s-20.167 -11 -42.5 -33s-38.166 -33 -47.499 -33s-17.166 3.83301 -23.499 11.5
s-9.5 16.667 -9.5 27s17 28.833 51 55.5zM305.998 665c46.667 0 86.3311 -14.999 118.998 -44.999c64 -57.333 96 -147.833 96 -271.5s-35.333 -220.834 -106 -291.501c-36.667 -35.333 -79 -54.666 -127 -57.999c-63.333 0 -112.666 21.667 -147.999 65
s-60.5 91.833 -75.5 145.5s-22.5 105.5 -22.5 155.5c0 85.333 20.333 155.666 61 210.999c42.667 59.333 110.334 89 203.001 89zM298.995 582.001c-89.333 0 -144.999 -42.333 -166.999 -127c-6.66699 -22.667 -10 -51.667 -10 -87s6.66699 -76.333 20 -123
c18 -62.667 44.667 -106.667 80 -132c20.667 -16 45.667 -24 75 -24s55.666 13.167 78.999 39.5s39.333 59.833 48 100.5s13 81.667 13 123c0 73.333 -10.5 130 -31.5 170s-56.5 60 -106.5 60z" />
    <glyph glyph-name="Otilde" unicode="&#xd5;" horiz-adv-x="556" 
d="M186.5 806c19.667 16 38.332 23.999 55.999 23.999s31.834 -2.66699 42.501 -8s18 -11.333 22 -18c10.667 -17.333 20.334 -26 29.001 -26s18.167 8 28.5 24s20 24 29 24s16.833 -4 23.5 -12s10 -16.333 10 -25c0 -24 -9.83301 -42.333 -29.5 -55s-38.667 -19 -57 -19
s-32.5 3.83301 -42.5 11.5s-18.667 15.334 -26 23.001s-15.333 11.5 -24 11.5c-4 0 -12.333 -7.5 -25 -22.5s-23.334 -22.5 -32.001 -22.5s-16.5 4.16699 -23.5 12.5s-10.5 19.333 -10.5 33s9.83301 28.5 29.5 44.5zM305.998 664.999
c46.667 0 86.3311 -14.999 118.998 -44.999c64 -57.333 96 -147.833 96 -271.5s-35.333 -220.834 -106 -291.501c-36.667 -35.333 -79 -54.666 -127 -57.999c-63.333 0 -112.666 21.667 -147.999 65s-60.5 91.833 -75.5 145.5s-22.5 105.5 -22.5 155.5
c0 85.333 20.333 155.666 61 210.999c42.667 59.333 110.334 89 203.001 89zM298.995 582c-89.333 0 -144.999 -42.333 -166.999 -127c-6.66699 -22.667 -10 -51.667 -10 -87s6.66699 -76.333 20 -123c18 -62.667 44.667 -106.667 80 -132c20.667 -16 45.667 -24 75 -24
s55.666 13.167 78.999 39.5s39.333 59.833 48 100.5s13 81.667 13 123c0 73.333 -10.5 130 -31.5 170s-56.5 60 -106.5 60z" />
    <glyph glyph-name="Odieresis" unicode="&#xd6;" horiz-adv-x="556" 
d="M204 712c-25.333 0 -40.333 12.999 -45 38.999c0 15.333 5.66699 28.833 17 40.5s23.833 17.5 37.5 17.5s24.5 -4.66699 32.5 -14s12.333 -22 13 -38c-2 -13.333 -8.16699 -24.166 -18.5 -32.499s-22.5 -12.5 -36.5 -12.5zM384 807.999
c12 0 22.167 -3.49902 30.5 -10.499s12.833 -16.5 13.5 -28.5c-2 -16.667 -8 -29.834 -18 -39.501s-21.5 -14.5 -34.5 -14.5s-23.833 4.5 -32.5 13.5s-13 20.5 -13 34.5c0 30 18 45 54 45zM306 665c46.667 0 86.3311 -14.999 118.998 -44.999
c64 -57.333 96 -147.833 96 -271.5s-35.333 -220.834 -106 -291.501c-36.667 -35.333 -79 -54.666 -127 -57.999c-63.333 0 -112.666 21.667 -147.999 65s-60.5 91.833 -75.5 145.5s-22.5 105.5 -22.5 155.5c0 85.333 20.333 155.666 61 210.999
c42.667 59.333 110.334 89 203.001 89zM298.997 582.001c-89.333 0 -144.999 -42.333 -166.999 -127c-6.66699 -22.667 -10 -51.667 -10 -87s6.66699 -76.333 20 -123c18 -62.667 44.667 -106.667 80 -132c20.667 -16 45.667 -24 75 -24s55.666 13.167 78.999 39.5
s39.333 59.833 48 100.5s13 81.667 13 123c0 73.333 -10.5 130 -31.5 170s-56.5 60 -106.5 60z" />
    <glyph glyph-name="multiply" unicode="&#xd7;" horiz-adv-x="490" 
d="M338 326c-26.667 -22 -47.002 -41.334 -61.002 -58.001c11.333 -12 28 -27.5 50 -46.5s34.833 -30.333 38.5 -34s11.5 -10.5 23.5 -20.5c23.333 -18 35 -36.333 35 -55s-14 -28 -42 -28c-6.66699 0 -13.667 3.66699 -21 11
c-25.333 22.667 -65.666 63.334 -120.999 122.001l-12 -15c-63.333 -78 -105.666 -117 -126.999 -117c-10 0 -18.167 3.33301 -24.5 10s-9.5 14.667 -9.5 24s8.66699 24.333 26 45c19.333 21.333 40.666 43.166 63.999 65.499s35.333 34.166 36 35.499
c-64.667 63.333 -103 104.333 -115 123s-18 32 -18 40s3.16699 15.333 9.5 22s13.833 10 22.5 10s21.334 -8.16699 38.001 -24.5s34.5 -35.666 53.5 -57.999l55.5 -64.5l42 46c30 34 54.667 59 74 75c26 18 40 27 42 27h11c11.333 0 17 -10.667 17 -32
s-29 -55.666 -87 -102.999z" />
    <glyph glyph-name="Oslash" unicode="&#xd8;" horiz-adv-x="568" 
d="M191 26c-7.33301 -20.667 -17.668 -31 -31.001 -31c-5.33301 0 -10 1.66699 -14 5c-14.667 6 -22 13.667 -22 23s4.66699 23.666 14 42.999c-64 69.333 -96 170 -96 302c0 85.333 20.333 155.333 61 210c19.333 27.333 46.333 49 81 65s69.5 24 104.5 24
s64.5 -5.33301 88.5 -16c8.66699 25.333 17.667 41 27 47c4.66699 2 9.83398 3 15.501 3s12.167 -2 19.5 -6c12 -4 18 -11.167 18 -21.5s-6.66699 -30.833 -20 -61.5c56 -57.333 84 -143.666 84 -258.999c0 -56.667 -9 -111.167 -27 -163.5s-44.833 -96 -80.5 -131
s-77.5 -54.167 -125.5 -57.5c-36.667 0 -69 8.33301 -97 25zM346.998 576c-18 5.33301 -38.667 8 -62 8s-46.5 -5.5 -69.5 -16.5s-41.167 -26.167 -54.5 -45.5c-26 -38 -39 -86 -39 -144c0 -82 19 -153.333 57 -214zM226.998 112c18.667 -14 42.5 -21 71.5 -21
s55 13.167 78 39.5s38.833 59.833 47.5 100.5s13 86 13 136c0 72.667 -12 126.667 -36 162z" />
    <glyph glyph-name="Ugrave" unicode="&#xd9;" horiz-adv-x="550" 
d="M345 711c-6 -9.33301 -13.5029 -14 -22.5029 -14s-19.667 3.33301 -32 10s-27.666 19 -45.999 37s-32 35.5 -41 52.5s-13.5 28.667 -13.5 35s0.666992 12.333 2 18s5.83301 10.667 13.5 15s13.834 6.5 18.501 6.5s8.33398 -0.333008 11.001 -1
c10 -2.66699 23.667 -18.5 41 -47.5s36.333 -48.833 57 -59.5c10.667 -5.33301 16.667 -14 18 -26s-0.666992 -20.667 -6 -26zM463.997 666c11.333 0 21.0029 -5.66602 29.0029 -16.999c11.333 -58 17 -123 17 -195v-76c0 -57.333 -1 -91.166 -3 -101.499
s-4 -21.833 -6 -34.5s-3.83301 -22.334 -5.5 -29.001s-4.16699 -15.667 -7.5 -27c-7.33301 -24.667 -17.666 -46.667 -30.999 -66c-20 -37.333 -46.333 -66.666 -79 -87.999s-65.834 -32 -99.501 -32s-68.334 14.667 -104.001 44s-64.834 66 -87.501 110
c-34.667 68 -52 146.333 -52 235c0 31.333 4.66699 105.666 14 222.999c4.66699 10.667 11.834 20.167 21.501 28.5s19.5 12.5 29.5 12.5c14.667 0 23.667 -10 27 -30c-9.33301 -115.333 -14 -188.333 -14 -219c0 -73.333 14.333 -138.333 43 -195
c18 -37.333 40.167 -68.5 66.5 -93.5s52.166 -37.5 77.499 -37.5c42 0 78 32.667 108 98c12.667 22.667 19.667 59 21 109c0 13.333 0.666992 22.666 2 27.999l2 132c0 61.333 -4.66699 117.333 -14 168c0 14 4.66699 26.333 14 37s19.666 16 30.999 16z" />
    <glyph glyph-name="Uacute" unicode="&#xda;" horiz-adv-x="550" 
d="M278 860c4 11.333 12.5 16.999 25.5 16.999s23.333 -4 31 -12s11.5 -14.5 11.5 -19.5s-0.666992 -9.16699 -2 -12.5c-10.667 -30 -28.5 -58.333 -53.5 -85s-44.167 -40 -57.5 -40s-23.333 3.33301 -30 10s-10 14.5 -10 23.5s5 17.833 15 26.5
c36 28.667 59.333 59.334 70 92.001zM464 665.999c11.333 0 21.0029 -5.66602 29.0029 -16.999c11.333 -58 17 -123 17 -195v-76c0 -57.333 -1 -91.166 -3 -101.499s-4 -21.833 -6 -34.5s-3.83301 -22.334 -5.5 -29.001s-4.16699 -15.667 -7.5 -27
c-7.33301 -24.667 -17.666 -46.667 -30.999 -66c-20 -37.333 -46.333 -66.666 -79 -87.999s-65.834 -32 -99.501 -32s-68.334 14.667 -104.001 44s-64.834 66 -87.501 110c-34.667 68 -52 146.333 -52 235c0 31.333 4.66699 105.666 14 222.999
c4.66699 10.667 11.834 20.167 21.501 28.5s19.5 12.5 29.5 12.5c14.667 0 23.667 -10 27 -30c-9.33301 -115.333 -14 -188.333 -14 -219c0 -73.333 14.333 -138.333 43 -195c18 -37.333 40.167 -68.5 66.5 -93.5s52.166 -37.5 77.499 -37.5c42 0 78 32.667 108 98
c12.667 22.667 19.667 59 21 109c0 13.333 0.666992 22.666 2 27.999l2 132c0 61.333 -4.66699 117.333 -14 168c0 14 4.66699 26.333 14 37s19.666 16 30.999 16z" />
    <glyph glyph-name="Ucircumflex" unicode="&#xdb;" horiz-adv-x="550" 
d="M202 812c34 26.667 58.4971 40 73.4971 40s38.833 -12.5 71.5 -37.5s49 -45.167 49 -60.5c0 -9.33301 -4 -17.333 -12 -24s-14.667 -10 -20 -10s-20 10.667 -44 32s-39.167 32 -45.5 32s-20.666 -11 -42.999 -33s-38.166 -33 -47.499 -33s-17.166 3.83301 -23.499 11.5
s-9.5 16.667 -9.5 27s17 28.833 51 55.5zM463.997 666c11.333 0 21.0029 -5.66602 29.0029 -16.999c11.333 -58 17 -123 17 -195v-76c0 -57.333 -1 -91.166 -3 -101.499s-4 -21.833 -6 -34.5s-3.83301 -22.334 -5.5 -29.001s-4.16699 -15.667 -7.5 -27
c-7.33301 -24.667 -17.666 -46.667 -30.999 -66c-20 -37.333 -46.333 -66.666 -79 -87.999s-65.834 -32 -99.501 -32s-68.334 14.667 -104.001 44s-64.834 66 -87.501 110c-34.667 68 -52 146.333 -52 235c0 31.333 4.66699 105.666 14 222.999
c4.66699 10.667 11.834 20.167 21.501 28.5s19.5 12.5 29.5 12.5c14.667 0 23.667 -10 27 -30c-9.33301 -115.333 -14 -188.333 -14 -219c0 -73.333 14.333 -138.333 43 -195c18 -37.333 40.167 -68.5 66.5 -93.5s52.166 -37.5 77.499 -37.5c42 0 78 32.667 108 98
c12.667 22.667 19.667 59 21 109c0 13.333 0.666992 22.666 2 27.999l2 132c0 61.333 -4.66699 117.333 -14 168c0 14 4.66699 26.333 14 37s19.666 16 30.999 16z" />
    <glyph glyph-name="Udieresis" unicode="&#xdc;" horiz-adv-x="550" 
d="M183 712c-24.667 0 -39.667 12.999 -45 38.999c0 15.333 5.66699 28.833 17 40.5s23.833 17.5 37.5 17.5s24.5 -4.66699 32.5 -14s12.333 -22 13 -38c-2 -13.333 -8.16699 -24.166 -18.5 -32.499s-22.5 -12.5 -36.5 -12.5zM363 807.999
c12 0 22.167 -3.49902 30.5 -10.499s12.833 -16.5 13.5 -28.5c-2 -16.667 -8 -29.834 -18 -39.501s-21.5 -14.5 -34.5 -14.5s-23.833 4.5 -32.5 13.5s-13 20.5 -13 34.5c0 30 18 45 54 45zM464 666c11.333 0 21.0029 -5.66602 29.0029 -16.999c11.333 -58 17 -123 17 -195
v-76c0 -57.333 -1 -91.166 -3 -101.499s-4 -21.833 -6 -34.5s-3.83301 -22.334 -5.5 -29.001s-4.16699 -15.667 -7.5 -27c-7.33301 -24.667 -17.666 -46.667 -30.999 -66c-20 -37.333 -46.333 -66.666 -79 -87.999s-65.834 -32 -99.501 -32s-68.334 14.667 -104.001 44
s-64.834 66 -87.501 110c-34.667 68 -52 146.333 -52 235c0 31.333 4.66699 105.666 14 222.999c4.66699 10.667 11.834 20.167 21.501 28.5s19.5 12.5 29.5 12.5c14.667 0 23.667 -10 27 -30c-9.33301 -115.333 -14 -188.333 -14 -219c0 -73.333 14.333 -138.333 43 -195
c18 -37.333 40.167 -68.5 66.5 -93.5s52.166 -37.5 77.499 -37.5c42 0 78 32.667 108 98c12.667 22.667 19.667 59 21 109c0 13.333 0.666992 22.666 2 27.999l2 132c0 61.333 -4.66699 117.333 -14 168c0 14 4.66699 26.333 14 37s19.666 16 30.999 16z" />
    <glyph glyph-name="Yacute" unicode="&#xdd;" horiz-adv-x="442" 
d="M228 860c4 11.333 12.5 16.999 25.5 16.999s23.333 -4 31 -12s11.5 -14.5 11.5 -19.5s-0.666992 -9.16699 -2 -12.5c-10.667 -30 -28.5 -58.333 -53.5 -85s-44.167 -40 -57.5 -40s-23.333 3.33301 -30 10s-10 14.5 -10 23.5s5 17.833 15 26.5
c36 28.667 59.333 59.334 70 92.001zM178 241.999l1 50.998c0 17.333 -5.5 34.333 -16.5 51s-37.5 65 -79.5 145s-63 125.167 -63 135.5s4.33301 19.666 13 27.999s17.167 12.5 25.5 12.5s18.333 -7.66699 30 -23s34.667 -55.666 69 -120.999s54.166 -101.333 59.499 -108
c64 113.333 115.333 193.333 154 240c9.33301 8.66699 16.833 13 22.5 13s9.83398 -0.666992 12.501 -2c16 -6.66699 24 -15.5 24 -26.5s-2.66699 -20.5 -8 -28.5l-44 -63c-35.333 -49.333 -65.833 -99.166 -91.5 -149.499s-38.5 -81.166 -38.5 -92.499v-183l3 -80
c0 -14.667 -4 -24.834 -12 -30.501s-17.833 -8.5 -29.5 -8.5s-19.5 6.33301 -23.5 19s-6.33301 29.334 -7 50.001s-1 51 -1 91v80z" />
    <glyph glyph-name="Thorn" unicode="&#xde;" horiz-adv-x="492" 
d="M60 35v597c7.33301 23.333 22.333 35 45 35c12 0 22.667 -7.66699 32 -23v-56c16 2.66699 39 4 69 4s65 -5.83301 105 -17.5s72 -32 96 -61s36 -66.167 36 -111.5c0 -121.333 -85.333 -182 -256 -182c-26 0 -42.667 0.333008 -50 1v-174c-2 -12 -8 -22.833 -18 -32.5
s-20 -14.5 -30 -14.5c-19.333 0 -29 11.667 -29 35zM175 514c-14.667 0 -27.333 -0.666992 -38 -2v-212c38 -2.66699 65.667 -4 83 -4c87.333 0 137.666 33 150.999 99c-9.33301 79.333 -74.666 119 -195.999 119z" />
    <glyph glyph-name="germandbls" unicode="&#xdf;" horiz-adv-x="800" 
d="M88.5 427.5c33.667 23 72.6699 34.5 117.003 34.5s78.666 -6 102.999 -18s36.5 -27.333 36.5 -46c0 -8.66699 -2.83301 -15.834 -8.5 -21.501s-12.334 -8.5 -20.001 -8.5s-23.334 5.33301 -47.001 16s-45.167 16 -64.5 16s-39.5 -5.33301 -60.5 -16s-31.5 -22 -31.5 -34
c0 -17.333 12.333 -31.833 37 -43.5s54.667 -21.834 90 -30.501s58.666 -16.667 69.999 -24c32.667 -19.333 49 -50.666 49 -93.999s-16.667 -80.5 -50 -111.5s-74 -46.5 -122 -46.5c-30 0 -62.167 8.5 -96.5 25.5s-51.5 32.833 -51.5 47.5
c0 9.33301 4.16699 17.5 12.5 24.5s18.166 10.5 29.499 10.5c56 -24.667 99 -37 129 -37c41.333 0 66.333 24 75 72c-0.666992 17.333 -7 32 -19 44s-24 19.5 -36 22.5s-26.167 6.33301 -42.5 10s-27.666 6.33398 -33.999 8.00098s-16.166 4.66699 -29.499 9
s-23 8.33301 -29 12s-13.5 8.66699 -22.5 15s-15.167 13.166 -18.5 20.499c-10.667 20.667 -16 40.334 -16 59.001c0 33.333 16.833 61.5 50.5 84.5zM670.003 433c32.667 -14.667 48.998 -29.332 48.998 -43.999c0 -12 -3 -22.333 -9 -31s-15.333 -10.667 -28 -6
c-65.333 25.333 -110.333 38 -135 38c-44 0 -66 -21 -66 -63c0 -17.333 6.16699 -31.333 18.5 -42s25.833 -18.167 40.5 -22.5s34.334 -9.33301 59.001 -15s44.834 -11.334 60.501 -17.001s29.667 -19.5 42 -41.5s18.5 -45.333 18.5 -70c0 -34 -17 -62.5 -51 -85.5
s-72.833 -34.5 -116.5 -34.5s-78 6 -103 18s-37.5 27.333 -37.5 46c0 8 3 15 9 21s12 9 18 9s22.5 -5.33301 49.5 -16s49.167 -16 66.5 -16s36.333 6.5 57 19.5s31 26.5 31 40.5s-6 26.5 -18 37.5s-29 18.833 -51 23.5l-49 10.5c-10.667 2.33301 -25.5 7 -44.5 14
s-32.5 14.5 -40.5 22.5c-22 22 -33 50.667 -33 86c0 56 25.667 97.667 77 125c23.333 10 52 15 86 15s67.333 -7.33301 100 -22z" />
    <glyph glyph-name="agrave" unicode="&#xe0;" horiz-adv-x="440" 
d="M298 512c-6 -9.33301 -13.5029 -14 -22.5029 -14s-19.667 3.33301 -32 10s-27.666 19 -45.999 37s-31.833 35.5 -40.5 52.5s-13 28.667 -13 35s0.5 12.333 1.5 18s5.33301 10.667 13 15s13.834 6.5 18.501 6.5s8.33398 -0.333008 11.001 -1
c10 -2.66699 23.667 -18.5 41 -47.5s36.333 -48.833 57 -59.5c10.667 -5.33301 16.667 -14 18 -26s-0.666992 -20.667 -6 -26zM109.997 27c-2.66699 -16.667 -14.5 -25 -35.5 -25s-31.5 8.66699 -31.5 26c0 39.333 19.333 119.333 58 240
c17.333 55.333 36.666 101.333 57.999 138s42 55 62 55c10.667 0 20 -6.33301 28 -19s22.5 -41.5 43.5 -86.5s38.5 -92.667 52.5 -143s29.333 -111.833 46 -184.5c0 -8.66699 -3 -15.5 -9 -20.5s-13.333 -7.5 -22 -7.5c-21.333 -0 -34.666 9.33301 -39.999 28l-35 137
c-58.667 0 -105.667 4.66699 -141 14c-20 -73.333 -31.333 -124 -34 -152zM217.997 369c-22 -37.333 -39.999 -79 -53.999 -125c29.333 -8 64 -12 104 -12c-12.667 46 -29.334 91.667 -50.001 137z" />
    <glyph glyph-name="aacute" unicode="&#xe1;" horiz-adv-x="440" 
d="M231 661c4 11.333 12.5 17 25.5 17s23.333 -4 31 -12s11.5 -14.5 11.5 -19.5s-0.666992 -9.16699 -2 -12.5c-10.667 -30 -28.5 -58.333 -53.5 -85s-44.167 -40 -57.5 -40s-23.333 3.33301 -30 10s-10 14.5 -10 23.5s5.33301 17.5 16 25.5
c35.333 29.333 58.333 60.333 69 93zM110 27c-2.66699 -16.667 -14.5 -25 -35.5 -25s-31.5 8.66699 -31.5 26c0 39.333 19.333 119.333 58 240c17.333 55.333 36.666 101.333 57.999 138s42 55 62 55c10.667 0 20 -6.33301 28 -19s22.5 -41.5 43.5 -86.5
s38.5 -92.667 52.5 -143s29.333 -111.833 46 -184.5c0 -8.66699 -3 -15.5 -9 -20.5s-13.333 -7.5 -22 -7.5c-21.333 -0 -34.666 9.33301 -39.999 28l-35 137c-58.667 0 -105.667 4.66699 -141 14c-20 -73.333 -31.333 -124 -34 -152zM218 369
c-22 -37.333 -39.999 -79 -53.999 -125c29.333 -8 64 -12 104 -12c-12.667 46 -29.334 91.667 -50.001 137z" />
    <glyph glyph-name="acircumflex" unicode="&#xe2;" horiz-adv-x="440" 
d="M155 613c34 26.667 58.498 40 73.498 40s38.833 -12.5 71.5 -37.5s49 -45.167 49 -60.5c0 -9.33301 -4 -17.333 -12 -24s-14.5 -10 -19.5 -10s-19.833 10.667 -44.5 32s-40 32 -46 32s-20.167 -11 -42.5 -33s-38.166 -33 -47.499 -33s-17.166 3.83301 -23.499 11.5
s-9.5 16.667 -9.5 27s17 28.833 51 55.5zM109.998 27c-2.66699 -16.667 -14.5 -25 -35.5 -25s-31.5 8.66699 -31.5 26c0 39.333 19.333 119.333 58 240c17.333 55.333 36.666 101.333 57.999 138s42 55 62 55c10.667 0 20 -6.33301 28 -19s22.5 -41.5 43.5 -86.5
s38.5 -92.667 52.5 -143s29.333 -111.833 46 -184.5c0 -8.66699 -3 -15.5 -9 -20.5s-13.333 -7.5 -22 -7.5c-21.333 -0 -34.666 9.33301 -39.999 28l-35 137c-58.667 0 -105.667 4.66699 -141 14c-20 -73.333 -31.333 -124 -34 -152zM217.998 369
c-22 -37.333 -39.999 -79 -53.999 -125c29.333 -8 64 -12 104 -12c-12.667 46 -29.334 91.667 -50.001 137z" />
    <glyph glyph-name="atilde" unicode="&#xe3;" horiz-adv-x="440" 
d="M118.5 607c19.667 16 38.332 23.999 55.999 23.999s31.834 -2.66699 42.501 -8s18 -11.333 22 -18c10.667 -17.333 20.334 -26 29.001 -26s18.167 8 28.5 24s20 24 29 24s16.833 -4 23.5 -12s10 -16.333 10 -25c0 -24 -9.83301 -42.333 -29.5 -55s-38.667 -19 -57 -19
s-32.5 3.83301 -42.5 11.5s-18.667 15.334 -26 23.001s-15.333 11.5 -24 11.5c-4 0 -12.333 -7.5 -25 -22.5s-23.334 -22.5 -32.001 -22.5s-16.5 4.16699 -23.5 12.5s-10.5 19.333 -10.5 33s9.83301 28.5 29.5 44.5zM109.998 26.999c-2.66699 -16.667 -14.5 -25 -35.5 -25
s-31.5 8.66699 -31.5 26c0 39.333 19.333 119.333 58 240c17.333 55.333 36.666 101.333 57.999 138s42 55 62 55c10.667 0 20 -6.33301 28 -19s22.5 -41.5 43.5 -86.5s38.5 -92.667 52.5 -143s29.333 -111.833 46 -184.5c0 -8.66699 -3 -15.5 -9 -20.5
s-13.333 -7.5 -22 -7.5c-21.333 0 -34.666 9.33301 -39.999 28l-35 137c-58.667 0 -105.667 4.66699 -141 14c-20 -73.333 -31.333 -124 -34 -152zM217.998 368.999c-22 -37.333 -39.999 -79 -53.999 -125c29.333 -8 64 -12 104 -12c-12.667 46 -29.334 91.667 -50.001 137z
" />
    <glyph glyph-name="adieresis" unicode="&#xe4;" horiz-adv-x="440" 
d="M136 513c-25.333 0 -40.333 12.999 -45 38.999c0 15.333 5.66699 28.833 17 40.5s23.833 17.5 37.5 17.5s24.5 -4.66699 32.5 -14s12.333 -22 13 -38c-2 -13.333 -8.16699 -24.166 -18.5 -32.499s-22.5 -12.5 -36.5 -12.5zM316 608.999
c12 0 22.167 -3.49902 30.5 -10.499s12.833 -16.5 13.5 -28.5c-2 -16.667 -8 -29.834 -18 -39.501s-21.5 -14.5 -34.5 -14.5s-23.833 4.5 -32.5 13.5s-13 20.5 -13 34.5c0 30 18 45 54 45zM110 27c-2.66699 -16.667 -14.5 -25 -35.5 -25s-31.5 8.66699 -31.5 26
c0 39.333 19.333 119.333 58 240c17.333 55.333 36.666 101.333 57.999 138s42 55 62 55c10.667 0 20 -6.33301 28 -19s22.5 -41.5 43.5 -86.5s38.5 -92.667 52.5 -143s29.333 -111.833 46 -184.5c0 -8.66699 -3 -15.5 -9 -20.5s-13.333 -7.5 -22 -7.5
c-21.333 -0 -34.666 9.33301 -39.999 28l-35 137c-58.667 0 -105.667 4.66699 -141 14c-20 -73.333 -31.333 -124 -34 -152zM218 369c-22 -37.333 -39.999 -79 -53.999 -125c29.333 -8 64 -12 104 -12c-12.667 46 -29.334 91.667 -50.001 137z" />
    <glyph glyph-name="aring" unicode="&#xe5;" horiz-adv-x="440" 
d="M164.5 637c19 16 41.001 24 66.001 24s44.333 -8 58 -24s20.5 -36.333 20.5 -61c0 -26 -8.66699 -46.667 -26 -62s-37.833 -23 -61.5 -23s-43.834 9 -60.501 27s-25 38.333 -25 61s9.5 42 28.5 58zM228.001 611c-8.66699 0 -16.333 -3 -23 -9s-10 -13.333 -10 -22
c0 -18.667 8.66699 -28 26 -28c21.333 0 32 9.83301 32 29.5s-8.33301 29.5 -25 29.5zM110.002 27c-2.66699 -16.667 -14.5 -25 -35.5 -25s-31.5 8.66699 -31.5 26c0 39.333 19.333 119.333 58 240c17.333 55.333 36.666 101.333 57.999 138s42 55 62 55
c10.667 0 20 -6.33301 28 -19s22.5 -41.5 43.5 -86.5s38.5 -92.667 52.5 -143s29.333 -111.833 46 -184.5c0 -8.66699 -3 -15.5 -9 -20.5s-13.333 -7.5 -22 -7.5c-21.333 -0 -34.666 9.33301 -39.999 28l-35 137c-58.667 0 -105.667 4.66699 -141 14
c-20 -73.333 -31.333 -124 -34 -152zM218.002 369c-22 -37.333 -39.999 -79 -53.999 -125c29.333 -8 64 -12 104 -12c-12.667 46 -29.334 91.667 -50.001 137z" />
    <glyph glyph-name="ae" unicode="&#xe6;" horiz-adv-x="600" 
d="M351 272l77.001 -1.00195c50.667 0 76 -10.333 76 -31c0 -7.33301 -3.5 -14.666 -10.5 -21.999s-15.167 -12 -24.5 -14h-116l4 -138l142 4c20 -2 30 -11.167 30 -27.5s-3 -28 -9 -35s-16 -10.5 -30 -10.5l-159 2c-34.667 0 -52.667 9.66699 -54 29v176
c-34 -0.666992 -61 -1 -81 -1s-33.333 0.333008 -40 1c-5.33301 -17.333 -16.333 -78.666 -33 -183.999c-0.666992 -5.33301 -4.33398 -10 -11.001 -14s-14 -6 -22 -6c-21.333 0 -32 8.66699 -32 26c0 23.333 2.66699 55.333 8 96c15.333 118.667 55 210 119 274
c40.667 42.667 87 64 139 64l180 -3c22 0 33 -9.66699 33 -29c0 -8.66699 -3.66699 -17 -11 -25s-16.333 -12.333 -27 -13h-44h-16l-91 2c0 -68 1 -108 3 -120zM177.001 271.998c26 -2.66699 46.834 -4.00098 62.501 -4.00098s28.167 0.666992 37.5 2
c0 43.333 -1.33301 83 -4 119c-8.66699 -3.33301 -23.334 -17.166 -44.001 -41.499s-38 -49.5 -52 -75.5z" />
    <glyph glyph-name="ccedilla" unicode="&#xe7;" 
d="M271 -21l33.0049 4c14.667 0 26.667 -2.66699 36 -8c14 -8 23.333 -24.333 28 -49c2 -10.667 3 -20.334 3 -29.001c0 -22 -8.33301 -41.333 -25 -58s-40.5 -25 -71.5 -25s-56 4.33301 -75 13s-28.5 18.667 -28.5 30s2.66699 20.333 8 27s10.666 10 15.999 10
s16.333 -4.33301 33 -13s31.667 -13 45 -13s24.166 3.33301 32.499 10s12.5 13.334 12.5 20.001c0 19.333 -5 30.666 -15 33.999c-2.66699 0.666992 -8 1 -16 1s-20 -0.666992 -36 -2c-30 0 -45 17.667 -45 53l1 17h-10c-22.667 0 -45 7.33301 -67 22s-39.333 33.667 -52 57
c-26 46 -39 95.333 -39 148c0 70.667 21.333 126.667 64 168s97.334 62 164.001 62c39.333 0 77.666 -6.66699 114.999 -20c12 -7.33301 18 -15.666 18 -24.999s-4.83301 -17.833 -14.5 -25.5s-19.167 -11.5 -28.5 -11.5l-81 10c-108 0 -162 -54 -162 -162
c0 -54.667 16.333 -98 49 -130c16 -16.667 32.667 -25 50 -25s47.666 7.66699 90.999 23s66.666 23 69.999 23c18 0 27 -8.33301 27 -25c0 -14 -7.66699 -26 -23 -36c-48.667 -20.667 -86.334 -35 -113.001 -43c-0.666992 -5.33301 -1 -12 -1 -20s2.33301 -12 7 -12z" />
    <glyph glyph-name="egrave" unicode="&#xe8;" horiz-adv-x="380" 
d="M259 511c-6 -9.33301 -13.5029 -14 -22.5029 -14s-19.667 3.33301 -32 10s-27.666 19 -45.999 37s-32 35.5 -41 52.5s-13.5 28.667 -13.5 35s0.666992 12.333 2 18s5.83301 10.667 13.5 15s13.834 6.5 18.501 6.5s8.33398 -0.333008 11.001 -1
c10 -2.66699 23.667 -18.5 41 -47.5s36.333 -48.833 57 -59.5c10.667 -5.33301 16.667 -14 18 -26s-0.666992 -20.667 -6 -26zM120.997 225l2.00293 -130.999c0 -17.333 -0.333008 -26.666 -1 -27.999l173 3c19.333 -2 29 -10.333 29 -25c0 -28 -13 -42 -39 -42l-196 -2
c-12 0 -20.833 4.16699 -26.5 12.5s-8.83398 17.166 -9.50098 26.499s-1 19.666 -1 30.999v166c-8.66699 4.66699 -13 11.667 -13 21s3.66699 17.666 11 24.999c-2 52 -3 99.333 -3 142c0 24.667 15 37.334 45 38.001h28l175 -3h1c21.333 -2.66699 32 -12.667 32 -30
c0 -13.333 -4 -22.333 -12 -27c-17.333 -9.33301 -59 -14 -125 -14c-24.667 0 -49.334 1 -74.001 3c0 -60 0.333008 -93.667 1 -101c26 -0.666992 77 -1 153 -1c20.667 -2.66699 31 -12 31 -28c0 -8 -3.33301 -15.667 -10 -23s-13.834 -11.5 -21.501 -12.5
s-24 -1.5 -49 -1.5s-58.5 0.333008 -100.5 1z" />
    <glyph glyph-name="eacute" unicode="&#xe9;" horiz-adv-x="380" 
d="M192 660c4 11.333 12.5 16.999 25.5 16.999s23.333 -4 31 -12s11.5 -14.5 11.5 -19.5s-0.666992 -9.16699 -2 -12.5c-10.667 -30 -28.5 -58.333 -53.5 -85s-44.167 -40 -57.5 -40s-23.333 3.33301 -30 10s-10 14.5 -10 23.5s5 17.833 15 26.5
c36 28.667 59.333 59.334 70 92.001zM121 224.999l2.00293 -130.999c0 -17.333 -0.333008 -26.666 -1 -27.999l173 3c19.333 -2 29 -10.333 29 -25c0 -28 -13 -42 -39 -42l-196 -2c-12 0 -20.833 4.16699 -26.5 12.5s-8.83398 17.166 -9.50098 26.499s-1 19.666 -1 30.999
v166c-8.66699 4.66699 -13 11.667 -13 21s3.66699 17.666 11 24.999c-2 52 -3 99.333 -3 142c0 24.667 15 37.334 45 38.001h28l175 -3h1c21.333 -2.66699 32 -12.667 32 -30c0 -13.333 -4 -22.333 -12 -27c-17.333 -9.33301 -59 -14 -125 -14
c-24.667 0 -49.334 1 -74.001 3c0 -60 0.333008 -93.667 1 -101c26 -0.666992 77 -1 153 -1c20.667 -2.66699 31 -12 31 -28c0 -8 -3.33301 -15.667 -10 -23s-13.834 -11.5 -21.501 -12.5s-24 -1.5 -49 -1.5s-58.5 0.333008 -100.5 1z" />
    <glyph glyph-name="ecircumflex" unicode="&#xea;" horiz-adv-x="380" 
d="M116 612c34 26.667 58.4971 40 73.4971 40s38.833 -12.5 71.5 -37.5s49 -45.167 49 -60.5c0 -9.33301 -4 -17.333 -12 -24s-14.667 -10 -20 -10s-20 10.667 -44 32s-39.167 32 -45.5 32s-20.666 -11 -42.999 -33s-38.166 -33 -47.499 -33s-17.166 3.83301 -23.499 11.5
s-9.5 16.667 -9.5 27s17 28.833 51 55.5zM120.997 225l2.00293 -130.999c0 -17.333 -0.333008 -26.666 -1 -27.999l173 3c19.333 -2 29 -10.333 29 -25c0 -28 -13 -42 -39 -42l-196 -2c-12 0 -20.833 4.16699 -26.5 12.5s-8.83398 17.166 -9.50098 26.499
s-1 19.666 -1 30.999v166c-8.66699 4.66699 -13 11.667 -13 21s3.66699 17.666 11 24.999c-2 52 -3 99.333 -3 142c0 24.667 15 37.334 45 38.001h28l175 -3h1c21.333 -2.66699 32 -12.667 32 -30c0 -13.333 -4 -22.333 -12 -27c-17.333 -9.33301 -59 -14 -125 -14
c-24.667 0 -49.334 1 -74.001 3c0 -60 0.333008 -93.667 1 -101c26 -0.666992 77 -1 153 -1c20.667 -2.66699 31 -12 31 -28c0 -8 -3.33301 -15.667 -10 -23s-13.834 -11.5 -21.501 -12.5s-24 -1.5 -49 -1.5s-58.5 0.333008 -100.5 1z" />
    <glyph glyph-name="edieresis" unicode="&#xeb;" horiz-adv-x="380" 
d="M97 512c-24.667 0 -39.667 12.999 -45 38.999c0 15.333 5.66699 28.833 17 40.5s23.833 17.5 37.5 17.5s24.5 -4.66699 32.5 -14s12.333 -22 13 -38c-2 -13.333 -8.16699 -24.166 -18.5 -32.499s-22.5 -12.5 -36.5 -12.5zM277 607.999c12 0 22.167 -3.49902 30.5 -10.499
s12.833 -16.5 13.5 -28.5c-2 -16.667 -8 -29.834 -18 -39.501s-21.5 -14.5 -34.5 -14.5s-23.833 4.5 -32.5 13.5s-13 20.5 -13 34.5c0 30 18 45 54 45zM121 225l2.00293 -130.999c0 -17.333 -0.333008 -26.666 -1 -27.999l173 3c19.333 -2 29 -10.333 29 -25
c0 -28 -13 -42 -39 -42l-196 -2c-12 0 -20.833 4.16699 -26.5 12.5s-8.83398 17.166 -9.50098 26.499s-1 19.666 -1 30.999v166c-8.66699 4.66699 -13 11.667 -13 21s3.66699 17.666 11 24.999c-2 52 -3 99.333 -3 142c0 24.667 15 37.334 45 38.001h28l175 -3h1
c21.333 -2.66699 32 -12.667 32 -30c0 -13.333 -4 -22.333 -12 -27c-17.333 -9.33301 -59 -14 -125 -14c-24.667 0 -49.334 1 -74.001 3c0 -60 0.333008 -93.667 1 -101c26 -0.666992 77 -1 153 -1c20.667 -2.66699 31 -12 31 -28c0 -8 -3.33301 -15.667 -10 -23
s-13.834 -11.5 -21.501 -12.5s-24 -1.5 -49 -1.5s-58.5 0.333008 -100.5 1z" />
    <glyph glyph-name="igrave" unicode="&#xec;" horiz-adv-x="150" 
d="M134 565c12 -6 17.9971 -18.667 17.9971 -38c0 -5.33301 -2 -10 -6 -14c-6 -9.33301 -13.5 -14 -22.5 -14s-19.667 3.33301 -32 10s-27.666 19 -45.999 37s-31.833 35.5 -40.5 52.5s-13 28.667 -13 35s0.5 12.333 1.5 18s5.33301 10.667 13 15s13.834 6.5 18.501 6.5
s8.33398 -0.333008 11.001 -1c10 -2.66699 23.667 -18.5 41 -47.5s36.333 -48.833 57 -59.5zM60.9971 0c-18.667 0 -28 8.00098 -28 24.001l4 407c0 9.33301 3.33301 16.833 10 22.5s14.834 8.5 24.501 8.5s18 -2.33301 25 -7s10.833 -12.5 11.5 -23.5s1 -35.5 1 -73.5
c0 -178 -1.33301 -286.333 -4 -325c-0.666992 -8.66699 -5.83398 -16.334 -15.501 -23.001s-19.167 -10 -28.5 -10z" />
    <glyph glyph-name="iacute" unicode="&#xed;" horiz-adv-x="150" 
d="M79 662c4 11.333 12.5 16.999 25.5 16.999s23.333 -4 31 -12s11.5 -14.5 11.5 -19.5s-0.666992 -9.16699 -2 -12.5c-10.667 -30 -28.5 -58.333 -53.5 -85s-44.167 -40 -57.5 -40s-23.333 3.33301 -30 10s-10 14.5 -10 23.5s5.33301 17.833 16 26.5
c35.333 28.667 58.333 59.334 69 92.001zM61 -0.000976562c-18.667 0 -28 8.00098 -28 24.001l4 407c0 9.33301 3.33301 16.833 10 22.5s14.834 8.5 24.501 8.5s18 -2.33301 25 -7s10.833 -12.5 11.5 -23.5s1 -35.5 1 -73.5c0 -178 -1.33301 -286.333 -4 -325
c-0.666992 -8.66699 -5.83398 -16.334 -15.501 -23.001s-19.167 -10 -28.5 -10z" />
    <glyph glyph-name="icircumflex" unicode="&#xee;" horiz-adv-x="150" 
d="M3 614c34 26.667 58.498 40 73.498 40s38.833 -12.5 71.5 -37.5s49 -45.167 49 -60.5c0 -9.33301 -4 -17.333 -12 -24s-14.5 -10 -19.5 -10s-19.833 10.667 -44.5 32s-40 32 -46 32s-20.167 -11 -42.5 -33s-38.166 -33 -47.499 -33s-17.166 3.83301 -23.499 11.5
s-9.5 16.667 -9.5 27s17 28.833 51 55.5zM60.998 0c-18.667 0 -28 8.00098 -28 24.001l4 407c0 9.33301 3.33301 16.833 10 22.5s14.834 8.5 24.501 8.5s18 -2.33301 25 -7s10.833 -12.5 11.5 -23.5s1 -35.5 1 -73.5c0 -178 -1.33301 -286.333 -4 -325
c-0.666992 -8.66699 -5.83398 -16.334 -15.501 -23.001s-19.167 -10 -28.5 -10z" />
    <glyph glyph-name="idieresis" unicode="&#xef;" horiz-adv-x="150" 
d="M-16 514c-25.333 0 -40.333 12.999 -45 38.999c0 15.333 5.66699 28.833 17 40.5s23.833 17.5 37.5 17.5s24.5 -4.66699 32.5 -14s12.333 -22 13 -38c-2 -13.333 -8.16699 -24.166 -18.5 -32.499s-22.5 -12.5 -36.5 -12.5zM164 609.999
c12 0 22.167 -3.49902 30.5 -10.499s12.833 -16.5 13.5 -28.5c-2 -16.667 -8 -29.834 -18 -39.501s-21.5 -14.5 -34.5 -14.5s-23.833 4.5 -32.5 13.5s-13 20.5 -13 34.5c0 30 18 45 54 45zM61 0c-18.667 0 -28 8.00098 -28 24.001l4 407c0 9.33301 3.33301 16.833 10 22.5
s14.834 8.5 24.501 8.5s18 -2.33301 25 -7s10.833 -12.5 11.5 -23.5s1 -35.5 1 -73.5c0 -178 -1.33301 -286.333 -4 -325c-0.666992 -8.66699 -5.83398 -16.334 -15.501 -23.001s-19.167 -10 -28.5 -10z" />
    <glyph glyph-name="eth" unicode="&#xf0;" horiz-adv-x="440" 
d="M75 283l1.00098 150.001c0 21.333 13.333 32 40 32s60.167 -9.83301 100.5 -29.5s76.833 -45.167 109.5 -76.5c55.333 -53.333 84.666 -118 87.999 -194c0 -54.667 -17 -95.834 -51 -123.501s-80.333 -41.5 -139 -41.5c-16 0 -32 1 -48 3
c0 -10.667 -4.66699 -19.834 -14 -27.501s-20.833 -11.5 -34.5 -11.5s-22.5 8.66699 -26.5 26l-9 36c-8.66699 6.66699 -13 13.834 -13 21.501s2.66699 13.834 8 18.501c-4.66699 28.667 -8.66699 79 -12 151h-24c-21.333 2 -32 12.667 -32 32s10.667 30.666 32 33.999h24z
M199.001 217.001l-49.002 0.00195312c0.666992 -49.333 4.33398 -98 11.001 -146c6.66699 -1.33301 25.334 -2 56.001 -2c82.667 0 124 22 124 66c0 56.667 -16.833 107.5 -50.5 152.5s-80.167 79.167 -139.5 102.5c-1.33301 -18.667 -2 -54.334 -2 -107.001h51
c17.333 0 26 -11 26 -33c0 -8.66699 -2.5 -16.334 -7.5 -23.001s-11.5 -10 -19.5 -10z" />
    <glyph glyph-name="ntilde" unicode="&#xf1;" horiz-adv-x="440" 
d="M102.5 606c19.667 16 38.332 23.999 55.999 23.999s31.834 -2.66699 42.501 -8s18 -11.333 22 -18c10.667 -17.333 20.334 -26 29.001 -26s18.167 8 28.5 24s20 24 29 24s16.833 -4 23.5 -12s10 -16.333 10 -25c0 -24 -9.83301 -42.333 -29.5 -55s-38.667 -19 -57 -19
s-32.5 3.83301 -42.5 11.5s-18.667 15.334 -26 23.001s-15.333 11.5 -24 11.5c-4 0 -12.333 -7.5 -25 -22.5s-23.334 -22.5 -32.001 -22.5s-16.5 4.16699 -23.5 12.5s-10.5 19.333 -10.5 33s9.83301 28.5 29.5 44.5zM114.998 311.999l-11 -243.006
c-0.666992 -21.333 -1.33398 -35.666 -2.00098 -42.999c-2.66699 -18 -14.334 -27 -35.001 -27c-8 0 -15.167 2.83301 -21.5 8.5s-9.83301 12.834 -10.5 21.501c5.33301 173.333 8 266.833 8 280.5v45.5c0 16.667 1.66699 31.667 5 45c4.66699 18 16.667 27 36 27
c9.33301 0 21 -6.33301 35 -19s34.333 -36 61 -70c63.333 -78 111.333 -151.667 144 -221c-1.33301 94.667 -3.66602 166.834 -6.99902 216.501s-5 76.834 -5 81.501v8c4.66699 25.333 18.334 38 41.001 38c8.66699 0 16.667 -3.83301 24 -11.5s11 -17.167 11 -28.5l5 -372
c0 -34.667 -14 -52 -42 -52c-16.667 0 -29.667 5.83301 -39 17.5s-16 20.834 -20 27.501s-10 17.334 -18 32.001c-51.333 96.667 -104.333 176 -159 238z" />
    <glyph glyph-name="ograve" unicode="&#xf2;" 
d="M289 511c-6 -9.33301 -13.5029 -14 -22.5029 -14s-19.667 3.33301 -32 10s-27.666 19 -45.999 37s-32 35.5 -41 52.5s-13.5 28.667 -13.5 35s0.666992 12.333 2 18s5.83301 10.667 13.5 15s13.834 6.5 18.501 6.5s8.33398 -0.333008 11.001 -1
c10 -2.66699 23.667 -18.5 41 -47.5s36.333 -48.833 57 -59.5c10.667 -5.33301 16.667 -14 18 -26s-0.666992 -20.667 -6 -26zM236.997 457c49.333 0 89.166 -19 119.499 -57s45.5 -90 45.5 -156s-16.667 -123 -50 -171s-75.666 -72 -126.999 -72c-56 0 -101.667 24 -137 72
s-53 106.667 -53 176s18.333 121.333 55 156s85.667 52 147 52zM306.997 350.5c-15.333 25 -42.333 37.502 -81 37.502s-68.667 -11.833 -90 -35.5s-32 -57.334 -32 -101.001s11.333 -84.167 34 -121.5s54 -56 94 -56c22.667 0 42 9.66699 58 29
c26.667 33.333 40 76.666 40 129.999s-7.66699 92.5 -23 117.5z" />
    <glyph glyph-name="oacute" unicode="&#xf3;" 
d="M222 660c4 11.333 12.5 16.999 25.5 16.999s23.333 -4 31 -12s11.5 -14.5 11.5 -19.5s-0.666992 -9.16699 -2 -12.5c-10.667 -30 -28.5 -58.333 -53.5 -85s-44.167 -40 -57.5 -40s-23.333 3.33301 -30 10s-10 14.5 -10 23.5s5 17.833 15 26.5
c36 28.667 59.333 59.334 70 92.001zM237 456.999c49.333 0 89.166 -19 119.499 -57s45.5 -90 45.5 -156s-16.667 -123 -50 -171s-75.666 -72 -126.999 -72c-56 0 -101.667 24 -137 72s-53 106.667 -53 176s18.333 121.333 55 156s85.667 52 147 52zM307 350.499
c-15.333 25 -42.333 37.502 -81 37.502s-68.667 -11.833 -90 -35.5s-32 -57.334 -32 -101.001s11.333 -84.167 34 -121.5s54 -56 94 -56c22.667 0 42 9.66699 58 29c26.667 33.333 40 76.666 40 129.999s-7.66699 92.5 -23 117.5z" />
    <glyph glyph-name="ocircumflex" unicode="&#xf4;" 
d="M146 612c34 26.667 58.4961 40 73.4961 40s38.833 -12.5 71.5 -37.5s49 -45.167 49 -60.5c0 -9.33301 -4 -17.333 -12 -24s-14.5 -10 -19.5 -10s-19.667 10.667 -44 32s-39.666 32 -45.999 32s-20.666 -11 -42.999 -33s-38.166 -33 -47.499 -33
s-17.166 3.83301 -23.499 11.5s-9.5 16.667 -9.5 27s17 28.833 51 55.5zM236.996 457c49.333 0 89.166 -19 119.499 -57s45.5 -90 45.5 -156s-16.667 -123 -50 -171s-75.666 -72 -126.999 -72c-56 0 -101.667 24 -137 72s-53 106.667 -53 176s18.333 121.333 55 156
s85.667 52 147 52zM306.996 350.5c-15.333 25 -42.333 37.502 -81 37.502s-68.667 -11.833 -90 -35.5s-32 -57.334 -32 -101.001s11.333 -84.167 34 -121.5s54 -56 94 -56c22.667 0 42 9.66699 58 29c26.667 33.333 40 76.666 40 129.999s-7.66699 92.5 -23 117.5z" />
    <glyph glyph-name="otilde" unicode="&#xf5;" 
d="M109.5 606c19.667 16 38.332 23.999 55.999 23.999s31.834 -2.66699 42.501 -8s18 -11.333 22 -18c10.667 -17.333 20.334 -26 29.001 -26s18.167 8 28.5 24s20 24 29 24s16.833 -4 23.5 -12s10 -16.333 10 -25c0 -24 -9.83301 -42.333 -29.5 -55s-38.667 -19 -57 -19
s-32.5 3.83301 -42.5 11.5s-18.667 15.334 -26 23.001s-15.333 11.5 -24 11.5c-4 0 -12.333 -7.5 -25 -22.5s-23.334 -22.5 -32.001 -22.5s-16.5 4.16699 -23.5 12.5s-10.5 19.333 -10.5 33s9.83301 28.5 29.5 44.5zM236.998 456.999c49.333 0 89.166 -19 119.499 -57
s45.5 -90 45.5 -156s-16.667 -123 -50 -171s-75.666 -72 -126.999 -72c-56 0 -101.667 24 -137 72s-53 106.667 -53 176s18.333 121.333 55 156s85.667 52 147 52zM306.998 350.499c-15.333 25 -42.333 37.502 -81 37.502s-68.667 -11.833 -90 -35.5
s-32 -57.334 -32 -101.001s11.333 -84.167 34 -121.5s54 -56 94 -56c22.667 0 42 9.66699 58 29c26.667 33.333 40 76.666 40 129.999s-7.66699 92.5 -23 117.5z" />
    <glyph glyph-name="odieresis" unicode="&#xf6;" 
d="M127 512c-24.667 0 -39.667 12.999 -45 38.999c0 15.333 5.66699 28.833 17 40.5s23.833 17.5 37.5 17.5s24.5 -4.66699 32.5 -14s12.333 -22 13 -38c-2 -13.333 -8.16699 -24.166 -18.5 -32.499s-22.5 -12.5 -36.5 -12.5zM307 607.999
c12 0 22.167 -3.49902 30.5 -10.499s12.833 -16.5 13.5 -28.5c-2 -16.667 -8 -29.834 -18 -39.501s-21.5 -14.5 -34.5 -14.5s-23.833 4.5 -32.5 13.5s-13 20.5 -13 34.5c0 30 18 45 54 45zM237 457c49.333 0 89.166 -19 119.499 -57s45.5 -90 45.5 -156
s-16.667 -123 -50 -171s-75.666 -72 -126.999 -72c-56 0 -101.667 24 -137 72s-53 106.667 -53 176s18.333 121.333 55 156s85.667 52 147 52zM307 350.5c-15.333 25 -42.333 37.502 -81 37.502s-68.667 -11.833 -90 -35.5s-32 -57.334 -32 -101.001
s11.333 -84.167 34 -121.5s54 -56 94 -56c22.667 0 42 9.66699 58 29c26.667 33.333 40 76.666 40 129.999s-7.66699 92.5 -23 117.5z" />
    <glyph glyph-name="divide" unicode="&#xf7;" horiz-adv-x="519" 
d="M220 455c10 8.66699 21.1689 13 33.502 13s23.166 -4.33301 32.499 -13s14 -19.167 14 -31.5s-4.83301 -23.833 -14.5 -34.5s-21.334 -16 -35.001 -16s-24.667 4.5 -33 13.5s-12.5 20.5 -12.5 34.5s5 25.333 15 34zM436.002 235l-245 -6.99902
c-72 0 -114.5 3.5 -127.5 10.5s-19.5 15.833 -19.5 26.5c0 22.667 13 34.667 39 36c40 -3.33301 77.667 -5 113 -5l241 8c20 -8 30 -20.333 30 -37s-10.333 -27.334 -31 -32.001zM202.002 102.001c0 33.333 20.668 50 62.001 50c24 -5.33301 36.333 -21.333 37 -48
c-8.66699 -30 -27.334 -45 -56.001 -45c-13.333 0 -23.833 4 -31.5 12s-11.5 18.333 -11.5 31z" />
    <glyph glyph-name="oslash" unicode="&#xf8;" 
d="M286 453c8 21.333 22.333 32.002 43 32.002s31 -11.667 31 -35c0 -12 -4 -23 -12 -33c39.333 -42.667 59 -101.334 59 -176.001c0 -38 -7.33301 -75 -22 -111s-37.167 -67.167 -67.5 -93.5s-63.5 -39.5 -99.5 -39.5c-20 0 -40.667 4.33301 -62 13
c-4.66699 -10.667 -13 -18 -25 -22c-5.33301 -2 -10.333 -3 -15 -3s-8.66699 1.33301 -12 4c-11.333 4.66699 -17 13.5 -17 26.5s3.66699 25.167 11 36.5c-22 22 -38.5 51.833 -49.5 89.5s-16.5 74.167 -16.5 109.5c0 59.333 16 108.666 48 147.999
c23.333 28.667 57.333 47.667 102 57c19.333 4.66699 38 7 56 7s34 -3.33301 48 -10zM225 392.002c-26.667 0 -51.333 -7.66699 -74 -23c-32 -22 -48 -58.5 -48 -109.5s12.333 -95.833 37 -134.5l21 45l46.5 101l53.5 117c-12 2.66699 -24 4 -36 4zM226.501 69.002
c13.667 0 27.499 3.66699 41.499 11c26.667 14.667 44.334 40 53.001 76s13 71 13 105s-7.33301 63.333 -22 88l-126 -269c13.333 -7.33301 26.833 -11 40.5 -11z" />
    <glyph glyph-name="ugrave" unicode="&#xf9;" 
d="M295 511c-6 -9.33301 -13.5029 -14 -22.5029 -14s-19.667 3.33301 -32 10s-27.666 19 -45.999 37s-32 35.5 -41 52.5s-13.5 28.667 -13.5 35s0.666992 12.333 2 18s5.83301 10.667 13.5 15s13.834 6.5 18.501 6.5s8.33398 -0.333008 11.001 -1
c10 -2.66699 23.667 -18.5 41 -47.5s36.333 -48.833 57 -59.5c10.667 -5.33301 16.667 -14 18 -26s-0.666992 -20.667 -6 -26zM324.997 421c-0.666992 2.66699 -0.998047 7.00195 -0.998047 13.002s4.16699 12.333 12.5 19s16.833 10 25.5 10s16.5 -2.66699 23.5 -8
s10.833 -11.333 11.5 -18c6.66699 -67.333 10 -120.333 10 -159s-1 -68.667 -3 -90c-4.66699 -64.667 -20.834 -112.167 -48.501 -142.5s-70.167 -45.5 -127.5 -45.5c-42 0 -77 12.167 -105 36.5s-47.667 56.166 -59 95.499c-17.333 59.333 -26 125.333 -26 198
c0 31.333 1.66699 63 5 95c0.666992 9.33301 5.83398 17 15.501 23s18.667 9 27 9s15.166 -2.66699 20.499 -8s7.66602 -12.333 6.99902 -21c-3.33301 -34.667 -5 -65.834 -5 -93.501s0.666992 -52.5 2 -74.5c4 -53.333 16.333 -98.833 37 -136.5s47.667 -56.5 81 -56.5
c72.667 0 109 62 109 186c0 74 -4 130 -12 168z" />
    <glyph glyph-name="uacute" unicode="&#xfa;" 
d="M228 660c4 11.333 12.5 16.999 25.5 16.999s23.333 -4 31 -12s11.5 -14.5 11.5 -19.5s-0.666992 -9.16699 -2 -12.5c-10.667 -30 -28.5 -58.333 -53.5 -85s-44.167 -40 -57.5 -40s-23.333 3.33301 -30 10s-10 14.5 -10 23.5s5 17.833 15 26.5
c36 28.667 59.333 59.334 70 92.001zM325 420.999c-0.666992 2.66699 -0.998047 7.00195 -0.998047 13.002s4.16699 12.333 12.5 19s16.833 10 25.5 10s16.5 -2.66699 23.5 -8s10.833 -11.333 11.5 -18c6.66699 -67.333 10 -120.333 10 -159s-1 -68.667 -3 -90
c-4.66699 -64.667 -20.834 -112.167 -48.501 -142.5s-70.167 -45.5 -127.5 -45.5c-42 0 -77 12.167 -105 36.5s-47.667 56.166 -59 95.499c-17.333 59.333 -26 125.333 -26 198c0 31.333 1.66699 63 5 95c0.666992 9.33301 5.83398 17 15.501 23s18.667 9 27 9
s15.166 -2.66699 20.499 -8s7.66602 -12.333 6.99902 -21c-3.33301 -34.667 -5 -65.834 -5 -93.501s0.666992 -52.5 2 -74.5c4 -53.333 16.333 -98.833 37 -136.5s47.667 -56.5 81 -56.5c72.667 0 109 62 109 186c0 74 -4 130 -12 168z" />
    <glyph glyph-name="ucircumflex" unicode="&#xfb;" 
d="M152 612c34 26.667 58.4971 40 73.4971 40s38.833 -12.5 71.5 -37.5s49 -45.167 49 -60.5c0 -9.33301 -4 -17.333 -12 -24s-14.667 -10 -20 -10s-20 10.667 -44 32s-39.167 32 -45.5 32s-20.666 -11 -42.999 -33s-38.166 -33 -47.499 -33s-17.166 3.83301 -23.499 11.5
s-9.5 16.667 -9.5 27s17 28.833 51 55.5zM324.997 421c-0.666992 2.66699 -0.998047 7.00195 -0.998047 13.002s4.16699 12.333 12.5 19s16.833 10 25.5 10s16.5 -2.66699 23.5 -8s10.833 -11.333 11.5 -18c6.66699 -67.333 10 -120.333 10 -159s-1 -68.667 -3 -90
c-4.66699 -64.667 -20.834 -112.167 -48.501 -142.5s-70.167 -45.5 -127.5 -45.5c-42 0 -77 12.167 -105 36.5s-47.667 56.166 -59 95.499c-17.333 59.333 -26 125.333 -26 198c0 31.333 1.66699 63 5 95c0.666992 9.33301 5.83398 17 15.501 23s18.667 9 27 9
s15.166 -2.66699 20.499 -8s7.66602 -12.333 6.99902 -21c-3.33301 -34.667 -5 -65.834 -5 -93.501s0.666992 -52.5 2 -74.5c4 -53.333 16.333 -98.833 37 -136.5s47.667 -56.5 81 -56.5c72.667 0 109 62 109 186c0 74 -4 130 -12 168z" />
    <glyph glyph-name="udieresis" unicode="&#xfc;" 
d="M133 512c-24.667 0 -39.667 12.999 -45 38.999c0 15.333 5.66699 28.833 17 40.5s23.833 17.5 37.5 17.5s24.5 -4.66699 32.5 -14s12.333 -22 13 -38c-2 -13.333 -8.16699 -24.166 -18.5 -32.499s-22.5 -12.5 -36.5 -12.5zM313 607.999
c12 0 22.167 -3.49902 30.5 -10.499s12.833 -16.5 13.5 -28.5c-2 -16.667 -8 -29.834 -18 -39.501s-21.5 -14.5 -34.5 -14.5s-23.833 4.5 -32.5 13.5s-13 20.5 -13 34.5c0 30 18 45 54 45zM325 421c-0.666992 2.66699 -0.998047 7.00195 -0.998047 13.002
s4.16699 12.333 12.5 19s16.833 10 25.5 10s16.5 -2.66699 23.5 -8s10.833 -11.333 11.5 -18c6.66699 -67.333 10 -120.333 10 -159s-1 -68.667 -3 -90c-4.66699 -64.667 -20.834 -112.167 -48.501 -142.5s-70.167 -45.5 -127.5 -45.5c-42 0 -77 12.167 -105 36.5
s-47.667 56.166 -59 95.499c-17.333 59.333 -26 125.333 -26 198c0 31.333 1.66699 63 5 95c0.666992 9.33301 5.83398 17 15.501 23s18.667 9 27 9s15.166 -2.66699 20.499 -8s7.66602 -12.333 6.99902 -21c-3.33301 -34.667 -5 -65.834 -5 -93.501s0.666992 -52.5 2 -74.5
c4 -53.333 16.333 -98.833 37 -136.5s47.667 -56.5 81 -56.5c72.667 0 109 62 109 186c0 74 -4 130 -12 168z" />
    <glyph glyph-name="yacute" unicode="&#xfd;" horiz-adv-x="380" 
d="M191 660c4 11.333 12.5 16.999 25.5 16.999s23.333 -4 31 -12s11.5 -14.5 11.5 -19.5s-0.666992 -9.16699 -2 -12.5c-10.667 -30 -28.5 -58.333 -53.5 -85s-44.167 -40 -57.5 -40s-23.333 3.33301 -30 10s-10 14.5 -10 23.5s5.33301 17.833 16 26.5
c35.333 28.667 58.333 59.334 69 92.001zM309 464.999c17.333 -2 26 -10.001 26 -24.001c0 -17.333 -9 -40.333 -27 -69l-26 -39.5c-11.333 -17 -19.166 -29 -23.499 -36s-11.333 -17.167 -21 -30.5s-17.834 -25.666 -24.501 -36.999v-87c0 -60 -2 -98.667 -6 -116
s-16.333 -26 -37 -26c-6 0 -10.333 1.33301 -13 4c-7.33301 7.33301 -11 29.333 -11 66l1 108c0 17.333 -1 35 -3 53c-27.333 35.333 -64.666 96 -111.999 182c-2 3.33301 -3 7.33301 -3 12s2 9.66699 6 15c9.33301 14 20.666 21 33.999 21c10 0 34.333 -33.667 73 -101
c17.333 -30 30.333 -51.333 39 -64l38 58.5l31 49.5c20 31.333 35.333 50 46 56c4.66699 3.33301 9 5 13 5z" />
    <glyph glyph-name="thorn" unicode="&#xfe;" horiz-adv-x="400" 
d="M50 31v401c0 19.333 11.5 29 34.5 29s34.5 -8 34.5 -24v-28c8 1.33301 18.333 2 31 2c50.667 0 96 -9.66699 136 -29c42 -21.333 63 -55.5 63 -102.5s-17.5 -80.833 -52.5 -101.5s-94.167 -31 -177.5 -31v-110c0 -24.667 -14.667 -37 -44 -37
c-16.667 -0 -25 10.333 -25 31zM119 343l-0.00195312 -129c4 -1.33301 9.33301 -2 16 -2s16.5 0.666992 29.5 2s28.833 3.33301 47.5 6s35.334 9.16699 50.001 19.5s22 23.5 22 39.5c0 28 -11.667 45.667 -35 53s-66.666 11 -129.999 11z" />
    <glyph glyph-name="ydieresis" unicode="&#xff;" horiz-adv-x="380" 
d="M96 512c-25.333 0 -40.333 12.999 -45 38.999c0 15.333 5.66699 28.833 17 40.5s23.833 17.5 37.5 17.5s24.5 -4.66699 32.5 -14s12.333 -22 13 -38c-2 -13.333 -8.16699 -24.166 -18.5 -32.499s-22.5 -12.5 -36.5 -12.5zM276 607.999c12 0 22.167 -3.49902 30.5 -10.499
s12.833 -16.5 13.5 -28.5c-2 -16.667 -8 -29.834 -18 -39.501s-21.5 -14.5 -34.5 -14.5s-23.833 4.5 -32.5 13.5s-13 20.5 -13 34.5c0 30 18 45 54 45zM309 465c17.333 -2 26 -10.001 26 -24.001c0 -17.333 -9 -40.333 -27 -69l-26 -39.5
c-11.333 -17 -19.166 -29 -23.499 -36s-11.333 -17.167 -21 -30.5s-17.834 -25.666 -24.501 -36.999v-87c0 -60 -2 -98.667 -6 -116s-16.333 -26 -37 -26c-6 -0 -10.333 1.33301 -13 4c-7.33301 7.33301 -11 29.333 -11 66l1 108c0 17.333 -1 35 -3 53
c-27.333 35.333 -64.666 96 -111.999 182c-2 3.33301 -3 7.33301 -3 12s2 9.66699 6 15c9.33301 14 20.666 21 33.999 21c10 0 34.333 -33.667 73 -101c17.333 -30 30.333 -51.333 39 -64l38 58.5l31 49.5c20 31.333 35.333 50 46 56c4.66699 3.33301 9 5 13 5z" />
    <glyph glyph-name="Amacron" unicode="&#x100;" horiz-adv-x="488" 
d="M127 795l117 -2.99805c46.667 0 81.5 0.833008 104.5 2.5s36.667 2.5 41 2.5s9.83301 -2.33301 16.5 -7s10.167 -9.33398 10.5 -14.001s0.5 -11.667 0.5 -21c0 -23.333 -13 -36.333 -39 -39c-32.667 -2.66699 -70.5 -4 -113.5 -4s-91.5 1.33301 -145.5 4
c-22 1.33301 -33 10.666 -33 27.999c0 34 13.667 51 41 51zM259 659.002c16.667 0 30.6709 -7.33301 42.0039 -22s26 -45 44 -91c42 -108.667 83 -279 123 -511c0.666992 -2.66699 1 -6.5 1 -11.5s-3.16699 -10.333 -9.5 -16s-15.333 -8.5 -27 -8.5s-21.5 2.83301 -29.5 8.5
s-13.333 15 -16 28l-15 76.5c-16 84.667 -26.667 128.667 -32 132c-8 4.66699 -34.5 9.66699 -79.5 15s-74.833 8 -89.5 8s-23.334 -1.33301 -26.001 -4c-12 -10.667 -28.333 -91.667 -49 -243c-2.66699 -12.667 -15.334 -19 -38.001 -19s-34 9.66699 -34 29
c0 48 17.667 139.667 53 275s64.666 225 87.999 269c29.333 56.667 60.666 85 93.999 85zM255.004 548.002c-10 0 -27.333 -29.501 -52 -88.501s-37 -95.5 -37 -109.5c0 -3.33301 0.666992 -5.66602 2 -6.99902c5.33301 -5.33301 26.333 -10 63 -14s61 -6 73 -6
s18.667 0.833008 20 2.5s2 7 2 16s-9 45.667 -27 110s-32.667 96.5 -44 96.5z" />
    <glyph glyph-name="amacron" unicode="&#x101;" horiz-adv-x="440" 
d="M96 597l116.999 -2.99805c46.667 0 81.5 0.833008 104.5 2.5s36.667 2.5 41 2.5s9.83301 -2.33301 16.5 -7s10.167 -9.33398 10.5 -14.001s0.5 -11.667 0.5 -21c0 -23.333 -13 -36.333 -39 -39c-32.667 -2.66699 -70.667 -4 -114 -4s-91.666 1.33301 -144.999 4
c-22 1.33301 -33 10.666 -33 27.999c0 34 13.667 51 41 51zM109.999 27.002c-2.66699 -16.667 -14.5 -25 -35.5 -25s-31.5 8.66699 -31.5 26c0 39.333 19.333 119.333 58 240c17.333 55.333 36.666 101.333 57.999 138s42 55 62 55c10.667 0 20 -6.33301 28 -19
s22.5 -41.5 43.5 -86.5s38.5 -92.667 52.5 -143s29.333 -111.833 46 -184.5c0 -8.66699 -3 -15.5 -9 -20.5s-13.333 -7.5 -22 -7.5c-21.333 0 -34.666 9.33301 -39.999 28l-35 137c-58.667 0 -105.667 4.66699 -141 14c-20 -73.333 -31.333 -124 -34 -152zM217.999 369.002
c-22 -37.333 -39.999 -79 -53.999 -125c29.333 -8 64 -12 104 -12c-12.667 46 -29.334 91.667 -50.001 137z" />
    <glyph glyph-name="Abreve" unicode="&#x102;" horiz-adv-x="488" 
d="M138.5 824.5c7 7.66699 16.5 11.5029 28.5 11.5029s21.5 -6.83301 28.5 -20.5s12.167 -23.334 15.5 -29.001s9 -11.334 17 -17.001s18.5 -8.5 31.5 -8.5s23.5 3.66699 31.5 11s16.833 19.166 26.5 35.499s19.834 24.5 30.501 24.5s19 -3.33301 25 -10
s9 -15.334 9 -26.001c0 -28 -12.833 -51.667 -38.5 -71s-54.834 -29 -87.501 -29s-62.167 9.33301 -88.5 28s-39.5 43 -39.5 73c0 10.667 3.5 19.834 10.5 27.501zM259 659.003c16.667 0 30.6709 -7.33301 42.0039 -22s26 -45 44 -91c42 -108.667 83 -279 123 -511
c0.666992 -2.66699 1 -6.5 1 -11.5s-3.16699 -10.333 -9.5 -16s-15.333 -8.5 -27 -8.5s-21.5 2.83301 -29.5 8.5s-13.333 15 -16 28l-15 76.5c-16 84.667 -26.667 128.667 -32 132c-8 4.66699 -34.5 9.66699 -79.5 15s-74.833 8 -89.5 8s-23.334 -1.33301 -26.001 -4
c-12 -10.667 -28.333 -91.667 -49 -243c-2.66699 -12.667 -15.334 -19 -38.001 -19s-34 9.66699 -34 29c0 48 17.667 139.667 53 275s64.666 225 87.999 269c29.333 56.667 60.666 85 93.999 85zM255.004 548.003c-10 0 -27.333 -29.501 -52 -88.501s-37 -95.5 -37 -109.5
c0 -3.33301 0.666992 -5.66602 2 -6.99902c5.33301 -5.33301 26.333 -10 63 -14s61 -6 73 -6s18.667 0.833008 20 2.5s2 7 2 16s-9 45.667 -27 110s-32.667 96.5 -44 96.5z" />
    <glyph glyph-name="abreve" unicode="&#x103;" horiz-adv-x="440" 
d="M107.5 626.5c7 7.66699 16.5 11.5029 28.5 11.5029s21.5 -6.83301 28.5 -20.5s12.167 -23.334 15.5 -29.001s9 -11.334 17 -17.001s18.5 -8.5 31.5 -8.5s23.5 3.66699 31.5 11s16.833 19.166 26.5 35.499s19.834 24.5 30.501 24.5s19 -3.33301 25 -10
s9 -15.334 9 -26.001c0 -28 -12.833 -51.667 -38.5 -71s-54.834 -29 -87.501 -29s-62.167 9.33301 -88.5 28s-39.5 43 -39.5 73c0 10.667 3.5 19.834 10.5 27.501zM110 27.0029c-2.66699 -16.667 -14.5 -25 -35.5 -25s-31.5 8.66699 -31.5 26
c0 39.333 19.333 119.333 58 240c17.333 55.333 36.666 101.333 57.999 138s42 55 62 55c10.667 0 20 -6.33301 28 -19s22.5 -41.5 43.5 -86.5s38.5 -92.667 52.5 -143s29.333 -111.833 46 -184.5c0 -8.66699 -3 -15.5 -9 -20.5s-13.333 -7.5 -22 -7.5
c-21.333 0 -34.666 9.33301 -39.999 28l-35 137c-58.667 0 -105.667 4.66699 -141 14c-20 -73.333 -31.333 -124 -34 -152zM218 369.003c-22 -37.333 -39.999 -79 -53.999 -125c29.333 -8 64 -12 104 -12c-12.667 46 -29.334 91.667 -50.001 137z" />
    <glyph glyph-name="Aogonek" unicode="&#x104;" horiz-adv-x="488" 
d="M354 -67c0 36 12.335 66.001 37.002 90.001c-1.33301 1.33301 -6.66602 26.333 -15.999 75c-18 94 -29.667 142.667 -35 146c-8 4.66699 -34.5 9.66699 -79.5 15s-74.833 8 -89.5 8s-23.334 -1.33301 -26.001 -4c-12 -10.667 -28.333 -91.667 -49 -243
c-2.66699 -12.667 -15.334 -19 -38.001 -19s-34 9.66699 -34 29c0 48 17.667 139.667 53 275s64.666 225 87.999 269c29.333 56.667 60.666 85 93.999 85c16.667 0 30.667 -7.33301 42 -22s26 -45 44 -91c42 -108.667 83 -279 123 -511c0.666992 -4.66699 0.666992 -9 0 -13
v-1c0 -8 -6.33301 -17 -19 -27c-24.667 -19.333 -37 -40 -37 -62c0 -14 3.5 -25.167 10.5 -33.5s15 -12.5 24 -12.5s17.667 3 26 9s15 11.5 20 16.5s11.333 8 19 9s15.167 -3.5 22.5 -13.5c5.33301 -4.66699 8 -9 8 -13s-1.66699 -9 -5 -15c-6 -12 -14 -21 -24 -27
c-17.333 -13.333 -36.666 -20 -57.999 -20c-6 0 -12 0.333008 -18 1c-28.667 3.33301 -49.667 15.666 -63 36.999s-20 42.333 -20 63zM168.002 343.001c5.33301 -5.33301 26.333 -10.001 63 -14.001s61 -6 73 -6s18.667 0.833008 20 2.5s2 7 2 16s-9 45.667 -27 110
s-32.667 96.5 -44 96.5c-10 0 -27.333 -29.5 -52 -88.5s-37 -95.5 -37 -109.5c0 -3.33301 0.666992 -5.66602 2 -6.99902z" />
    <glyph glyph-name="aogonek" unicode="&#x105;" horiz-adv-x="440" 
d="M278 -63c0 38 13.667 69.3359 41 94.0029l-34 134c-58.667 0 -105.667 4.66699 -141 14c-20 -73.333 -31.333 -124 -34 -152c-2.66699 -16.667 -14.5 -25 -35.5 -25s-31.5 8.66699 -31.5 26c0 39.333 19.333 119.333 58 240c17.333 55.333 36.666 101.333 57.999 138
s42 55 62 55c10.667 0 20 -6.33301 28 -19s22.333 -41.334 43 -86.001c32.667 -69.333 64.667 -174.333 96 -315c2.66699 -4.66699 4 -9.83398 4 -15.501s-3 -11.5 -9 -17.5s-12.333 -11.667 -19 -17c-18.667 -14.667 -28 -31 -28 -49s3.5 -31.167 10.5 -39.5
s15 -12.5 24 -12.5s17.667 3 26 9s15 11.5 20 16.5s11.333 8 19 9s15.167 -3.5 22.5 -13.5c5.33301 -4.66699 8 -9 8 -13s-1.66699 -9 -5 -15c-6 -12 -14 -21 -24 -27c-17.333 -13.333 -36.666 -20 -57.999 -20c-6 0 -12 0.333008 -18 1
c-28.667 3.33301 -49.667 15.666 -63 36.999s-20 42.333 -20 63zM164 244.003c29.333 -8 64.001 -12 104.001 -12c-12.667 46 -29.334 91.667 -50.001 137c-22 -37.333 -40 -79 -54 -125z" />
    <glyph glyph-name="Cacute" unicode="&#x106;" horiz-adv-x="548" 
d="M327 860c4 11.333 12.5 16.999 25.5 16.999s23.333 -4 31 -12s11.5 -14.5 11.5 -19.5s-0.666992 -9.16699 -2 -12.5c-10.667 -30 -28.5 -58.333 -53.5 -85s-44.167 -40 -57.5 -40s-23.333 3.33301 -30 10s-10 14.5 -10 23.5s5.33301 17.833 16 26.5
c35.333 28.667 58.333 59.334 69 92.001zM336 653.999c44.667 0 93.999 -8.66699 147.999 -26c12 -9.33301 18 -19.5 18 -30.5s-5.5 -20.667 -16.5 -29s-23.5 -12.5 -37.5 -12.5c-36 9.33301 -69.667 14 -101 14c-72 0 -126.667 -21.333 -164 -64s-56 -106 -56 -190
s22 -149.667 66 -197c22.667 -24.667 49.667 -37 81 -37s81.333 16.667 150 50c24 11.333 40 17 48 17c17.333 0 26 -9 26 -27s-8.33301 -33 -25 -45c-57.333 -30 -102 -50.167 -134 -60.5s-59.667 -15.5 -83 -15.5c-48 0 -89 17.667 -123 53
c-60.667 65.333 -91 154.5 -91 267.5s28.833 196.667 86.5 251s126.834 81.5 207.501 81.5z" />
    <glyph glyph-name="cacute" unicode="&#x107;" 
d="M244 660c4 11.333 12.5 16.999 25.5 16.999s23.333 -4 31 -12s11.5 -14.5 11.5 -19.5s-0.666992 -9.16699 -2 -12.5c-10.667 -30 -28.5 -58.333 -53.5 -85s-44.167 -40 -57.5 -40s-23.333 3.33301 -30 10s-10 14.5 -10 23.5s5 17.833 15 26.5
c36 28.667 59.333 59.334 70 92.001zM357 375.999l-81 9.99902c-108 0 -162 -54 -162 -162c0 -54.667 16.333 -98 49 -130c16 -16.667 32.667 -25 50 -25s47.666 7.66699 90.999 23s66.666 23 69.999 23c18 0 27 -8.33301 27 -25c0 -14 -7.66699 -26 -23 -36
c-83.333 -35.333 -143.666 -53 -180.999 -53c-22.667 0 -45 7.33301 -67 22s-39.333 33.667 -52 57c-26 46 -39 95.333 -39 148c0 70.667 21.333 126.667 64 168s97.334 62 164.001 62c38.667 0 77 -6.33301 115 -19v-1c12 -7.33301 18 -15.666 18 -24.999
s-4.83301 -17.833 -14.5 -25.5s-19.167 -11.5 -28.5 -11.5z" />
    <glyph glyph-name="Ccircumflex" unicode="&#x108;" horiz-adv-x="548" 
d="M251 812c34 26.667 58.498 40 73.498 40s38.833 -12.5 71.5 -37.5s49 -45.167 49 -60.5c0 -9.33301 -4 -17.333 -12 -24s-14.5 -10 -19.5 -10s-19.833 10.667 -44.5 32s-40 32 -46 32s-20.167 -11 -42.5 -33s-38.166 -33 -47.499 -33s-17.166 3.83301 -23.499 11.5
s-9.5 16.667 -9.5 27s17 28.833 51 55.5zM335.998 654c44.667 0 93.999 -8.66699 147.999 -26c12 -9.33301 18 -19.5 18 -30.5s-5.5 -20.667 -16.5 -29s-23.5 -12.5 -37.5 -12.5c-36 9.33301 -69.667 14 -101 14c-72 0 -126.667 -21.333 -164 -64s-56 -106 -56 -190
s22 -149.667 66 -197c22.667 -24.667 49.667 -37 81 -37s81.333 16.667 150 50c24 11.333 40 17 48 17c17.333 0 26 -9 26 -27s-8.33301 -33 -25 -45c-57.333 -30 -102 -50.167 -134 -60.5s-59.667 -15.5 -83 -15.5c-48 0 -89 17.667 -123 53
c-60.667 65.333 -91 154.5 -91 267.5s28.833 196.667 86.5 251s126.834 81.5 207.501 81.5z" />
    <glyph glyph-name="ccircumflex" unicode="&#x109;" 
d="M168 612c34 26.667 58.4971 40 73.4971 40s38.833 -12.5 71.5 -37.5s49 -45.167 49 -60.5c0 -9.33301 -4 -17.333 -12 -24s-14.667 -10 -20 -10s-20 10.667 -44 32s-39.167 32 -45.5 32s-20.666 -11 -42.999 -33s-38.166 -33 -47.499 -33s-17.166 3.83301 -23.499 11.5
s-9.5 16.667 -9.5 27s17 28.833 51 55.5zM356.997 376l-81 9.99902c-108 0 -162 -54 -162 -162c0 -54.667 16.333 -98 49 -130c16 -16.667 32.667 -25 50 -25s47.666 7.66699 90.999 23s66.666 23 69.999 23c18 0 27 -8.33301 27 -25c0 -14 -7.66699 -26 -23 -36
c-83.333 -35.333 -143.666 -53 -180.999 -53c-22.667 0 -45 7.33301 -67 22s-39.333 33.667 -52 57c-26 46 -39 95.333 -39 148c0 70.667 21.333 126.667 64 168s97.334 62 164.001 62c38.667 0 77 -6.33301 115 -19v-1c12 -7.33301 18 -15.666 18 -24.999
s-4.83301 -17.833 -14.5 -25.5s-19.167 -11.5 -28.5 -11.5z" />
    <glyph glyph-name="Cdotaccent" unicode="&#x10a;" horiz-adv-x="548" 
d="M322 828c12 0 23.334 -5.66895 34.001 -17.002s16 -23.166 16 -35.499s-5.83301 -24.833 -17.5 -37.5s-23.834 -19 -36.501 -19s-24.167 5.33301 -34.5 16s-15.5 24.334 -15.5 41.001c0 32 17.333 49.333 52 52h2zM336.001 653.998c44.667 0 93.999 -8.66699 147.999 -26
c12 -9.33301 18 -19.5 18 -30.5s-5.5 -20.667 -16.5 -29s-23.5 -12.5 -37.5 -12.5c-36 9.33301 -69.667 14 -101 14c-72 0 -126.667 -21.333 -164 -64s-56 -106 -56 -190s22 -149.667 66 -197c22.667 -24.667 49.667 -37 81 -37s81.333 16.667 150 50c24 11.333 40 17 48 17
c17.333 0 26 -9 26 -27s-8.33301 -33 -25 -45c-57.333 -30 -102 -50.167 -134 -60.5s-59.667 -15.5 -83 -15.5c-48 0 -89 17.667 -123 53c-60.667 65.333 -91 154.5 -91 267.5s28.833 196.667 86.5 251s126.834 81.5 207.501 81.5z" />
    <glyph glyph-name="cdotaccent" unicode="&#x10b;" 
d="M239 628c12 0 23.334 -5.66895 34.001 -17.002s16 -23.166 16 -35.499s-5.83301 -24.833 -17.5 -37.5s-23.834 -19 -36.501 -19s-24.167 5.33301 -34.5 16s-15.5 24.334 -15.5 41.001c0 32 17.333 49.333 52 52h2zM357.001 375.998l-81 9.99902
c-108 0 -162 -54 -162 -162c0 -54.667 16.333 -98 49 -130c16 -16.667 32.667 -25 50 -25s47.666 7.66699 90.999 23s66.666 23 69.999 23c18 0 27 -8.33301 27 -25c0 -14 -7.66699 -26 -23 -36c-83.333 -35.333 -143.666 -53 -180.999 -53c-22.667 0 -45 7.33301 -67 22
s-39.333 33.667 -52 57c-26 46 -39 95.333 -39 148c0 70.667 21.333 126.667 64 168s97.334 62 164.001 62c38.667 0 77 -6.33301 115 -19v-1c12 -7.33301 18 -15.666 18 -24.999s-4.83301 -17.833 -14.5 -25.5s-19.167 -11.5 -28.5 -11.5z" />
    <glyph glyph-name="Ccaron" unicode="&#x10c;" horiz-adv-x="548" 
d="M409 850c10.667 0 19.168 -4.00195 25.501 -12.002s9.33301 -17.167 9 -27.5s-17.833 -28.166 -52.5 -53.499s-59 -38 -73 -38c-15.333 0 -39 13.167 -71 39.5s-48 47.166 -48 62.499c0 9.33301 4.16699 17.333 12.5 24s15.833 9.83398 22.5 9.50098
s20.167 -8.16602 40.5 -23.499s36.166 -30 47.499 -44c42 42 71 63 87 63zM336.001 653.998c44.667 0 93.999 -8.66699 147.999 -26c12 -9.33301 18 -19.5 18 -30.5s-5.5 -20.667 -16.5 -29s-23.5 -12.5 -37.5 -12.5c-36 9.33301 -69.667 14 -101 14
c-72 0 -126.667 -21.333 -164 -64s-56 -106 -56 -190s22 -149.667 66 -197c22.667 -24.667 49.667 -37 81 -37s81.333 16.667 150 50c24 11.333 40 17 48 17c17.333 0 26 -9 26 -27s-8.33301 -33 -25 -45c-57.333 -30 -102 -50.167 -134 -60.5s-59.667 -15.5 -83 -15.5
c-48 0 -89 17.667 -123 53c-60.667 65.333 -91 154.5 -91 267.5s28.833 196.667 86.5 251s126.834 81.5 207.501 81.5z" />
    <glyph glyph-name="ccaron" unicode="&#x10d;" 
d="M326 650c10.667 0 19.168 -4.00195 25.501 -12.002s9.33301 -17.167 9 -27.5s-17.833 -28.166 -52.5 -53.499s-59 -38 -73 -38c-15.333 0 -39 13.167 -71 39.5s-48 47.166 -48 62.499c0 9.33301 4.16699 17.333 12.5 24s15.833 9.83398 22.5 9.50098
s20.167 -8.16602 40.5 -23.499s36.166 -30 47.499 -44c42 42 71 63 87 63zM357.001 375.998l-81 9.99902c-108 0 -162 -54 -162 -162c0 -54.667 16.333 -98 49 -130c16 -16.667 32.667 -25 50 -25s47.666 7.66699 90.999 23s66.666 23 69.999 23c18 0 27 -8.33301 27 -25
c0 -14 -7.66699 -26 -23 -36c-83.333 -35.333 -143.666 -53 -180.999 -53c-22.667 0 -45 7.33301 -67 22s-39.333 33.667 -52 57c-26 46 -39 95.333 -39 148c0 70.667 21.333 126.667 64 168s97.334 62 164.001 62c38.667 0 77 -6.33301 115 -19v-1
c12 -7.33301 18 -15.666 18 -24.999s-4.83301 -17.833 -14.5 -25.5s-19.167 -11.5 -28.5 -11.5z" />
    <glyph glyph-name="Dcaron" unicode="&#x10e;" horiz-adv-x="475" 
d="M316 850c10.667 0 19.168 -4.00195 25.501 -12.002s9.33301 -17.167 9 -27.5s-17.833 -28.166 -52.5 -53.499s-59 -38 -73 -38c-15.333 0 -39 13.167 -71 39.5s-48 47.166 -48 62.499c0 9.33301 4.16699 17.333 12.5 24s15.833 9.83398 22.5 9.50098
s20.167 -8.16602 40.5 -23.499s36.166 -30 47.499 -44c42 42 71 63 87 63zM59.001 31.998c-10 7.33301 -14.998 15.501 -14.998 24.501s3.66699 16.5 11 22.5c-12.667 95.333 -19 204.666 -19 327.999c0 37.333 1.66699 110 5 218c3.33301 10 10.166 18.667 20.499 26
s20.166 11 29.499 11s15 -0.333008 17 -1c95.333 -26.667 178.333 -78.167 249 -154.5s107.667 -167.833 111 -274.5c0 -117.333 -48.667 -191 -146 -221c-28 -8.66699 -57.5 -13 -88.5 -13s-58.167 2.33301 -81.5 7c2.66699 -5.33301 4 -12.5 4 -21.5
s-5.5 -17.667 -16.5 -26s-24 -12.5 -39 -12.5s-24.5 9 -28.5 27zM119.003 414.999c0 -116.667 6.66602 -227.335 19.999 -332.002c16 -4.66699 43 -7 81 -7s74.5 6.33301 109.5 19s53.5 31.334 55.5 56.001c2 18.667 3 33 3 43c0 86.667 -23.167 163.334 -69.5 230.001
s-111.166 117.334 -194.499 152.001c-3.33301 -78.667 -5 -132.334 -5 -161.001z" />
    <glyph glyph-name="dcaron" unicode="&#x10f;" horiz-adv-x="440" 
d="M247 650c10.667 0 19.168 -4.00195 25.501 -12.002s9.33301 -17.167 9 -27.5s-17.833 -28.166 -52.5 -53.499s-59 -38 -73 -38c-15.333 0 -39 13.167 -71 39.5s-48 47.166 -48 62.499c0 9.33301 4.16699 17.333 12.5 24s15.833 9.83398 22.5 9.50098
s20.167 -8.16602 40.5 -23.499s36.166 -30 47.499 -44c42 42 71 63 87 63zM65.001 25.998c-8.66699 6.66699 -13.001 13.502 -13.001 20.502s2.33301 13.5 7 19.5c-6.66699 51.333 -11.334 110.666 -14.001 177.999s-4 105.5 -4 114.5s0.166992 18.667 0.5 29
s1.83301 21.833 4.5 34.5c4.66699 25.333 20 38 46 38c68.667 0 134.834 -31 198.501 -93s95.5 -129.333 95.5 -202c0 -54.667 -17 -95.834 -51 -123.501s-80.333 -41.5 -139 -41.5c-11.333 0 -27.333 1.33301 -48 4c0 -10.667 -4.33301 -20 -13 -28s-18.667 -12 -30 -12
c-17.333 0 -27.666 8.66699 -30.999 26zM116 386c-0.666992 -7.33301 -0.999023 -20 -0.999023 -38s1.83301 -57.833 5.5 -119.5s8.5 -114.167 14.5 -157.5c5.33301 -1.33301 26 -2 62 -2c78 0 117 22 117 66c0 56 -17.833 106 -53.5 150s-83.834 77.667 -144.501 101z" />
    <glyph glyph-name="Dcroat" unicode="&#x110;" horiz-adv-x="550" 
d="M292 -2c-32 0 -59.667 2.33398 -83 7.00098c2.66699 -6 4 -12.5 4 -19.5s-4.33301 -15.5 -13 -25.5s-20.667 -15 -36 -15s-25 4.16699 -29 12.5s-10.333 33.166 -19 74.499c-10 7.33301 -15 15.5 -15 24.5s3.66699 16.5 11 22.5c-8.66699 66.667 -14.667 146 -18 238
c-31.333 1.33301 -51.333 4.66602 -60 9.99902s-13 14.833 -13 28.5s4.66699 23 14 28s29 7.83301 59 8.5c0 112.667 1.33301 190.334 4 233.001c4 14.667 12.167 24.667 24.5 30s21.5 8 27.5 8s11 -0.666992 15 -2c95.333 -26.667 178.333 -78.167 249 -154.5
s107.667 -167.833 111 -274.5c0 -80 -21.667 -139 -65 -177s-99.333 -57 -168 -57zM265 382.501c10 -3.66699 14.999 -13.334 14.999 -29.001s-4.83301 -25.167 -14.5 -28.5s-38.834 -6 -87.501 -8c2.66699 -83.333 8.66699 -161.333 18 -234c16 -4.66699 37 -7 63 -7
c68.667 0 116.834 9.33301 144.501 28s41.5 48.667 41.5 90c0 86.667 -23.167 163.334 -69.5 230.001s-111.166 117.334 -194.499 152.001c-2.66699 -32.667 -4 -94 -4 -184c48.667 -2.66699 78 -5.83398 88 -9.50098z" />
    <glyph glyph-name="dcroat" unicode="&#x111;" horiz-adv-x="440" 
d="M75 283l1.00098 150.001c0 21.333 13.333 32 40 32s60.167 -9.83301 100.5 -29.5s76.833 -45.167 109.5 -76.5c55.333 -53.333 84.666 -118 87.999 -194c0 -54.667 -17 -95.834 -51 -123.501s-80.333 -41.5 -139 -41.5c-16 0 -32 1 -48 3
c0 -10.667 -4.66699 -19.834 -14 -27.501s-20.833 -11.5 -34.5 -11.5s-22.5 8.66699 -26.5 26l-9 36c-8.66699 6.66699 -13 13.834 -13 21.501s2.66699 13.834 8 18.501c-4.66699 28.667 -8.66699 79 -12 151h-24c-21.333 2 -32 12.667 -32 32s10.667 30.666 32 33.999h24z
M199.001 217.001l-49.002 0.00195312c0.666992 -49.333 4.33398 -98 11.001 -146c6.66699 -1.33301 25.334 -2 56.001 -2c82.667 0 124 22 124 66c0 56.667 -16.833 107.5 -50.5 152.5s-80.167 79.167 -139.5 102.5c-1.33301 -18.667 -2 -54.334 -2 -107.001h51
c17.333 0 26 -11 26 -33c0 -8.66699 -2.5 -16.334 -7.5 -23.001s-11.5 -10 -19.5 -10z" />
    <glyph glyph-name="Emacron" unicode="&#x112;" horiz-adv-x="442" 
d="M103 796l117 -2.99902c46.667 0 81.5 0.833008 104.5 2.5s36.667 2.5 41 2.5s9.83301 -2.33301 16.5 -7s10.167 -9.33398 10.5 -14.001s0.5 -11.667 0.5 -21c0 -23.333 -13 -36.333 -39 -39c-32.667 -2.66699 -70.5 -4 -113.5 -4s-91.5 1.33301 -145.5 4
c-22 0.666992 -33 10 -33 28c0 34 13.667 51 41 51zM55 344.001c-9.33301 6 -13.999 14.667 -13.999 26s3.66699 21.666 11 30.999c-2.66699 66.667 -4 137 -4 211c4 16 10.167 27.667 18.5 35s20.5 12 36.5 14c88 -4 183.333 -6 286 -6c25.333 -5.33301 38 -16.333 38 -33
c0 -28 -27.333 -44.333 -82 -49c-14.667 -0.666992 -30.667 -1 -48 -1h-65c-12.667 0 -47.667 2.66699 -105 8c0 -83.333 1.33301 -140.666 4 -171.999c35.333 -0.666992 103.333 -1 204 -1c24 -4.66699 36 -15.5 36 -32.5s-9.66699 -30.167 -29 -39.5
c-2 -1.33301 -5.66699 -2.66602 -11 -3.99902l-173 3c-10.667 0 -19.334 -0.666992 -26.001 -2l4 -172c0 -38.667 -1 -66.334 -3 -83.001l232 3c21.333 -3.33301 32 -12.333 32 -27c0 -10 -4.5 -20 -13.5 -30s-19.5 -16.333 -31.5 -19l-256 -4
c-15.333 0 -26 2.83301 -32 8.5s-9 15.167 -9 28.5c2.66699 18.667 4 48.667 4 90v70z" />
    <glyph glyph-name="emacron" unicode="&#x113;" horiz-adv-x="380" 
d="M57 596l117 -2.99902c46.667 0 81.5 0.833008 104.5 2.5s36.667 2.5 41 2.5s9.83301 -2.33301 16.5 -7s10.167 -9.33398 10.5 -14.001s0.5 -11.667 0.5 -21c0 -23.333 -13 -36.333 -39 -39c-32.667 -2.66699 -70.5 -4 -113.5 -4s-91.5 1.33301 -145.5 4
c-22 0.666992 -33 10 -33 28c0 34 13.667 51 41 51zM121 225.001l2.00293 -130.999c0 -17.333 -0.333008 -26.666 -1 -27.999l173 3c19.333 -2 29 -10.333 29 -25c0 -28 -13 -42 -39 -42l-196 -2c-12 0 -20.833 4.16699 -26.5 12.5s-8.83398 17.166 -9.50098 26.499
s-1 19.666 -1 30.999v166c-8.66699 4.66699 -13 11.667 -13 21s3.66699 17.666 11 24.999c-2 52 -3 99.333 -3 142c0 24.667 15 37.334 45 38.001h28l175 -3h1c21.333 -2.66699 32 -12.667 32 -30c0 -13.333 -4 -22.333 -12 -27c-17.333 -9.33301 -59 -14 -125 -14
c-24.667 0 -49.334 1 -74.001 3c0 -60 0.333008 -93.667 1 -101c26 -0.666992 77 -1 153 -1c20.667 -2.66699 31 -12 31 -28c0 -8 -3.33301 -15.667 -10 -23s-13.834 -11.5 -21.501 -12.5s-24 -1.5 -49 -1.5s-58.5 0.333008 -100.5 1z" />
    <glyph glyph-name="Ebreve" unicode="&#x114;" horiz-adv-x="442" 
d="M114.5 825.5c7 7.66699 16.5 11.5029 28.5 11.5029s21.5 -6.83301 28.5 -20.5s12.167 -23.334 15.5 -29.001s9 -11.334 17 -17.001s18.5 -8.5 31.5 -8.5s23.5 3.66699 31.5 11s16.833 19.166 26.5 35.499s19.834 24.5 30.501 24.5s19 -3.33301 25 -10
s9 -15.334 9 -26.001c0 -28 -12.833 -51.667 -38.5 -71s-54.834 -29 -87.501 -29s-62.167 9.33301 -88.5 28s-39.5 43 -39.5 73c0 10.667 3.5 19.834 10.5 27.501zM55 344.003c-9.33301 6 -13.999 14.667 -13.999 26s3.66699 21.666 11 30.999
c-2.66699 66.667 -4 137 -4 211c4 16 10.167 27.667 18.5 35s20.5 12 36.5 14c88 -4 183.333 -6 286 -6c25.333 -5.33301 38 -16.333 38 -33c0 -28 -27.333 -44.333 -82 -49c-14.667 -0.666992 -30.667 -1 -48 -1h-65c-12.667 0 -47.667 2.66699 -105 8
c0 -83.333 1.33301 -140.666 4 -171.999c35.333 -0.666992 103.333 -1 204 -1c24 -4.66699 36 -15.5 36 -32.5s-9.66699 -30.167 -29 -39.5c-2 -1.33301 -5.66699 -2.66602 -11 -3.99902l-173 3c-10.667 0 -19.334 -0.666992 -26.001 -2l4 -172
c0 -38.667 -1 -66.334 -3 -83.001l232 3c21.333 -3.33301 32 -12.333 32 -27c0 -10 -4.5 -20 -13.5 -30s-19.5 -16.333 -31.5 -19l-256 -4c-15.333 0 -26 2.83301 -32 8.5s-9 15.167 -9 28.5c2.66699 18.667 4 48.667 4 90v70z" />
    <glyph glyph-name="ebreve" unicode="&#x115;" horiz-adv-x="380" 
d="M68.5 625.5c7 7.66699 16.5 11.5029 28.5 11.5029s21.5 -6.83301 28.5 -20.5s12.167 -23.334 15.5 -29.001s9 -11.334 17 -17.001s18.5 -8.5 31.5 -8.5s23.5 3.66699 31.5 11s16.833 19.166 26.5 35.499s19.834 24.5 30.501 24.5s19 -3.33301 25 -10s9 -15.334 9 -26.001
c0 -28 -12.833 -51.667 -38.5 -71s-54.834 -29 -87.501 -29s-62.167 9.33301 -88.5 28s-39.5 43 -39.5 73c0 10.667 3.5 19.834 10.5 27.501zM121 225.003l2.00293 -130.999c0 -17.333 -0.333008 -26.666 -1 -27.999l173 3c19.333 -2 29 -10.333 29 -25
c0 -28 -13 -42 -39 -42l-196 -2c-12 0 -20.833 4.16699 -26.5 12.5s-8.83398 17.166 -9.50098 26.499s-1 19.666 -1 30.999v166c-8.66699 4.66699 -13 11.667 -13 21s3.66699 17.666 11 24.999c-2 52 -3 99.333 -3 142c0 24.667 15 37.334 45 38.001h28l175 -3h1
c21.333 -2.66699 32 -12.667 32 -30c0 -13.333 -4 -22.333 -12 -27c-17.333 -9.33301 -59 -14 -125 -14c-24.667 0 -49.334 1 -74.001 3c0 -60 0.333008 -93.667 1 -101c26 -0.666992 77 -1 153 -1c20.667 -2.66699 31 -12 31 -28c0 -8 -3.33301 -15.667 -10 -23
s-13.834 -11.5 -21.501 -12.5s-24 -1.5 -49 -1.5s-58.5 0.333008 -100.5 1z" />
    <glyph glyph-name="Edotaccent" unicode="&#x116;" horiz-adv-x="442" 
d="M233 828c12 0 23.334 -5.66895 34.001 -17.002s16 -23.166 16 -35.499s-5.83301 -24.833 -17.5 -37.5s-23.834 -19 -36.501 -19s-24.167 5.33301 -34.5 16s-15.5 24.334 -15.5 41.001c0 32 17.333 49.333 52 52h2zM55.001 343.998c-9.33301 6 -13.999 14.667 -13.999 26
s3.66699 21.666 11 30.999c-2.66699 66.667 -4 137 -4 211c4 16 10.167 27.667 18.5 35s20.5 12 36.5 14c88 -4 183.333 -6 286 -6c25.333 -5.33301 38 -16.333 38 -33c0 -28 -27.333 -44.333 -82 -49c-14.667 -0.666992 -30.667 -1 -48 -1h-65
c-12.667 0 -47.667 2.66699 -105 8c0 -83.333 1.33301 -140.666 4 -171.999c35.333 -0.666992 103.333 -1 204 -1c24 -4.66699 36 -15.5 36 -32.5s-9.66699 -30.167 -29 -39.5c-2 -1.33301 -5.66699 -2.66602 -11 -3.99902l-173 3c-10.667 0 -19.334 -0.666992 -26.001 -2
l4 -172c0 -38.667 -1 -66.334 -3 -83.001l232 3c21.333 -3.33301 32 -12.333 32 -27c0 -10 -4.5 -20 -13.5 -30s-19.5 -16.333 -31.5 -19l-256 -4c-15.333 0 -26 2.83301 -32 8.5s-9 15.167 -9 28.5c2.66699 18.667 4 48.667 4 90v70z" />
    <glyph glyph-name="edotaccent" unicode="&#x117;" horiz-adv-x="380" 
d="M187 628c12 0 23.334 -5.66895 34.001 -17.002s16 -23.166 16 -35.499s-5.83301 -24.833 -17.5 -37.5s-23.834 -19 -36.501 -19s-24.167 5.33301 -34.5 16s-15.5 24.334 -15.5 41.001c0 32 17.333 49.333 52 52h2zM121.001 224.998l2.00293 -130.999
c0 -17.333 -0.333008 -26.666 -1 -27.999l173 3c19.333 -2 29 -10.333 29 -25c0 -28 -13 -42 -39 -42l-196 -2c-12 0 -20.833 4.16699 -26.5 12.5s-8.83398 17.166 -9.50098 26.499s-1 19.666 -1 30.999v166c-8.66699 4.66699 -13 11.667 -13 21s3.66699 17.666 11 24.999
c-2 52 -3 99.333 -3 142c0 24.667 15 37.334 45 38.001h28l175 -3h1c21.333 -2.66699 32 -12.667 32 -30c0 -13.333 -4 -22.333 -12 -27c-17.333 -9.33301 -59 -14 -125 -14c-24.667 0 -49.334 1 -74.001 3c0 -60 0.333008 -93.667 1 -101c26 -0.666992 77 -1 153 -1
c20.667 -2.66699 31 -12 31 -28c0 -8 -3.33301 -15.667 -10 -23s-13.834 -11.5 -21.501 -12.5s-24 -1.5 -49 -1.5s-58.5 0.333008 -100.5 1z" />
    <glyph glyph-name="Eogonek" unicode="&#x118;" horiz-adv-x="442" 
d="M351 -160c-28.667 3.33301 -49.667 15.6699 -63 37.0029s-20 42.666 -20 63.999s5.66699 42 17 62l-189 -3c-15.333 0 -26 2.83301 -32 8.5s-9 15.167 -9 28.5c2.66699 18.667 4 48.667 4 90v70l-4 147c-9.33301 6 -14 14.667 -14 26s3.66699 21.666 11 30.999
c-2.66699 66.667 -4 137 -4 211c4 16 10.167 27.667 18.5 35s20.5 12 36.5 14c88 -4 183.333 -6 286 -6c25.333 -5.33301 38 -16.333 38 -33c0 -28 -27.333 -44.333 -82 -49c-14.667 -0.666992 -30.667 -1 -48 -1h-65c-12.667 0 -47.667 2.66699 -105 8
c0 -83.333 1.33301 -140.666 4 -171.999c35.333 -0.666992 103.333 -1 204 -1c24 -4.66699 36 -15.5 36 -32.5s-9.66699 -30.167 -29 -39.5c-2 -1.33301 -5.66699 -2.66602 -11 -3.99902l-173 3c-10.667 0 -19.334 -0.666992 -26.001 -2l4 -172
c0 -38.667 -1 -66.334 -3 -83.001l232 3c21.333 -3.33301 32 -12.333 32 -27c0 -12.667 -6 -24.334 -18 -35.001c-2 -3.33301 -8 -9 -18 -17c-23.333 -18.667 -35 -39.334 -35 -62.001c0 -14 3.5 -25.167 10.5 -33.5s15 -12.5 24 -12.5s17.667 3 26 9s15 11.5 20 16.5
s11.333 8 19 9s15.167 -3.5 22.5 -13.5c5.33301 -4.66699 8 -9 8 -13s-1.66699 -9 -5 -15c-6 -12 -14 -21 -24 -27c-17.333 -13.333 -36.666 -20 -57.999 -20c-6 0 -12 0.333008 -18 1z" />
    <glyph glyph-name="eogonek" unicode="&#x119;" horiz-adv-x="380" 
d="M121 225l2 -130.999c0 -17.333 -0.333008 -26.666 -1 -27.999l173 3c19.333 -2 29 -10.333 29 -25c0 -16.667 -4.33301 -28.334 -13 -35.001c-1.33301 -1.33301 -5.66602 -5.33301 -12.999 -12s-12.666 -12 -15.999 -16c-11.333 -12 -17 -25.667 -17 -41
s3.5 -27.166 10.5 -35.499s15 -12.5 24 -12.5s17.667 3 26 9s15 11.5 20 16.5s11.333 8 19 9s15.167 -3.5 22.5 -13.5c5.33301 -4.66699 8 -9 8 -13s-1.66699 -9 -5 -15c-6 -12 -14 -21 -24 -27c-17.333 -13.333 -36.666 -20 -57.999 -20c-6 0 -12 0.333008 -18 1
c-28.667 3.33301 -49.667 15.666 -63 36.999s-20 42.333 -20 63s5.33301 41.334 16 62.001l-134 -1c-12 0 -20.833 4.16699 -26.5 12.5s-8.83398 17.166 -9.50098 26.499s-1 19.666 -1 30.999v166c-8.66699 4.66699 -13 11.667 -13 21s3.66699 17.666 11 24.999
c-2 52 -3 99.333 -3 142c0 24.667 15 37.334 45 38.001h28l175 -3h1c21.333 -2.66699 32 -12.667 32 -30c0 -13.333 -4 -22.333 -12 -27c-17.333 -9.33301 -59 -14 -125 -14c-24.667 0 -49.334 1 -74.001 3c0 -60 0.333008 -93.667 1 -101c26 -0.666992 77 -1 153 -1
c20.667 -2.66699 31 -12 31 -28c0 -8 -3.33301 -15.667 -10 -23s-13.834 -11.5 -21.501 -12.5s-24 -1.5 -49 -1.5s-58.5 0.333008 -100.5 1z" />
    <glyph glyph-name="Ecaron" unicode="&#x11a;" horiz-adv-x="442" 
d="M320 850c10.667 0 19.168 -4.00195 25.501 -12.002s9.33301 -17.167 9 -27.5s-17.833 -28.166 -52.5 -53.499s-59 -38 -73 -38c-15.333 0 -39 13.167 -71 39.5s-48 47.166 -48 62.499c0 9.33301 4.16699 17.333 12.5 24s15.833 9.83398 22.5 9.50098
s20.167 -8.16602 40.5 -23.499s36.166 -30 47.499 -44c42 42 71 63 87 63zM55.001 343.998c-9.33301 6 -13.999 14.667 -13.999 26s3.66699 21.666 11 30.999c-2.66699 66.667 -4 137 -4 211c4 16 10.167 27.667 18.5 35s20.5 12 36.5 14c88 -4 183.333 -6 286 -6
c25.333 -5.33301 38 -16.333 38 -33c0 -28 -27.333 -44.333 -82 -49c-14.667 -0.666992 -30.667 -1 -48 -1h-65c-12.667 0 -47.667 2.66699 -105 8c0 -83.333 1.33301 -140.666 4 -171.999c35.333 -0.666992 103.333 -1 204 -1c24 -4.66699 36 -15.5 36 -32.5
s-9.66699 -30.167 -29 -39.5c-2 -1.33301 -5.66699 -2.66602 -11 -3.99902l-173 3c-10.667 0 -19.334 -0.666992 -26.001 -2l4 -172c0 -38.667 -1 -66.334 -3 -83.001l232 3c21.333 -3.33301 32 -12.333 32 -27c0 -10 -4.5 -20 -13.5 -30s-19.5 -16.333 -31.5 -19l-256 -4
c-15.333 0 -26 2.83301 -32 8.5s-9 15.167 -9 28.5c2.66699 18.667 4 48.667 4 90v70z" />
    <glyph glyph-name="ecaron" unicode="&#x11b;" horiz-adv-x="380" 
d="M274 650c10.667 0 19.168 -4.00195 25.501 -12.002s9.33301 -17.167 9 -27.5s-17.833 -28.166 -52.5 -53.499s-59 -38 -73 -38c-15.333 0 -39 13.167 -71 39.5s-48 47.166 -48 62.499c0 9.33301 4.16699 17.333 12.5 24s15.833 9.83398 22.5 9.50098
s20.167 -8.16602 40.5 -23.499s36.166 -30 47.499 -44c42 42 71 63 87 63zM121.001 224.998l2.00293 -130.999c0 -17.333 -0.333008 -26.666 -1 -27.999l173 3c19.333 -2 29 -10.333 29 -25c0 -28 -13 -42 -39 -42l-196 -2c-12 0 -20.833 4.16699 -26.5 12.5
s-8.83398 17.166 -9.50098 26.499s-1 19.666 -1 30.999v166c-8.66699 4.66699 -13 11.667 -13 21s3.66699 17.666 11 24.999c-2 52 -3 99.333 -3 142c0 24.667 15 37.334 45 38.001h28l175 -3h1c21.333 -2.66699 32 -12.667 32 -30c0 -13.333 -4 -22.333 -12 -27
c-17.333 -9.33301 -59 -14 -125 -14c-24.667 0 -49.334 1 -74.001 3c0 -60 0.333008 -93.667 1 -101c26 -0.666992 77 -1 153 -1c20.667 -2.66699 31 -12 31 -28c0 -8 -3.33301 -15.667 -10 -23s-13.834 -11.5 -21.501 -12.5s-24 -1.5 -49 -1.5s-58.5 0.333008 -100.5 1z
" />
    <glyph glyph-name="Gcircumflex" unicode="&#x11c;" horiz-adv-x="480" 
d="M214 816c34 26.667 58.4971 40 73.4971 40s38.833 -12.5 71.5 -37.5s49 -45.167 49 -60.5c0 -9.33301 -4 -17.333 -12 -24s-14.667 -10 -20 -10s-20 10.667 -44 32s-39.167 32 -45.5 32s-20.666 -11 -42.999 -33s-38.166 -33 -47.499 -33s-17.166 3.83301 -23.499 11.5
s-9.5 16.667 -9.5 27s17 28.833 51 55.5zM330.997 664c32 0 63.8281 -8.00098 95.4951 -24.001s47.5 -34 47.5 -54c0 -30.667 -12.667 -46 -38 -46c-9.33301 0 -25.666 6 -48.999 18s-43 18 -59 18c-57.333 0 -105.166 -25.667 -143.499 -77s-57.5 -116.666 -57.5 -195.999
c0 -59.333 13 -111.333 39 -156s56.833 -67 92.5 -67s63.667 11.833 84 35.5s30.5 50.5 30.5 80.5c0 16.667 -1.16699 30.5 -3.5 41.5s-8.16602 21 -17.499 30s-21.666 13.5 -36.999 13.5s-29.833 3.33301 -43.5 10s-20.5 15.667 -20.5 27s3.33301 22 10 32s15.667 16 27 18
c45.333 0 75.833 -4.66699 91.5 -14s27.5 -17 35.5 -23s14.667 -16 20 -30s9.5 -25.667 12.5 -35s5.16699 -24.333 6.5 -45c1.33301 -34.667 2 -75.167 2 -121.5s-3.33301 -74.833 -10 -85.5c-6 -8.66699 -16 -13.167 -30 -13.5s-23.667 2.5 -29 8.5
s-8.66602 19.333 -9.99902 40c-16 -14 -36.167 -25.833 -60.5 -35.5s-45.833 -14.5 -64.5 -14.5c-58.667 0 -108 31.167 -148 93.5s-60 137.5 -60 225.5c0 46.667 7.66699 92.5 23 137.5s36 82.833 62 113.5c54.667 63.333 122 95 202 95z" />
    <glyph glyph-name="gcircumflex" unicode="&#x11d;" horiz-adv-x="420" 
d="M153 612c34 26.667 58.4971 40 73.4971 40s38.833 -12.5 71.5 -37.5s49 -45.167 49 -60.5c0 -9.33301 -4 -17.333 -12 -24s-14.667 -10 -20 -10s-20.166 10.667 -44.499 32s-39.5 32 -45.5 32s-20.167 -11 -42.5 -33s-38.166 -33 -47.499 -33
s-17.166 3.83301 -23.499 11.5s-9.5 16.667 -9.5 27s17 28.833 51 55.5zM261.997 461c28 0 53.9971 -6 77.9971 -18s36 -26.667 36 -44c0 -9.33301 -3.66699 -17.333 -11 -24s-16 -10 -26 -10s-21.333 3.83301 -34 11.5s-29.334 11.5 -50.001 11.5
c-42.667 0 -77.334 -17.667 -104.001 -53s-40 -74.166 -40 -116.499s9.33301 -78.166 28 -107.499s40.334 -44 65.001 -44s44.834 6.5 60.501 19.5s23.5 29.5 23.5 49.5c0 34.667 -6.33301 52 -19 52c-28 0 -47.333 1.83301 -58 5.5s-16 11.834 -16 24.501
c0 24 10.667 37 32 39c9.33301 0.666992 21.333 1 36 1s29.667 -2.66699 45 -8c21.333 -8 34.333 -20.667 39 -38c10 -41.333 15 -80 15 -116v-23c0 -11.333 -0.166992 -20.5 -0.5 -27.5s-1.33301 -15 -3 -24s-4.66699 -15.167 -9 -18.5s-11.666 -5 -21.999 -5
s-18.166 2.16699 -23.499 6.5s-9 12.166 -11 23.499c-31.333 -20.667 -62.666 -31 -93.999 -31s-59.833 11.167 -85.5 33.5s-44.834 50.166 -57.501 83.499s-19 66.666 -19 99.999c0 74 21.333 133.667 64 179s96.334 68 161.001 68z" />
    <glyph glyph-name="Gbreve" unicode="&#x11e;" horiz-adv-x="480" 
d="M166.5 829.5c7 7.66699 16.5 11.5029 28.5 11.5029s21.5 -6.83301 28.5 -20.5s12.167 -23.334 15.5 -29.001s9 -11.334 17 -17.001s18.5 -8.5 31.5 -8.5s23.5 3.66699 31.5 11s16.833 19.166 26.5 35.499s19.834 24.5 30.501 24.5s19 -3.33301 25 -10
s9 -15.334 9 -26.001c0 -28 -12.833 -51.667 -38.5 -71s-54.834 -29 -87.501 -29s-62.167 9.33301 -88.5 28s-39.5 43 -39.5 73c0 10.667 3.5 19.834 10.5 27.501zM331 664.003c32 0 63.8281 -8.00098 95.4951 -24.001s47.5 -34 47.5 -54c0 -30.667 -12.667 -46 -38 -46
c-9.33301 0 -25.666 6 -48.999 18s-43 18 -59 18c-57.333 0 -105.166 -25.667 -143.499 -77s-57.5 -116.666 -57.5 -195.999c0 -59.333 13 -111.333 39 -156s56.833 -67 92.5 -67s63.667 11.833 84 35.5s30.5 50.5 30.5 80.5c0 16.667 -1.16699 30.5 -3.5 41.5
s-8.16602 21 -17.499 30s-21.666 13.5 -36.999 13.5s-29.833 3.33301 -43.5 10s-20.5 15.667 -20.5 27s3.33301 22 10 32s15.667 16 27 18c45.333 0 75.833 -4.66699 91.5 -14s27.5 -17 35.5 -23s14.667 -16 20 -30s9.5 -25.667 12.5 -35s5.16699 -24.333 6.5 -45
c1.33301 -34.667 2 -75.167 2 -121.5s-3.33301 -74.833 -10 -85.5c-6 -8.66699 -16 -13.167 -30 -13.5s-23.667 2.5 -29 8.5s-8.66602 19.333 -9.99902 40c-16 -14 -36.167 -25.833 -60.5 -35.5s-45.833 -14.5 -64.5 -14.5c-58.667 0 -108 31.167 -148 93.5
s-60 137.5 -60 225.5c0 46.667 7.66699 92.5 23 137.5s36 82.833 62 113.5c54.667 63.333 122 95 202 95z" />
    <glyph glyph-name="gbreve" unicode="&#x11f;" horiz-adv-x="420" 
d="M105.5 625.5c7 7.66699 16.5 11.5029 28.5 11.5029s21.5 -6.83301 28.5 -20.5s12.167 -23.334 15.5 -29.001s9 -11.334 17 -17.001s18.5 -8.5 31.5 -8.5s23.5 3.66699 31.5 11s16.833 19.166 26.5 35.499s19.834 24.5 30.501 24.5s19 -3.33301 25 -10
s9 -15.334 9 -26.001c0 -28 -12.833 -51.667 -38.5 -71s-54.834 -29 -87.501 -29s-62.167 9.33301 -88.5 28s-39.5 43 -39.5 73c0 10.667 3.5 19.834 10.5 27.501zM262 461.003c28 0 53.9971 -6 77.9971 -18s36 -26.667 36 -44c0 -9.33301 -3.66699 -17.333 -11 -24
s-16 -10 -26 -10s-21.333 3.83301 -34 11.5s-29.334 11.5 -50.001 11.5c-42.667 0 -77.334 -17.667 -104.001 -53s-40 -74.166 -40 -116.499s9.33301 -78.166 28 -107.499s40.334 -44 65.001 -44s44.834 6.5 60.501 19.5s23.5 29.5 23.5 49.5c0 34.667 -6.33301 52 -19 52
c-28 0 -47.333 1.83301 -58 5.5s-16 11.834 -16 24.501c0 24 10.667 37 32 39c9.33301 0.666992 21.333 1 36 1s29.667 -2.66699 45 -8c21.333 -8 34.333 -20.667 39 -38c10 -41.333 15 -80 15 -116v-23c0 -11.333 -0.166992 -20.5 -0.5 -27.5s-1.33301 -15 -3 -24
s-4.66699 -15.167 -9 -18.5s-11.666 -5 -21.999 -5s-18.166 2.16699 -23.499 6.5s-9 12.166 -11 23.499c-31.333 -20.667 -62.666 -31 -93.999 -31s-59.833 11.167 -85.5 33.5s-44.834 50.166 -57.501 83.499s-19 66.666 -19 99.999c0 74 21.333 133.667 64 179
s96.334 68 161.001 68z" />
    <glyph glyph-name="Gdotaccent" unicode="&#x120;" horiz-adv-x="480" 
d="M285 832c12 0 23.334 -5.66895 34.001 -17.002s16 -23.166 16 -35.499s-5.83301 -24.833 -17.5 -37.5s-23.834 -19 -36.501 -19s-24.167 5.33301 -34.5 16s-15.5 24.334 -15.5 41.001c0 32 17.333 49.333 52 52h2zM331.001 663.998
c32 0 63.8281 -8.00098 95.4951 -24.001s47.5 -34 47.5 -54c0 -30.667 -12.667 -46 -38 -46c-9.33301 0 -25.666 6 -48.999 18s-43 18 -59 18c-57.333 0 -105.166 -25.667 -143.499 -77s-57.5 -116.666 -57.5 -195.999c0 -59.333 13 -111.333 39 -156s56.833 -67 92.5 -67
s63.667 11.833 84 35.5s30.5 50.5 30.5 80.5c0 16.667 -1.16699 30.5 -3.5 41.5s-8.16602 21 -17.499 30s-21.666 13.5 -36.999 13.5s-29.833 3.33301 -43.5 10s-20.5 15.667 -20.5 27s3.33301 22 10 32s15.667 16 27 18c45.333 0 75.833 -4.66699 91.5 -14
s27.5 -17 35.5 -23s14.667 -16 20 -30s9.5 -25.667 12.5 -35s5.16699 -24.333 6.5 -45c1.33301 -34.667 2 -75.167 2 -121.5s-3.33301 -74.833 -10 -85.5c-6 -8.66699 -16 -13.167 -30 -13.5s-23.667 2.5 -29 8.5s-8.66602 19.333 -9.99902 40
c-16 -14 -36.167 -25.833 -60.5 -35.5s-45.833 -14.5 -64.5 -14.5c-58.667 0 -108 31.167 -148 93.5s-60 137.5 -60 225.5c0 46.667 7.66699 92.5 23 137.5s36 82.833 62 113.5c54.667 63.333 122 95 202 95z" />
    <glyph glyph-name="gdotaccent" unicode="&#x121;" horiz-adv-x="420" 
d="M224 628c12 0 23.334 -5.66895 34.001 -17.002s16 -23.166 16 -35.499s-5.83301 -24.833 -17.5 -37.5s-23.834 -19 -36.501 -19s-24.167 5.33301 -34.5 16s-15.5 24.334 -15.5 41.001c0 32 17.333 49.333 52 52h2zM262.001 460.998c28 0 53.9971 -6 77.9971 -18
s36 -26.667 36 -44c0 -9.33301 -3.66699 -17.333 -11 -24s-16 -10 -26 -10s-21.333 3.83301 -34 11.5s-29.334 11.5 -50.001 11.5c-42.667 0 -77.334 -17.667 -104.001 -53s-40 -74.166 -40 -116.499s9.33301 -78.166 28 -107.499s40.334 -44 65.001 -44
s44.834 6.5 60.501 19.5s23.5 29.5 23.5 49.5c0 34.667 -6.33301 52 -19 52c-28 0 -47.333 1.83301 -58 5.5s-16 11.834 -16 24.501c0 24 10.667 37 32 39c9.33301 0.666992 21.333 1 36 1s29.667 -2.66699 45 -8c21.333 -8 34.333 -20.667 39 -38
c10 -41.333 15 -80 15 -116v-23c0 -11.333 -0.166992 -20.5 -0.5 -27.5s-1.33301 -15 -3 -24s-4.66699 -15.167 -9 -18.5s-11.666 -5 -21.999 -5s-18.166 2.16699 -23.499 6.5s-9 12.166 -11 23.499c-31.333 -20.667 -62.666 -31 -93.999 -31s-59.833 11.167 -85.5 33.5
s-44.834 50.166 -57.501 83.499s-19 66.666 -19 99.999c0 74 21.333 133.667 64 179s96.334 68 161.001 68z" />
    <glyph glyph-name="Gcommaaccent" unicode="&#x122;" horiz-adv-x="480" 
d="M331 664c32 0 63.8281 -8.00098 95.4951 -24.001s47.5 -34 47.5 -54c0 -30.667 -12.667 -46 -38 -46c-9.33301 0 -25.666 6 -48.999 18s-43 18 -59 18c-57.333 0 -105.166 -25.667 -143.499 -77s-57.5 -116.666 -57.5 -195.999c0 -59.333 13 -111.333 39 -156
s56.833 -67 92.5 -67s63.667 11.833 84 35.5s30.5 50.5 30.5 80.5c0 16.667 -1.16699 30.5 -3.5 41.5s-8.16602 21 -17.499 30s-21.666 13.5 -36.999 13.5s-29.833 3.33301 -43.5 10s-20.5 15.667 -20.5 27s3.33301 22 10 32s15.667 16 27 18
c45.333 0 75.833 -4.66699 91.5 -14s27.5 -17 35.5 -23s14.667 -16 20 -30s9.5 -25.667 12.5 -35s5.16699 -24.333 6.5 -45c1.33301 -34.667 2 -75.167 2 -121.5s-3.33301 -74.833 -10 -85.5c-6 -8.66699 -16 -13.167 -30 -13.5s-23.667 2.5 -29 8.5
s-8.66602 19.333 -9.99902 40c-16 -14 -36.167 -25.833 -60.5 -35.5s-45.833 -14.5 -64.5 -14.5c-58.667 0 -108 31.167 -148 93.5s-60 137.5 -60 225.5c0 46.667 7.66699 92.5 23 137.5s36 82.833 62 113.5c54.667 63.333 122 95 202 95zM301.995 -40.001
c12 0 21.166 -4.1709 27.499 -12.5039s9.5 -15.5 9.5 -21.5s-1 -11.667 -3 -17c-8.66699 -28 -25.667 -54.667 -51 -80s-44.166 -38 -56.499 -38s-21.833 3.33301 -28.5 10s-10 14.834 -10 24.501s4.16699 19.334 12.5 29.001s20 22.334 35 38.001s26.5 30.834 34.5 45.501
s18 22 30 22z" />
    <glyph glyph-name="gcommaaccent" unicode="&#x123;" horiz-adv-x="420" 
d="M262 461c28 0 53.9971 -6 77.9971 -18s36 -26.667 36 -44c0 -9.33301 -3.66699 -17.333 -11 -24s-16 -10 -26 -10s-21.333 3.83301 -34 11.5s-29.334 11.5 -50.001 11.5c-42.667 0 -77.334 -17.667 -104.001 -53s-40 -74.166 -40 -116.499s9.33301 -78.166 28 -107.499
s40.334 -44 65.001 -44s44.834 6.5 60.501 19.5s23.5 29.5 23.5 49.5c0 34.667 -6.33301 52 -19 52c-28 0 -47.333 1.83301 -58 5.5s-16 11.834 -16 24.501c0 24 10.667 37 32 39c9.33301 0.666992 21.333 1 36 1s29.667 -2.66699 45 -8c21.333 -8 34.333 -20.667 39 -38
c10 -41.333 15 -80 15 -116v-23c0 -11.333 -0.166992 -20.5 -0.5 -27.5s-1.33301 -15 -3 -24s-4.66699 -15.167 -9 -18.5s-11.666 -5 -21.999 -5s-18.166 2.16699 -23.499 6.5s-9 12.166 -11 23.499c-31.333 -20.667 -62.666 -31 -93.999 -31s-59.833 11.167 -85.5 33.5
s-44.834 50.166 -57.501 83.499s-19 66.666 -19 99.999c0 74 21.333 133.667 64 179s96.334 68 161.001 68zM253.997 -30c12 0 21.166 -4.1709 27.499 -12.5039s9.5 -15.5 9.5 -21.5s-1 -11.667 -3 -17c-8.66699 -28 -25.667 -54.667 -51 -80s-44.166 -38 -56.499 -38
s-21.833 3.33301 -28.5 10s-10 14.834 -10 24.501s4.16699 19.334 12.5 29.001s20 22.334 35 38.001s26.5 30.834 34.5 45.501s18 22 30 22z" />
    <glyph glyph-name="Hcircumflex" unicode="&#x124;" horiz-adv-x="468" 
d="M165 812c34 26.667 58.498 40 73.498 40s38.833 -12.5 71.5 -37.5s49 -45.167 49 -60.5c0 -9.33301 -4 -17.333 -12 -24s-14.5 -10 -19.5 -10s-19.833 10.667 -44.5 32s-40 32 -46 32s-20.167 -11 -42.5 -33s-38.166 -33 -47.499 -33s-17.166 3.83301 -23.499 11.5
s-9.5 16.667 -9.5 27s17 28.833 51 55.5zM131.998 383c52 -8.66699 99.668 -12.999 143.001 -12.999s71 0.333008 83 1c-1.33301 50.667 -2 99.334 -2 146.001v95c0 16.667 0.666992 27.167 2 31.5s5.66602 8.5 12.999 12.5s18 6 32 6c20 0 30 -12 30 -36v-354
c0 -73.333 -1.66699 -154 -5 -242c-0.666992 -19.333 -17 -29 -49 -29c-16 0 -24 9.66699 -24 29l4 265c-21.333 -1.33301 -50.5 -2 -87.5 -2s-83.5 4 -139.5 12c0 -88 4 -180 12 -276c0.666992 -10.667 -4 -18.834 -14 -24.501s-22.5 -8.5 -37.5 -8.5
s-23.167 7.66699 -24.5 23c-8.66699 94.667 -13 188 -13 280l6 312c0 13.333 5 23.166 15 29.499s20.667 9.5 32 9.5c18.667 0 28 -9 28 -27z" />
    <glyph glyph-name="hcircumflex" unicode="&#x125;" horiz-adv-x="380" 
d="M115 612c34 26.667 58.498 40 73.498 40s38.833 -12.5 71.5 -37.5s49 -45.167 49 -60.5c0 -9.33301 -4 -17.333 -12 -24s-14.5 -10 -19.5 -10s-19.833 10.667 -44.5 32s-40 32 -46 32s-20.167 -11 -42.5 -33s-38.166 -33 -47.499 -33s-17.166 3.83301 -23.499 11.5
s-9.5 16.667 -9.5 27s17 28.833 51 55.5zM334.998 204l-1 -148c0 -37.333 -12 -56 -36 -56c-11.333 -0 -19.833 2.33301 -25.5 7s-8.16699 12 -7.5 22c2.66699 35.333 4 91.666 4 168.999c-11.333 -1.33301 -28.833 -2 -52.5 -2s-60.5 2.66699 -110.5 8v-21
c0 -14 2.66699 -64.667 8 -152c0.666992 -10.667 -3.16602 -18.5 -11.499 -23.5s-16.833 -7.5 -25.5 -7.5s-15.5 2.5 -20.5 7.5s-7.83301 10.833 -8.5 17.5c-7.33301 69.333 -11 121.833 -11 157.5s0.333008 59.834 1 72.501l4 167c0.666992 8 5.16699 14.833 13.5 20.5
s17.166 8.5 26.499 8.5c17.333 0 26 -7.33301 26 -22l-2 -157c33.333 -5.33301 62.333 -8 87 -8h45h31c-2 36.667 -3 92 -3 166c0 9.33301 4.5 17 13.5 23s18.667 9 29 9s17.5 -4.66699 21.5 -14s5.66699 -18.333 5 -27v-217z" />
    <glyph glyph-name="Hbar" unicode="&#x126;" horiz-adv-x="500" 
d="M16 500c0 34.667 12.999 52.002 38.999 52.002c2.66699 0 5.33398 -0.333008 8.00098 -1h4v60c0 13.333 5 23.166 15 29.499s20.667 9.5 32 9.5c18.667 0 28 -9 28 -27l-1 -79c72.667 -5.33301 146.334 -8 221.001 -8v89c0 8 0.666992 14.167 2 18.5
s5.66602 8.5 12.999 12.5s18 6 32 6c20 0 30 -11 30 -33v-90h7c9.33301 0.666992 17.5 -1.5 24.5 -6.5s10.667 -10 11 -15s0.5 -8.5 0.5 -10.5c0 -32 -13 -48.333 -39 -49h-4v-186c0 -73.333 -1.66699 -154 -5 -242c-0.666992 -19.333 -17 -29 -49 -29
c-16 0 -24 9.66699 -24 29l4 265c-21.333 -1.33301 -50.5 -2 -87.5 -2s-83.5 4 -139.5 12c0 -88 4 -180 12 -276c0.666992 -10.667 -4 -18.834 -14 -24.501s-22.5 -8.5 -37.5 -8.5s-23.167 7.66699 -24.5 23c-8.66699 94.667 -13 170.667 -13 228s0.333008 97.333 1 120
l3 101l-14 1c-23.333 2 -35 12.333 -35 31zM363.999 371.002c-1.33301 17.333 -2 45.667 -2 85c-76.667 0 -151 2 -223 6l-1 -79c52 -8.66699 99.667 -13 143 -13s71 0.333008 83 1z" />
    <glyph glyph-name="hbar" unicode="&#x127;" horiz-adv-x="460" 
d="M121 451c18 0 26.332 -7.33203 24.999 -21.999v-49c59.333 -4.66699 112.333 -7 159 -7v57c0 9.33301 4.5 17 13.5 23s18.667 9 29 9s17.5 -4.66699 21.5 -14s5.66699 -18.333 5 -27v-46l7 1c20 0 30.667 -7.33301 32 -22c0.666992 -32.667 -11 -49.334 -35 -50.001h-4
v-100l-1 -148c0 -37.333 -12 -56 -36 -56c-11.333 -0 -19.833 2.33301 -25.5 7s-8.16699 12 -7.5 22c2.66699 35.333 4 91.666 4 168.999c-11.333 -1.33301 -28.833 -2 -52.5 -2s-60.5 2.66699 -110.5 8v-21c0 -14 2.66699 -64.667 8 -152
c0.666992 -10.667 -3.16602 -18.5 -11.499 -23.5s-16.833 -7.5 -25.5 -7.5s-15.5 2.5 -20.5 7.5s-7.83301 10.833 -8.5 17.5c-7.33301 69.333 -11 121.833 -11 157.5s0.333008 59.834 1 72.501l1 58l-8 1c-20.667 2 -31 11 -31 27c0 30.667 11 46 33 46
c2.66699 0 5.33398 -0.333008 8.00098 -1h1v36c0.666992 8 5.16699 14.833 13.5 20.5s17.166 8.5 26.499 8.5zM144.999 272.001c32.667 -5.33301 61.5 -8 86.5 -8h45.5h31l-1 39c-63.333 0 -117.333 1.66699 -162 5v-36z" />
    <glyph glyph-name="Itilde" unicode="&#x128;" horiz-adv-x="235" 
d="M12.5 806c19.667 16 38.332 23.999 55.999 23.999s31.834 -2.66699 42.501 -8s18 -11.333 22 -18c10.667 -17.333 20.334 -26 29.001 -26s18.167 8 28.5 24s20 24 29 24s16.833 -4 23.5 -12s10 -16.333 10 -25c0 -24 -9.83301 -42.333 -29.5 -55s-38.667 -19 -57 -19
s-32.5 3.83301 -42.5 11.5s-18.667 15.334 -26 23.001s-15.333 11.5 -24 11.5c-4 0 -12.333 -7.5 -25 -22.5s-23.334 -22.5 -32.001 -22.5s-16.5 4.16699 -23.5 12.5s-10.5 19.333 -10.5 33s9.83301 28.5 29.5 44.5zM134.998 645.999
c13.333 0 21.668 -7.66797 25.001 -23.001c0.666992 -77.333 2 -193 4 -347c0 -94 -2.66699 -173.667 -8 -239c-1.33301 -10 -7.5 -18.833 -18.5 -26.5s-22.167 -11.5 -33.5 -11.5c-18.667 0 -28 9.66699 -28 29c6.66699 66.667 10 149.334 10 248.001l-6 336
c2.66699 9.33301 9.16699 17.333 19.5 24s22.166 10 35.499 10z" />
    </font>
</defs>
</svg>
